<?xml version="1.0" standalone="no"?>
<!DOCTYPE svg PUBLIC "-//W3C//DTD SVG 20010904//EN"
 "http://www.w3.org/TR/2001/REC-SVG-20010904/DTD/svg10.dtd">
<svg version="1.0" xmlns="http://www.w3.org/2000/svg"
 width="380.000000pt" height="460.000000pt" viewBox="0 0 380.000000 460.000000"
 preserveAspectRatio="xMidYMid meet">

<g transform="translate(0.000000,460.000000) scale(0.100000,-0.100000)"
fill="#000000" stroke="none">
<path d="M563 4563 c9 -2 23 -2 30 0 6 3 -1 5 -18 5 -16 0 -22 -2 -12 -5z"/>
<path d="M1398 4563 c6 -2 18 -2 25 0 6 3 1 5 -13 5 -14 0 -19 -2 -12 -5z"/>
<path d="M1600 4566 c0 -2 11 -6 25 -8 13 -3 22 -1 19 3 -5 9 -44 13 -44 5z"/>
<path d="M638 4543 c7 -3 16 -2 19 1 4 3 -2 6 -13 5 -11 0 -14 -3 -6 -6z"/>
<path d="M719 4542 c12 -8 11 -11 -3 -15 -15 -4 -15 -5 1 -3 19 1 21 19 1 24
-10 3 -10 1 1 -6z"/>
<path d="M768 4543 c6 -2 18 -2 25 0 6 3 1 5 -13 5 -14 0 -19 -2 -12 -5z"/>
<path d="M1110 4546 c0 -2 7 -7 16 -10 8 -3 12 -2 9 4 -6 10 -25 14 -25 6z"/>
<path d="M1559 4542 c12 -8 11 -11 -3 -15 -15 -4 -15 -5 1 -3 19 1 21 19 1 24
-10 3 -10 1 1 -6z"/>
<path d="M1618 4533 c7 -3 16 -2 19 1 4 3 -2 6 -13 5 -11 0 -14 -3 -6 -6z"/>
<path d="M633 4523 c9 -2 23 -2 30 0 6 3 -1 5 -18 5 -16 0 -22 -2 -12 -5z"/>
<path d="M836 4521 c-4 -5 3 -7 14 -4 23 6 26 13 6 13 -8 0 -17 -4 -20 -9z"/>
<path d="M1408 4523 c7 -3 16 -2 19 1 4 3 -2 6 -13 5 -11 0 -14 -3 -6 -6z"/>
<path d="M1770 4500 c-9 -6 -10 -10 -3 -10 6 0 15 5 18 10 8 12 4 12 -15 0z"/>
<path d="M138 4493 c6 -2 18 -2 25 0 6 3 1 5 -13 5 -14 0 -19 -2 -12 -5z"/>
<path d="M568 4493 c7 -3 16 -2 19 1 4 3 -2 6 -13 5 -11 0 -14 -3 -6 -6z"/>
<path d="M1118 4493 c6 -2 18 -2 25 0 6 3 1 5 -13 5 -14 0 -19 -2 -12 -5z"/>
<path d="M1398 4493 c7 -3 16 -2 19 1 4 3 -2 6 -13 5 -11 0 -14 -3 -6 -6z"/>
<path d="M1608 4493 c6 -2 18 -2 25 0 6 3 1 5 -13 5 -14 0 -19 -2 -12 -5z"/>
<path d="M1688 4493 c6 -2 18 -2 25 0 6 3 1 5 -13 5 -14 0 -19 -2 -12 -5z"/>
<path d="M140 4396 c0 -2 7 -7 16 -10 8 -3 12 -2 9 4 -6 10 -25 14 -25 6z"/>
<path d="M348 4393 c6 -2 12 -17 12 -33 0 -16 -6 -31 -12 -33 -7 -3 1 -5 17
-5 17 0 24 2 18 5 -7 2 -13 17 -13 33 0 16 6 31 13 33 6 3 -1 5 -18 5 -16 0
-24 -2 -17 -5z"/>
<path d="M415 4360 c0 -34 3 -40 20 -39 11 0 14 3 8 6 -7 2 -13 11 -13 19 0 9
5 12 10 9 6 -3 10 1 10 10 0 9 -4 13 -10 10 -5 -3 -10 -1 -10 6 0 6 8 9 20 6
11 -3 20 -1 20 4 0 5 -12 9 -27 9 -26 0 -28 -3 -28 -40z"/>
<path d="M628 4393 c6 -2 18 -2 25 0 6 3 1 5 -13 5 -14 0 -19 -2 -12 -5z"/>
<path d="M1346 4386 c3 -8 -2 -16 -13 -19 -12 -3 -10 -5 9 -6 21 -1 25 3 21
19 -3 11 -9 20 -14 20 -5 0 -6 -6 -3 -14z"/>
<path d="M1395 4360 c0 -33 3 -40 20 -40 17 0 17 2 5 10 -13 9 -13 11 0 20 10
6 11 10 3 10 -20 0 -15 28 5 33 11 3 9 5 -8 6 -23 1 -25 -3 -25 -39z"/>
<path d="M1618 4393 c26 -5 29 -20 5 -25 -15 -3 -15 -5 3 -10 17 -4 21 -1 20
16 -1 15 -8 21 -26 23 -22 1 -22 1 -2 -4z"/>
<path d="M1688 4369 c3 -20 0 -34 -9 -40 -10 -6 -5 -8 16 -8 17 0 24 3 18 6
-7 2 -13 20 -13 39 0 19 -4 34 -8 34 -5 0 -6 -14 -4 -31z"/>
<path d="M1770 4391 c13 -10 13 -12 0 -21 -10 -6 -11 -10 -2 -10 6 0 12 -7 12
-16 0 -12 -6 -15 -21 -11 -16 4 -19 3 -11 -5 6 -6 18 -8 26 -5 20 8 17 69 -4
74 -13 4 -13 3 0 -6z"/>
<path d="M1959 4391 c9 -6 12 -20 9 -40 -3 -19 0 -31 7 -31 7 0 10 12 7 31 -3
20 0 34 9 40 10 6 5 9 -16 9 -21 0 -26 -3 -16 -9z"/>
<path d="M2056 4386 c3 -8 -2 -16 -13 -19 -17 -4 -17 -5 1 -6 13 -1 17 -6 13
-21 -3 -11 -1 -20 4 -20 5 0 9 18 9 40 0 22 -4 40 -10 40 -5 0 -7 -6 -4 -14z"/>
<path d="M2090 4360 c0 -37 2 -40 28 -39 23 2 24 2 5 6 -25 5 -31 28 -10 36
10 4 10 6 0 6 -7 1 -13 6 -13 12 0 6 9 9 20 6 11 -3 20 -1 20 4 0 5 -11 9 -25
9 -22 0 -25 -4 -25 -40z"/>
<path d="M2155 4360 c0 -22 5 -40 10 -40 12 0 11 73 -1 77 -5 2 -9 -15 -9 -37z"/>
<path d="M2196 4364 c3 -50 11 -53 16 -5 2 24 -1 41 -7 41 -6 0 -10 -16 -9
-36z"/>
<path d="M697 4373 c-3 -5 5 -8 18 -8 13 0 21 3 18 8 -2 4 -10 7 -18 7 -8 0
-16 -3 -18 -7z"/>
<path d="M785 4371 l20 -8 -20 -5 c-16 -5 -17 -6 -2 -7 9 0 17 -6 17 -12 0 -6
-9 -9 -20 -6 -11 3 -20 1 -20 -5 0 -5 10 -8 22 -6 33 4 37 58 5 57 -21 0 -21
-1 -2 -8z"/>
<path d="M847 4359 c4 -12 0 -25 -8 -30 -10 -6 -5 -9 16 -8 17 0 24 3 18 6 -7
2 -13 16 -13 29 0 13 -4 24 -9 24 -5 0 -7 -9 -4 -21z"/>
<path d="M907 4373 c-3 -5 5 -8 18 -8 13 0 21 3 18 8 -2 4 -10 7 -18 7 -8 0
-16 -3 -18 -7z"/>
<path d="M1047 4373 c-3 -5 5 -8 18 -8 13 0 21 3 18 8 -2 4 -10 7 -18 7 -8 0
-16 -3 -18 -7z"/>
<path d="M1467 4373 c-3 -5 5 -8 18 -8 13 0 21 3 18 8 -2 4 -10 7 -18 7 -8 0
-16 -3 -18 -7z"/>
<path d="M1555 4371 l20 -8 -20 -5 c-16 -5 -17 -6 -2 -7 9 0 17 -6 17 -12 0
-6 -9 -9 -20 -6 -11 3 -20 1 -20 -5 0 -5 10 -8 22 -6 33 4 37 58 5 57 -21 0
-21 -1 -2 -8z"/>
<path d="M1828 4373 c7 -3 16 -2 19 1 4 3 -2 6 -13 5 -11 0 -14 -3 -6 -6z"/>
<path d="M563 4363 c9 -2 23 -2 30 0 6 3 -1 5 -18 5 -16 0 -22 -2 -12 -5z"/>
<path d="M1193 4363 c9 -2 23 -2 30 0 6 3 -1 5 -18 5 -16 0 -22 -2 -12 -5z"/>
<path d="M638 4353 c7 -3 16 -2 19 1 4 3 -2 6 -13 5 -11 0 -14 -3 -6 -6z"/>
<path d="M976 4351 c-4 -5 3 -7 14 -4 23 6 26 13 6 13 -8 0 -17 -4 -20 -9z"/>
<path d="M1815 4350 c-9 -15 3 -29 25 -27 10 1 17 5 14 9 -3 4 -11 5 -19 1 -8
-3 -15 0 -15 5 0 6 8 13 18 15 15 4 15 5 0 6 -9 0 -20 -3 -23 -9z"/>
<path d="M557 4334 c3 -9 9 -11 12 -6 3 5 13 12 21 15 9 3 4 6 -12 6 -21 1
-26 -3 -21 -15z"/>
<path d="M1193 4343 c9 -2 23 -2 30 0 6 3 -1 5 -18 5 -16 0 -22 -2 -12 -5z"/>
<path d="M1328 4328 c5 -18 7 -19 10 -6 2 9 11 19 20 21 10 3 6 5 -10 6 -22 1
-25 -2 -20 -21z"/>
<path d="M697 4328 c2 -5 10 -8 18 -8 8 0 16 3 18 8 3 4 -5 7 -18 7 -13 0 -21
-3 -18 -7z"/>
<path d="M908 4328 c5 -5 16 -8 23 -6 8 3 3 7 -10 11 -17 4 -21 3 -13 -5z"/>
<path d="M990 4330 c-12 -7 -10 -9 7 -7 12 0 19 5 17 9 -6 10 -6 10 -24 -2z"/>
<path d="M1047 4328 c2 -5 10 -8 18 -8 8 0 16 3 18 8 3 4 -5 7 -18 7 -13 0
-21 -3 -18 -7z"/>
<path d="M1467 4328 c2 -5 10 -8 18 -8 8 0 16 3 18 8 3 4 -5 7 -18 7 -13 0
-21 -3 -18 -7z"/>
<path d="M1620 4330 l-25 -8 28 -1 c15 -1 27 4 27 9 0 6 -1 10 -2 9 -2 -1 -14
-5 -28 -9z"/>
<path d="M133 4323 c9 -2 23 -2 30 0 6 3 -1 5 -18 5 -16 0 -22 -2 -12 -5z"/>
<path d="M628 4323 c6 -2 18 -2 25 0 6 3 1 5 -13 5 -14 0 -19 -2 -12 -5z"/>
<path d="M628 4223 c6 -2 12 -17 12 -33 0 -16 -6 -31 -12 -33 -7 -3 1 -5 17
-5 17 0 24 2 18 5 -7 2 -13 17 -13 33 0 16 6 31 13 33 6 3 -1 5 -18 5 -16 0
-24 -2 -17 -5z"/>
<path d="M695 4190 c0 -34 3 -40 20 -39 11 0 14 3 8 6 -7 2 -13 11 -13 19 0 9
5 12 10 9 6 -3 10 1 10 10 0 9 -4 13 -10 10 -5 -3 -10 -1 -10 6 0 6 8 9 20 6
11 -3 20 -1 20 4 0 5 -12 9 -27 9 -26 0 -28 -3 -28 -40z"/>
<path d="M918 4223 c26 -5 29 -20 5 -25 -15 -3 -15 -5 3 -10 17 -4 21 -1 20
16 -1 15 -8 21 -26 23 -22 1 -22 1 -2 -4z"/>
<path d="M992 4198 c-1 -20 -8 -39 -14 -41 -7 -3 1 -6 17 -6 17 0 25 3 18 7
-6 4 -13 23 -16 42 l-4 35 -1 -37z"/>
<path d="M1189 4221 c9 -6 12 -20 9 -40 -3 -19 0 -31 7 -31 7 0 10 12 7 31 -3
20 0 34 9 40 10 6 5 9 -16 9 -21 0 -26 -3 -16 -9z"/>
<path d="M1286 4216 c3 -8 -2 -16 -13 -19 -17 -4 -17 -5 1 -6 13 -1 17 -6 13
-21 -3 -11 -1 -20 4 -20 5 0 9 18 9 40 0 22 -4 40 -10 40 -5 0 -7 -6 -4 -14z"/>
<path d="M1320 4190 c0 -37 2 -40 28 -39 23 2 24 2 5 6 -25 5 -31 28 -10 36
10 4 10 6 0 6 -7 1 -13 6 -13 12 0 6 9 9 20 6 11 -3 20 -1 20 4 0 5 -11 9 -25
9 -22 0 -25 -4 -25 -40z"/>
<path d="M1385 4190 c0 -22 5 -40 10 -40 12 0 11 73 -1 77 -5 2 -9 -15 -9 -37z"/>
<path d="M1426 4194 c3 -50 11 -53 16 -5 2 24 -1 41 -7 41 -6 0 -10 -16 -9
-36z"/>
<path d="M843 4193 c9 -2 23 -2 30 0 6 3 -1 5 -18 5 -16 0 -22 -2 -12 -5z"/>
<path d="M837 4164 c3 -9 9 -11 12 -6 3 5 13 12 21 15 9 3 4 6 -12 6 -21 1
-26 -3 -21 -15z"/>
<path d="M1080 4171 c0 -8 -8 -11 -20 -8 -11 3 -18 1 -14 -4 3 -5 11 -9 19 -9
16 0 30 18 21 27 -3 4 -6 1 -6 -6z"/>
<path d="M150 4160 c-9 -6 -10 -10 -3 -10 6 0 15 5 18 10 8 12 4 12 -15 0z"/>
<path d="M908 4153 c6 -2 18 -2 25 0 6 3 1 5 -13 5 -14 0 -19 -2 -12 -5z"/>
<path d="M976 4051 c-4 -5 3 -7 14 -4 23 6 26 13 6 13 -8 0 -17 -4 -20 -9z"/>
<path d="M1338 4053 c26 -5 29 -20 5 -25 -15 -3 -15 -5 3 -10 17 -4 21 -1 20
16 -1 15 -8 21 -26 23 -22 1 -22 1 -2 -4z"/>
<path d="M1412 4028 c-1 -20 -8 -39 -14 -41 -7 -3 1 -6 17 -6 17 0 25 3 18 7
-6 4 -13 23 -16 42 l-4 35 -1 -37z"/>
<path d="M1836 4046 c3 -8 -2 -16 -13 -19 -12 -3 -10 -5 9 -6 21 -1 25 3 21
19 -3 11 -9 20 -14 20 -5 0 -6 -6 -3 -14z"/>
<path d="M1886 4051 c-4 -5 3 -7 14 -4 23 6 26 13 6 13 -8 0 -17 -4 -20 -9z"/>
<path d="M2318 4053 c26 -5 29 -20 5 -25 -15 -3 -15 -5 3 -10 17 -4 21 -1 20
16 -1 15 -8 21 -26 23 -22 1 -22 1 -2 -4z"/>
<path d="M1047 4033 c-3 -5 5 -8 18 -8 13 0 21 3 18 8 -2 4 -10 7 -18 7 -8 0
-16 -3 -18 -7z"/>
<path d="M1110 4035 c0 -8 29 -12 39 -5 9 5 4 8 -13 8 -14 0 -26 -2 -26 -3z"/>
<path d="M1175 4000 c0 -22 5 -40 10 -40 6 0 9 17 7 40 -2 22 -7 40 -11 40 -3
0 -6 -18 -6 -40z"/>
<path d="M1257 4033 c-3 -5 5 -8 18 -8 13 0 21 3 18 8 -2 4 -10 7 -18 7 -8 0
-16 -3 -18 -7z"/>
<path d="M1957 4033 c-3 -5 5 -8 18 -8 13 0 21 3 18 8 -2 4 -10 7 -18 7 -8 0
-16 -3 -18 -7z"/>
<path d="M2020 4035 c0 -8 29 -12 39 -5 9 5 4 8 -13 8 -14 0 -26 -2 -26 -3z"/>
<path d="M2085 4000 c0 -22 5 -40 10 -40 6 0 9 17 7 40 -2 22 -7 40 -11 40 -3
0 -6 -18 -6 -40z"/>
<path d="M2167 4033 c-3 -5 5 -8 18 -8 13 0 21 3 18 8 -2 4 -10 7 -18 7 -8 0
-16 -3 -18 -7z"/>
<path d="M913 4023 c9 -2 23 -2 30 0 6 3 -1 5 -18 5 -16 0 -22 -2 -12 -5z"/>
<path d="M1683 4023 c9 -2 23 -2 30 0 6 3 -1 5 -18 5 -16 0 -22 -2 -12 -5z"/>
<path d="M138 4003 c6 -2 18 -2 25 0 6 3 1 5 -13 5 -14 0 -19 -2 -12 -5z"/>
<path d="M907 3994 c3 -9 9 -11 12 -6 3 5 13 12 21 15 9 3 4 6 -12 6 -21 1
-26 -3 -21 -15z"/>
<path d="M1500 4001 c0 -8 -8 -11 -20 -8 -11 3 -18 1 -14 -4 3 -5 11 -9 19 -9
16 0 30 18 21 27 -3 4 -6 1 -6 -6z"/>
<path d="M1683 4003 c9 -2 23 -2 30 0 6 3 -1 5 -18 5 -16 0 -22 -2 -12 -5z"/>
<path d="M1818 3988 c5 -18 7 -19 10 -6 2 9 11 19 20 21 10 3 6 5 -10 6 -22 1
-25 -2 -20 -21z"/>
<path d="M1047 3988 c2 -5 10 -8 18 -8 8 0 16 3 18 8 3 4 -5 7 -18 7 -13 0
-21 -3 -18 -7z"/>
<path d="M1257 3988 c2 -5 10 -8 18 -8 8 0 16 3 18 8 3 4 -5 7 -18 7 -13 0
-21 -3 -18 -7z"/>
<path d="M1888 3988 c5 -5 16 -8 23 -6 8 3 3 7 -10 11 -17 4 -21 3 -13 -5z"/>
<path d="M1957 3988 c2 -5 10 -8 18 -8 8 0 16 3 18 8 3 4 -5 7 -18 7 -13 0
-21 -3 -18 -7z"/>
<path d="M2167 3988 c2 -5 10 -8 18 -8 8 0 16 3 18 8 3 4 -5 7 -18 7 -13 0
-21 -3 -18 -7z"/>
<path d="M2320 3990 l-25 -8 28 -1 c15 -1 27 4 27 9 0 6 -1 10 -2 9 -2 -1 -14
-5 -28 -9z"/>
<path d="M2380 3985 c0 -8 2 -15 4 -15 2 0 6 7 10 15 3 8 1 15 -4 15 -6 0 -10
-7 -10 -15z"/>
<path d="M1118 3983 c6 -2 18 -2 25 0 6 3 1 5 -13 5 -14 0 -19 -2 -12 -5z"/>
<path d="M1328 3983 c6 -2 18 -2 25 0 6 3 1 5 -13 5 -14 0 -19 -2 -12 -5z"/>
<path d="M2028 3983 c6 -2 18 -2 25 0 6 3 1 5 -13 5 -14 0 -19 -2 -12 -5z"/>
<path d="M2238 3953 c12 -2 30 -2 40 0 9 3 -1 5 -23 4 -22 0 -30 -2 -17 -4z"/>
<path d="M138 3883 c7 -3 16 -2 19 1 4 3 -2 6 -13 5 -11 0 -14 -3 -6 -6z"/>
<path d="M620 3850 c0 -37 2 -40 28 -39 23 2 24 2 5 6 -25 5 -31 28 -10 36 10
4 10 6 0 6 -7 1 -13 6 -13 12 0 6 9 9 20 6 11 -3 20 -1 20 4 0 5 -11 9 -25 9
-22 0 -25 -4 -25 -40z"/>
<path d="M695 3850 c0 -36 2 -40 25 -39 19 1 20 3 7 6 -15 4 -18 12 -15 39 2
20 0 34 -7 34 -5 0 -10 -18 -10 -40z"/>
<path d="M765 3880 c-9 -14 1 -27 25 -33 11 -3 18 -1 14 4 -3 5 -12 9 -20 9
-8 0 -14 5 -14 11 0 6 9 9 20 6 11 -3 20 -1 20 4 0 12 -37 11 -45 -1z"/>
<path d="M830 3850 c0 -37 2 -40 28 -39 23 2 24 2 5 6 -25 5 -31 28 -10 36 10
4 10 6 0 6 -7 1 -13 6 -13 12 0 6 9 9 20 6 11 -3 20 -1 20 4 0 5 -11 9 -25 9
-22 0 -25 -4 -25 -40z"/>
<path d="M138 3853 c7 -3 16 -2 19 1 4 3 -2 6 -13 5 -11 0 -14 -3 -6 -6z"/>
<path d="M760 3818 c0 -5 9 -8 19 -8 11 0 22 3 24 8 3 4 -6 7 -19 7 -13 0 -24
-3 -24 -7z"/>
<path d="M976 3711 c-4 -5 3 -7 14 -4 23 6 26 13 6 13 -8 0 -17 -4 -20 -9z"/>
<path d="M1338 3713 c26 -5 29 -20 5 -25 -15 -3 -15 -5 3 -10 17 -4 21 -1 20
16 -1 15 -8 21 -26 23 -22 1 -22 1 -2 -4z"/>
<path d="M1412 3688 c-1 -20 -8 -39 -14 -41 -7 -3 1 -6 17 -6 17 0 25 3 18 7
-6 4 -13 23 -16 42 l-4 35 -1 -37z"/>
<path d="M1836 3706 c3 -8 -2 -16 -13 -19 -12 -3 -10 -5 9 -6 21 -1 25 3 21
19 -3 11 -9 20 -14 20 -5 0 -6 -6 -3 -14z"/>
<path d="M1886 3711 c-4 -5 3 -7 14 -4 23 6 26 13 6 13 -8 0 -17 -4 -20 -9z"/>
<path d="M2305 3680 c0 -33 3 -40 20 -40 17 0 17 2 5 10 -13 9 -13 11 0 20 10
6 11 10 3 10 -20 0 -15 28 5 33 11 3 9 5 -8 6 -23 1 -25 -3 -25 -39z"/>
<path d="M1047 3693 c-3 -5 5 -8 18 -8 13 0 21 3 18 8 -2 4 -10 7 -18 7 -8 0
-16 -3 -18 -7z"/>
<path d="M1110 3695 c0 -8 29 -12 39 -5 9 5 4 8 -13 8 -14 0 -26 -2 -26 -3z"/>
<path d="M1175 3660 c0 -22 5 -40 10 -40 6 0 9 17 7 40 -2 22 -7 40 -11 40 -3
0 -6 -18 -6 -40z"/>
<path d="M1257 3693 c-3 -5 5 -8 18 -8 13 0 21 3 18 8 -2 4 -10 7 -18 7 -8 0
-16 -3 -18 -7z"/>
<path d="M1957 3693 c-3 -5 5 -8 18 -8 13 0 21 3 18 8 -2 4 -10 7 -18 7 -8 0
-16 -3 -18 -7z"/>
<path d="M2020 3695 c0 -8 29 -12 39 -5 9 5 4 8 -13 8 -14 0 -26 -2 -26 -3z"/>
<path d="M2085 3660 c0 -22 5 -40 10 -40 6 0 9 17 7 40 -2 22 -7 40 -11 40 -3
0 -6 -18 -6 -40z"/>
<path d="M2167 3693 c-3 -5 5 -8 18 -8 13 0 21 3 18 8 -2 4 -10 7 -18 7 -8 0
-16 -3 -18 -7z"/>
<path d="M135 3680 c-3 -6 1 -7 9 -4 18 7 21 14 7 14 -6 0 -13 -4 -16 -10z"/>
<path d="M913 3683 c9 -2 23 -2 30 0 6 3 -1 5 -18 5 -16 0 -22 -2 -12 -5z"/>
<path d="M1683 3683 c9 -2 23 -2 30 0 6 3 -1 5 -18 5 -16 0 -22 -2 -12 -5z"/>
<path d="M907 3654 c3 -9 9 -11 12 -6 3 5 13 12 21 15 9 3 4 6 -12 6 -21 1
-26 -3 -21 -15z"/>
<path d="M1500 3661 c0 -8 -8 -11 -20 -8 -11 3 -18 1 -14 -4 3 -5 11 -9 19 -9
16 0 30 18 21 27 -3 4 -6 1 -6 -6z"/>
<path d="M1683 3663 c9 -2 23 -2 30 0 6 3 -1 5 -18 5 -16 0 -22 -2 -12 -5z"/>
<path d="M1818 3648 c5 -18 7 -19 10 -6 2 9 11 19 20 21 10 3 6 5 -10 6 -22 1
-25 -2 -20 -21z"/>
<path d="M1047 3648 c2 -5 10 -8 18 -8 8 0 16 3 18 8 3 4 -5 7 -18 7 -13 0
-21 -3 -18 -7z"/>
<path d="M1257 3648 c2 -5 10 -8 18 -8 8 0 16 3 18 8 3 4 -5 7 -18 7 -13 0
-21 -3 -18 -7z"/>
<path d="M1888 3648 c5 -5 16 -8 23 -6 8 3 3 7 -10 11 -17 4 -21 3 -13 -5z"/>
<path d="M1957 3648 c2 -5 10 -8 18 -8 8 0 16 3 18 8 3 4 -5 7 -18 7 -13 0
-21 -3 -18 -7z"/>
<path d="M2167 3648 c2 -5 10 -8 18 -8 8 0 16 3 18 8 3 4 -5 7 -18 7 -13 0
-21 -3 -18 -7z"/>
<path d="M2380 3645 c0 -8 2 -15 4 -15 2 0 6 7 10 15 3 8 1 15 -4 15 -6 0 -10
-7 -10 -15z"/>
<path d="M1118 3643 c6 -2 18 -2 25 0 6 3 1 5 -13 5 -14 0 -19 -2 -12 -5z"/>
<path d="M1328 3643 c6 -2 18 -2 25 0 6 3 1 5 -13 5 -14 0 -19 -2 -12 -5z"/>
<path d="M2028 3643 c6 -2 18 -2 25 0 6 3 1 5 -13 5 -14 0 -19 -2 -12 -5z"/>
<path d="M2238 3613 c12 -2 30 -2 40 0 9 3 -1 5 -23 4 -22 0 -30 -2 -17 -4z"/>
<path d="M128 3543 c6 -2 18 -2 25 0 6 3 1 5 -13 5 -14 0 -19 -2 -12 -5z"/>
<path d="M620 3510 c0 -37 2 -40 28 -39 23 2 24 2 5 6 -25 5 -31 28 -10 36 10
4 10 6 0 6 -7 1 -13 6 -13 12 0 6 9 9 20 6 11 -3 20 -1 20 4 0 5 -11 9 -25 9
-22 0 -25 -4 -25 -40z"/>
<path d="M685 3510 c0 -22 5 -40 10 -40 12 0 11 73 -1 77 -5 2 -9 -15 -9 -37z"/>
<path d="M726 3514 c3 -50 11 -53 16 -5 2 24 -1 41 -7 41 -6 0 -10 -16 -9 -36z"/>
<path d="M760 3546 c0 -2 11 -6 25 -8 13 -3 22 -1 19 3 -5 9 -44 13 -44 5z"/>
<path d="M908 3543 c6 -2 12 -17 12 -33 0 -16 -6 -31 -12 -33 -7 -3 1 -5 17
-5 17 0 24 2 18 5 -7 2 -13 17 -13 33 0 16 6 31 13 33 6 3 -1 5 -18 5 -16 0
-24 -2 -17 -5z"/>
<path d="M975 3510 c0 -34 3 -40 20 -39 11 0 14 3 8 6 -7 2 -13 11 -13 19 0 9
5 12 10 9 6 -3 10 1 10 10 0 9 -4 13 -10 10 -5 -3 -10 -1 -10 6 0 6 8 9 20 6
11 -3 20 -1 20 4 0 5 -12 9 -27 9 -26 0 -28 -3 -28 -40z"/>
<path d="M780 3480 c-23 -7 -23 -8 -3 -9 12 -1 25 4 28 9 3 6 5 10 3 9 -2 -1
-14 -5 -28 -9z"/>
<path d="M1050 3475 c0 -8 2 -15 4 -15 2 0 6 7 10 15 3 8 1 15 -4 15 -6 0 -10
-7 -10 -15z"/>
<path d="M838 3443 c12 -2 30 -2 40 0 9 3 -1 5 -23 4 -22 0 -30 -2 -17 -4z"/>
<path d="M340 3340 c0 -37 2 -40 28 -39 23 2 24 2 5 6 -25 5 -31 28 -10 36 10
4 10 6 0 6 -7 1 -13 6 -13 12 0 6 9 9 20 6 11 -3 20 -1 20 4 0 5 -11 9 -25 9
-22 0 -25 -4 -25 -40z"/>
<path d="M405 3340 c0 -22 5 -40 10 -40 12 0 11 73 -1 77 -5 2 -9 -15 -9 -37z"/>
<path d="M446 3344 c3 -50 11 -53 16 -5 2 24 -1 41 -7 41 -6 0 -10 -16 -9 -36z"/>
<path d="M480 3376 c0 -2 11 -6 25 -8 13 -3 22 -1 19 3 -5 9 -44 13 -44 5z"/>
<path d="M628 3373 c6 -2 12 -17 12 -33 0 -16 -6 -31 -12 -33 -7 -3 1 -5 17
-5 17 0 24 2 18 5 -7 2 -13 17 -13 33 0 16 6 31 13 33 6 3 -1 5 -18 5 -16 0
-24 -2 -17 -5z"/>
<path d="M695 3340 c0 -34 3 -40 20 -39 11 0 14 3 8 6 -7 2 -13 11 -13 19 0 9
5 12 10 9 6 -3 10 1 10 10 0 9 -4 13 -10 10 -5 -3 -10 -1 -10 6 0 6 8 9 20 6
11 -3 20 -1 20 4 0 5 -12 9 -27 9 -26 0 -28 -3 -28 -40z"/>
<path d="M500 3310 c-23 -7 -23 -8 -3 -9 12 -1 25 4 28 9 3 6 5 10 3 9 -2 -1
-14 -5 -28 -9z"/>
<path d="M770 3305 c0 -8 2 -15 4 -15 2 0 6 7 10 15 3 8 1 15 -4 15 -6 0 -10
-7 -10 -15z"/>
<path d="M558 3273 c12 -2 30 -2 40 0 9 3 -1 5 -23 4 -22 0 -30 -2 -17 -4z"/>
<path d="M150 3170 c-9 -6 -10 -10 -3 -10 6 0 15 5 18 10 8 12 4 12 -15 0z"/>
<path d="M563 3033 c9 -2 23 -2 30 0 6 3 -1 5 -18 5 -16 0 -22 -2 -12 -5z"/>
<path d="M1398 3033 c6 -2 18 -2 25 0 6 3 1 5 -13 5 -14 0 -19 -2 -12 -5z"/>
<path d="M1600 3036 c0 -2 11 -6 25 -8 13 -3 22 -1 19 3 -5 9 -44 13 -44 5z"/>
<path d="M638 3013 c7 -3 16 -2 19 1 4 3 -2 6 -13 5 -11 0 -14 -3 -6 -6z"/>
<path d="M719 3012 c12 -8 11 -11 -3 -15 -15 -4 -15 -5 1 -3 19 1 21 19 1 24
-10 3 -10 1 1 -6z"/>
<path d="M768 3013 c6 -2 18 -2 25 0 6 3 1 5 -13 5 -14 0 -19 -2 -12 -5z"/>
<path d="M965 3010 c4 -6 11 -8 16 -5 14 9 11 15 -7 15 -8 0 -12 -5 -9 -10z"/>
<path d="M1559 3012 c12 -8 11 -11 -3 -15 -15 -4 -15 -5 1 -3 19 1 21 19 1 24
-10 3 -10 1 1 -6z"/>
<path d="M1618 3003 c7 -3 16 -2 19 1 4 3 -2 6 -13 5 -11 0 -14 -3 -6 -6z"/>
<path d="M633 2993 c9 -2 23 -2 30 0 6 3 -1 5 -18 5 -16 0 -22 -2 -12 -5z"/>
<path d="M836 2991 c-4 -5 3 -7 14 -4 23 6 26 13 6 13 -8 0 -17 -4 -20 -9z"/>
<path d="M1408 2993 c7 -3 16 -2 19 1 4 3 -2 6 -13 5 -11 0 -14 -3 -6 -6z"/>
<path d="M1770 2970 c-9 -6 -10 -10 -3 -10 6 0 15 5 18 10 8 12 4 12 -15 0z"/>
<path d="M68 2963 c6 -2 18 -2 25 0 6 3 1 5 -13 5 -14 0 -19 -2 -12 -5z"/>
<path d="M568 2963 c7 -3 16 -2 19 1 4 3 -2 6 -13 5 -11 0 -14 -3 -6 -6z"/>
<path d="M1053 2963 c9 -2 23 -2 30 0 6 3 -1 5 -18 5 -16 0 -22 -2 -12 -5z"/>
<path d="M1193 2963 c9 -2 23 -2 30 0 6 3 -1 5 -18 5 -16 0 -22 -2 -12 -5z"/>
<path d="M1398 2963 c7 -3 16 -2 19 1 4 3 -2 6 -13 5 -11 0 -14 -3 -6 -6z"/>
<path d="M1608 2963 c6 -2 18 -2 25 0 6 3 1 5 -13 5 -14 0 -19 -2 -12 -5z"/>
<path d="M1688 2963 c6 -2 18 -2 25 0 6 3 1 5 -13 5 -14 0 -19 -2 -12 -5z"/>
<path d="M348 2863 c6 -2 12 -17 12 -33 0 -16 -6 -31 -12 -33 -7 -3 1 -5 17
-5 17 0 24 2 18 5 -7 2 -13 17 -13 33 0 16 6 31 13 33 6 3 -1 5 -18 5 -16 0
-24 -2 -17 -5z"/>
<path d="M415 2830 c0 -34 3 -40 20 -39 11 0 14 3 8 6 -7 2 -13 11 -13 19 0 9
5 12 10 9 6 -3 10 1 10 10 0 9 -4 13 -10 10 -5 -3 -10 -1 -10 6 0 6 8 9 20 6
11 -3 20 -1 20 4 0 5 -12 9 -27 9 -26 0 -28 -3 -28 -40z"/>
<path d="M628 2863 c6 -2 18 -2 25 0 6 3 1 5 -13 5 -14 0 -19 -2 -12 -5z"/>
<path d="M1346 2856 c3 -8 -2 -16 -13 -19 -12 -3 -10 -5 9 -6 21 -1 25 3 21
19 -3 11 -9 20 -14 20 -5 0 -6 -6 -3 -14z"/>
<path d="M1395 2830 c0 -33 3 -40 20 -40 17 0 17 2 5 10 -13 9 -13 11 0 20 10
6 11 10 3 10 -20 0 -15 28 5 33 11 3 9 5 -8 6 -23 1 -25 -3 -25 -39z"/>
<path d="M1618 2863 c26 -5 29 -20 5 -25 -15 -3 -15 -5 3 -10 17 -4 21 -1 20
16 -1 15 -8 21 -26 23 -22 1 -22 1 -2 -4z"/>
<path d="M1688 2839 c3 -20 0 -34 -9 -40 -10 -6 -5 -8 16 -8 17 0 24 3 18 6
-7 2 -13 20 -13 39 0 19 -4 34 -8 34 -5 0 -6 -14 -4 -31z"/>
<path d="M1770 2861 c13 -10 13 -12 0 -21 -10 -6 -11 -10 -2 -10 6 0 12 -7 12
-16 0 -12 -6 -15 -21 -11 -16 4 -19 3 -11 -5 6 -6 18 -8 26 -5 20 8 17 69 -4
74 -13 4 -13 3 0 -6z"/>
<path d="M1805 2830 c0 -22 3 -40 8 -40 4 0 7 18 7 40 0 22 -3 40 -7 40 -5 0
-8 -18 -8 -40z"/>
<path d="M1959 2861 c9 -6 12 -20 9 -40 -3 -19 0 -31 7 -31 7 0 10 12 7 31 -3
20 0 34 9 40 10 6 5 9 -16 9 -21 0 -26 -3 -16 -9z"/>
<path d="M2056 2856 c3 -8 -2 -16 -13 -19 -17 -4 -17 -5 1 -6 13 -1 17 -6 13
-21 -3 -11 -1 -20 4 -20 5 0 9 18 9 40 0 22 -4 40 -10 40 -5 0 -7 -6 -4 -14z"/>
<path d="M2090 2830 c0 -37 2 -40 28 -39 23 2 24 2 5 6 -25 5 -31 28 -10 36
10 4 10 6 0 6 -7 1 -13 6 -13 12 0 6 9 9 20 6 11 -3 20 -1 20 4 0 5 -11 9 -25
9 -22 0 -25 -4 -25 -40z"/>
<path d="M2155 2830 c0 -22 5 -40 10 -40 12 0 11 73 -1 77 -5 2 -9 -15 -9 -37z"/>
<path d="M2196 2834 c3 -50 11 -53 16 -5 2 24 -1 41 -7 41 -6 0 -10 -16 -9
-36z"/>
<path d="M697 2843 c-3 -5 5 -8 18 -8 13 0 21 3 18 8 -2 4 -10 7 -18 7 -8 0
-16 -3 -18 -7z"/>
<path d="M785 2841 l20 -8 -20 -5 c-16 -5 -17 -6 -2 -7 9 0 17 -6 17 -12 0 -6
-9 -9 -20 -6 -11 3 -20 1 -20 -5 0 -5 10 -8 22 -6 33 4 37 58 5 57 -21 0 -21
-1 -2 -8z"/>
<path d="M847 2829 c4 -12 0 -25 -8 -30 -10 -6 -5 -9 16 -8 17 0 24 3 18 6 -7
2 -13 16 -13 29 0 13 -4 24 -9 24 -5 0 -7 -9 -4 -21z"/>
<path d="M907 2843 c-3 -5 5 -8 18 -8 13 0 21 3 18 8 -2 4 -10 7 -18 7 -8 0
-16 -3 -18 -7z"/>
<path d="M1047 2843 c-3 -5 5 -8 18 -8 13 0 21 3 18 8 -2 4 -10 7 -18 7 -8 0
-16 -3 -18 -7z"/>
<path d="M1467 2843 c-3 -5 5 -8 18 -8 13 0 21 3 18 8 -2 4 -10 7 -18 7 -8 0
-16 -3 -18 -7z"/>
<path d="M1555 2841 l20 -8 -20 -5 c-16 -5 -17 -6 -2 -7 9 0 17 -6 17 -12 0
-6 -9 -9 -20 -6 -11 3 -20 1 -20 -5 0 -5 10 -8 22 -6 33 4 37 58 5 57 -21 0
-21 -1 -2 -8z"/>
<path d="M1830 2846 c0 -2 7 -7 16 -10 8 -3 12 -2 9 4 -6 10 -25 14 -25 6z"/>
<path d="M563 2833 c9 -2 23 -2 30 0 6 3 -1 5 -18 5 -16 0 -22 -2 -12 -5z"/>
<path d="M1193 2833 c9 -2 23 -2 30 0 6 3 -1 5 -18 5 -16 0 -22 -2 -12 -5z"/>
<path d="M638 2823 c7 -3 16 -2 19 1 4 3 -2 6 -13 5 -11 0 -14 -3 -6 -6z"/>
<path d="M976 2821 c-4 -5 3 -7 14 -4 23 6 26 13 6 13 -8 0 -17 -4 -20 -9z"/>
<path d="M557 2804 c3 -9 9 -11 12 -6 3 5 13 12 21 15 9 3 4 6 -12 6 -21 1
-26 -3 -21 -15z"/>
<path d="M1193 2813 c9 -2 23 -2 30 0 6 3 -1 5 -18 5 -16 0 -22 -2 -12 -5z"/>
<path d="M1328 2798 c5 -18 7 -19 10 -6 2 9 11 19 20 21 10 3 6 5 -10 6 -22 1
-25 -2 -20 -21z"/>
<path d="M697 2798 c2 -5 10 -8 18 -8 8 0 16 3 18 8 3 4 -5 7 -18 7 -13 0 -21
-3 -18 -7z"/>
<path d="M908 2798 c5 -5 16 -8 23 -6 8 3 3 7 -10 11 -17 4 -21 3 -13 -5z"/>
<path d="M990 2800 c-12 -7 -10 -9 7 -7 12 0 19 5 17 9 -6 10 -6 10 -24 -2z"/>
<path d="M1047 2798 c2 -5 10 -8 18 -8 8 0 16 3 18 8 3 4 -5 7 -18 7 -13 0
-21 -3 -18 -7z"/>
<path d="M1467 2798 c2 -5 10 -8 18 -8 8 0 16 3 18 8 3 4 -5 7 -18 7 -13 0
-21 -3 -18 -7z"/>
<path d="M1620 2800 l-25 -8 28 -1 c15 -1 27 4 27 9 0 6 -1 10 -2 9 -2 -1 -14
-5 -28 -9z"/>
<path d="M1840 2800 c-9 -6 -10 -10 -3 -10 6 0 15 5 18 10 8 12 4 12 -15 0z"/>
<path d="M68 2793 c6 -2 18 -2 25 0 6 3 1 5 -13 5 -14 0 -19 -2 -12 -5z"/>
<path d="M138 2793 c6 -2 18 -2 25 0 6 3 1 5 -13 5 -14 0 -19 -2 -12 -5z"/>
<path d="M628 2793 c6 -2 18 -2 25 0 6 3 1 5 -13 5 -14 0 -19 -2 -12 -5z"/>
<path d="M140 2696 c0 -2 7 -7 16 -10 8 -3 12 -2 9 4 -6 10 -25 14 -25 6z"/>
<path d="M628 2693 c6 -2 12 -17 12 -33 0 -16 -6 -31 -12 -33 -7 -3 1 -5 17
-5 17 0 24 2 18 5 -7 2 -13 17 -13 33 0 16 6 31 13 33 6 3 -1 5 -18 5 -16 0
-24 -2 -17 -5z"/>
<path d="M695 2660 c0 -34 3 -40 20 -39 11 0 14 3 8 6 -7 2 -13 11 -13 19 0 9
5 12 10 9 6 -3 10 1 10 10 0 9 -4 13 -10 10 -5 -3 -10 -1 -10 6 0 6 8 9 20 6
11 -3 20 -1 20 4 0 5 -12 9 -27 9 -26 0 -28 -3 -28 -40z"/>
<path d="M918 2693 c26 -5 29 -20 5 -25 -15 -3 -15 -5 3 -10 17 -4 21 -1 20
16 -1 15 -8 21 -26 23 -22 1 -22 1 -2 -4z"/>
<path d="M992 2668 c-1 -20 -8 -39 -14 -41 -7 -3 1 -6 17 -6 17 0 25 3 18 7
-6 4 -13 23 -16 42 l-4 35 -1 -37z"/>
<path d="M1189 2691 c9 -6 12 -20 9 -40 -3 -19 0 -31 7 -31 7 0 10 12 7 31 -3
20 0 34 9 40 10 6 5 9 -16 9 -21 0 -26 -3 -16 -9z"/>
<path d="M1286 2686 c3 -8 -2 -16 -13 -19 -17 -4 -17 -5 1 -6 13 -1 17 -6 13
-21 -3 -11 -1 -20 4 -20 5 0 9 18 9 40 0 22 -4 40 -10 40 -5 0 -7 -6 -4 -14z"/>
<path d="M1320 2660 c0 -37 2 -40 28 -39 23 2 24 2 5 6 -25 5 -31 28 -10 36
10 4 10 6 0 6 -7 1 -13 6 -13 12 0 6 9 9 20 6 11 -3 20 -1 20 4 0 5 -11 9 -25
9 -22 0 -25 -4 -25 -40z"/>
<path d="M1385 2660 c0 -22 5 -40 10 -40 12 0 11 73 -1 77 -5 2 -9 -15 -9 -37z"/>
<path d="M1426 2664 c3 -50 11 -53 16 -5 2 24 -1 41 -7 41 -6 0 -10 -16 -9
-36z"/>
<path d="M843 2663 c9 -2 23 -2 30 0 6 3 -1 5 -18 5 -16 0 -22 -2 -12 -5z"/>
<path d="M837 2634 c3 -9 9 -11 12 -6 3 5 13 12 21 15 9 3 4 6 -12 6 -21 1
-26 -3 -21 -15z"/>
<path d="M1080 2641 c0 -8 -8 -11 -20 -8 -11 3 -18 1 -14 -4 3 -5 11 -9 19 -9
16 0 30 18 21 27 -3 4 -6 1 -6 -6z"/>
<path d="M68 2623 c6 -2 18 -2 25 0 6 3 1 5 -13 5 -14 0 -19 -2 -12 -5z"/>
<path d="M133 2623 c9 -2 23 -2 30 0 6 3 -1 5 -18 5 -16 0 -22 -2 -12 -5z"/>
<path d="M908 2623 c6 -2 18 -2 25 0 6 3 1 5 -13 5 -14 0 -19 -2 -12 -5z"/>
<path d="M965 2520 c3 -5 8 -10 11 -10 2 0 4 5 4 10 0 6 -5 10 -11 10 -5 0 -7
-4 -4 -10z"/>
<path d="M1006 2514 c-5 -14 -4 -15 9 -4 17 14 19 20 6 20 -5 0 -12 -7 -15
-16z"/>
<path d="M1198 2499 c3 -20 0 -34 -9 -40 -10 -6 -5 -8 16 -8 17 0 24 3 18 6
-7 2 -13 20 -13 39 0 19 -4 34 -8 34 -5 0 -6 -14 -4 -31z"/>
<path d="M1338 2523 c26 -5 29 -20 5 -25 -15 -3 -15 -5 3 -10 17 -4 21 -1 20
16 -1 15 -8 21 -26 23 -22 1 -22 1 -2 -4z"/>
<path d="M1412 2498 c-1 -20 -8 -39 -14 -41 -7 -3 1 -6 17 -6 17 0 25 3 18 7
-6 4 -13 23 -16 42 l-4 35 -1 -37z"/>
<path d="M1836 2516 c3 -8 -2 -16 -13 -19 -12 -3 -10 -5 9 -6 21 -1 25 3 21
19 -3 11 -9 20 -14 20 -5 0 -6 -6 -3 -14z"/>
<path d="M1883 2508 c8 -13 18 -23 22 -23 4 0 14 10 23 23 8 12 10 22 4 22 -6
0 -14 -10 -18 -22 l-7 -23 -10 23 c-6 12 -14 22 -20 22 -5 0 -3 -10 6 -22z"/>
<path d="M2108 2499 c3 -20 0 -34 -9 -40 -10 -6 -5 -8 16 -8 17 0 24 3 18 6
-7 2 -13 20 -13 39 0 19 -4 34 -8 34 -5 0 -6 -14 -4 -31z"/>
<path d="M2318 2523 c26 -5 29 -20 5 -25 -15 -3 -15 -5 3 -10 17 -4 21 -1 20
16 -1 15 -8 21 -26 23 -22 1 -22 1 -2 -4z"/>
<path d="M1057 2489 c4 -12 0 -25 -8 -30 -10 -6 -5 -9 16 -8 17 0 24 3 18 6
-7 2 -13 16 -13 29 0 13 -4 24 -9 24 -5 0 -7 -9 -4 -21z"/>
<path d="M1117 2503 c-3 -5 5 -8 18 -8 13 0 21 3 18 8 -2 4 -10 7 -18 7 -8 0
-16 -3 -18 -7z"/>
<path d="M1257 2503 c-3 -5 5 -8 18 -8 13 0 21 3 18 8 -2 4 -10 7 -18 7 -8 0
-16 -3 -18 -7z"/>
<path d="M1967 2489 c4 -12 0 -25 -8 -30 -10 -6 -5 -9 16 -8 17 0 24 3 18 6
-7 2 -13 16 -13 29 0 13 -4 24 -9 24 -5 0 -7 -9 -4 -21z"/>
<path d="M2027 2503 c-3 -5 5 -8 18 -8 13 0 21 3 18 8 -2 4 -10 7 -18 7 -8 0
-16 -3 -18 -7z"/>
<path d="M2167 2503 c-3 -5 5 -8 18 -8 13 0 21 3 18 8 -2 4 -10 7 -18 7 -8 0
-16 -3 -18 -7z"/>
<path d="M913 2493 c9 -2 23 -2 30 0 6 3 -1 5 -18 5 -16 0 -22 -2 -12 -5z"/>
<path d="M1683 2493 c9 -2 23 -2 30 0 6 3 -1 5 -18 5 -16 0 -22 -2 -12 -5z"/>
<path d="M907 2464 c3 -9 9 -11 12 -6 3 5 13 12 21 15 9 3 4 6 -12 6 -21 1
-26 -3 -21 -15z"/>
<path d="M1500 2471 c0 -8 -8 -11 -20 -8 -11 3 -18 1 -14 -4 3 -5 11 -9 19 -9
16 0 30 18 21 27 -3 4 -6 1 -6 -6z"/>
<path d="M1683 2473 c9 -2 23 -2 30 0 6 3 -1 5 -18 5 -16 0 -22 -2 -12 -5z"/>
<path d="M1818 2458 c5 -18 7 -19 10 -6 2 9 11 19 20 21 10 3 6 5 -10 6 -22 1
-25 -2 -20 -21z"/>
<path d="M150 2460 c-9 -6 -10 -10 -3 -10 6 0 15 5 18 10 8 12 4 12 -15 0z"/>
<path d="M1117 2458 c2 -5 10 -8 18 -8 8 0 16 3 18 8 3 4 -5 7 -18 7 -13 0
-21 -3 -18 -7z"/>
<path d="M1257 2458 c2 -5 10 -8 18 -8 8 0 16 3 18 8 3 4 -5 7 -18 7 -13 0
-21 -3 -18 -7z"/>
<path d="M2027 2458 c2 -5 10 -8 18 -8 8 0 16 3 18 8 3 4 -5 7 -18 7 -13 0
-21 -3 -18 -7z"/>
<path d="M2167 2458 c2 -5 10 -8 18 -8 8 0 16 3 18 8 3 4 -5 7 -18 7 -13 0
-21 -3 -18 -7z"/>
<path d="M2320 2460 l-25 -8 28 -1 c15 -1 27 4 27 9 0 6 -1 10 -2 9 -2 -1 -14
-5 -28 -9z"/>
<path d="M2380 2455 c0 -8 2 -15 4 -15 2 0 6 7 10 15 3 8 1 15 -4 15 -6 0 -10
-7 -10 -15z"/>
<path d="M68 2453 c6 -2 18 -2 25 0 6 3 1 5 -13 5 -14 0 -19 -2 -12 -5z"/>
<path d="M968 2453 c7 -3 16 -2 19 1 4 3 -2 6 -13 5 -11 0 -14 -3 -6 -6z"/>
<path d="M1328 2453 c6 -2 18 -2 25 0 6 3 1 5 -13 5 -14 0 -19 -2 -12 -5z"/>
<path d="M1878 2453 c7 -3 16 -2 19 1 4 3 -2 6 -13 5 -11 0 -14 -3 -6 -6z"/>
<path d="M2238 2423 c12 -2 30 -2 40 0 9 3 -1 5 -23 4 -22 0 -30 -2 -17 -4z"/>
<path d="M620 2320 c0 -37 2 -40 28 -39 23 2 24 2 5 6 -25 5 -31 28 -10 36 10
4 10 6 0 6 -7 1 -13 6 -13 12 0 6 9 9 20 6 11 -3 20 -1 20 4 0 5 -11 9 -25 9
-22 0 -25 -4 -25 -40z"/>
<path d="M695 2320 c0 -36 2 -40 25 -39 19 1 20 3 7 6 -15 4 -18 12 -15 39 2
20 0 34 -7 34 -5 0 -10 -18 -10 -40z"/>
<path d="M765 2350 c-9 -14 1 -27 25 -33 11 -3 18 -1 14 4 -3 5 -12 9 -20 9
-8 0 -14 5 -14 11 0 6 9 9 20 6 11 -3 20 -1 20 4 0 12 -37 11 -45 -1z"/>
<path d="M830 2320 c0 -37 2 -40 28 -39 23 2 24 2 5 6 -25 5 -31 28 -10 36 10
4 10 6 0 6 -7 1 -13 6 -13 12 0 6 9 9 20 6 11 -3 20 -1 20 4 0 5 -11 9 -25 9
-22 0 -25 -4 -25 -40z"/>
<path d="M138 2303 c6 -2 18 -2 25 0 6 3 1 5 -13 5 -14 0 -19 -2 -12 -5z"/>
<path d="M760 2288 c0 -5 9 -8 19 -8 11 0 22 3 24 8 3 4 -6 7 -19 7 -13 0 -24
-3 -24 -7z"/>
<path d="M68 2283 c6 -2 18 -2 25 0 6 3 1 5 -13 5 -14 0 -19 -2 -12 -5z"/>
<path d="M138 2183 c7 -3 16 -2 19 1 4 3 -2 6 -13 5 -11 0 -14 -3 -6 -6z"/>
<path d="M965 2180 c3 -5 8 -10 11 -10 2 0 4 5 4 10 0 6 -5 10 -11 10 -5 0 -7
-4 -4 -10z"/>
<path d="M1006 2174 c-5 -14 -4 -15 9 -4 17 14 19 20 6 20 -5 0 -12 -7 -15
-16z"/>
<path d="M1198 2159 c3 -20 0 -34 -9 -40 -10 -6 -5 -8 16 -8 17 0 24 3 18 6
-7 2 -13 20 -13 39 0 19 -4 34 -8 34 -5 0 -6 -14 -4 -31z"/>
<path d="M1338 2183 c26 -5 29 -20 5 -25 -15 -3 -15 -5 3 -10 17 -4 21 -1 20
16 -1 15 -8 21 -26 23 -22 1 -22 1 -2 -4z"/>
<path d="M1412 2158 c-1 -20 -8 -39 -14 -41 -7 -3 1 -6 17 -6 17 0 25 3 18 7
-6 4 -13 23 -16 42 l-4 35 -1 -37z"/>
<path d="M1836 2176 c3 -8 -2 -16 -13 -19 -12 -3 -10 -5 9 -6 21 -1 25 3 21
19 -3 11 -9 20 -14 20 -5 0 -6 -6 -3 -14z"/>
<path d="M1883 2168 c8 -13 18 -23 22 -23 4 0 14 10 23 23 8 12 10 22 4 22 -6
0 -14 -10 -18 -22 l-7 -23 -10 23 c-6 12 -14 22 -20 22 -5 0 -3 -10 6 -22z"/>
<path d="M2108 2159 c3 -20 0 -34 -9 -40 -10 -6 -5 -8 16 -8 17 0 24 3 18 6
-7 2 -13 20 -13 39 0 19 -4 34 -8 34 -5 0 -6 -14 -4 -31z"/>
<path d="M2305 2150 c0 -33 3 -40 20 -40 17 0 17 2 5 10 -13 9 -13 11 0 20 10
6 11 10 3 10 -20 0 -15 28 5 33 11 3 9 5 -8 6 -23 1 -25 -3 -25 -39z"/>
<path d="M1057 2149 c4 -12 0 -25 -8 -30 -10 -6 -5 -9 16 -8 17 0 24 3 18 6
-7 2 -13 16 -13 29 0 13 -4 24 -9 24 -5 0 -7 -9 -4 -21z"/>
<path d="M1117 2163 c-3 -5 5 -8 18 -8 13 0 21 3 18 8 -2 4 -10 7 -18 7 -8 0
-16 -3 -18 -7z"/>
<path d="M1257 2163 c-3 -5 5 -8 18 -8 13 0 21 3 18 8 -2 4 -10 7 -18 7 -8 0
-16 -3 -18 -7z"/>
<path d="M1967 2149 c4 -12 0 -25 -8 -30 -10 -6 -5 -9 16 -8 17 0 24 3 18 6
-7 2 -13 16 -13 29 0 13 -4 24 -9 24 -5 0 -7 -9 -4 -21z"/>
<path d="M2027 2163 c-3 -5 5 -8 18 -8 13 0 21 3 18 8 -2 4 -10 7 -18 7 -8 0
-16 -3 -18 -7z"/>
<path d="M2167 2163 c-3 -5 5 -8 18 -8 13 0 21 3 18 8 -2 4 -10 7 -18 7 -8 0
-16 -3 -18 -7z"/>
<path d="M138 2153 c7 -3 16 -2 19 1 4 3 -2 6 -13 5 -11 0 -14 -3 -6 -6z"/>
<path d="M913 2153 c9 -2 23 -2 30 0 6 3 -1 5 -18 5 -16 0 -22 -2 -12 -5z"/>
<path d="M1683 2153 c9 -2 23 -2 30 0 6 3 -1 5 -18 5 -16 0 -22 -2 -12 -5z"/>
<path d="M907 2124 c3 -9 9 -11 12 -6 3 5 13 12 21 15 9 3 4 6 -12 6 -21 1
-26 -3 -21 -15z"/>
<path d="M1500 2131 c0 -8 -8 -11 -20 -8 -11 3 -18 1 -14 -4 3 -5 11 -9 19 -9
16 0 30 18 21 27 -3 4 -6 1 -6 -6z"/>
<path d="M1683 2133 c9 -2 23 -2 30 0 6 3 -1 5 -18 5 -16 0 -22 -2 -12 -5z"/>
<path d="M1818 2118 c5 -18 7 -19 10 -6 2 9 11 19 20 21 10 3 6 5 -10 6 -22 1
-25 -2 -20 -21z"/>
<path d="M1117 2118 c2 -5 10 -8 18 -8 8 0 16 3 18 8 3 4 -5 7 -18 7 -13 0
-21 -3 -18 -7z"/>
<path d="M1257 2118 c2 -5 10 -8 18 -8 8 0 16 3 18 8 3 4 -5 7 -18 7 -13 0
-21 -3 -18 -7z"/>
<path d="M2027 2118 c2 -5 10 -8 18 -8 8 0 16 3 18 8 3 4 -5 7 -18 7 -13 0
-21 -3 -18 -7z"/>
<path d="M2167 2118 c2 -5 10 -8 18 -8 8 0 16 3 18 8 3 4 -5 7 -18 7 -13 0
-21 -3 -18 -7z"/>
<path d="M2380 2115 c0 -8 2 -15 4 -15 2 0 6 7 10 15 3 8 1 15 -4 15 -6 0 -10
-7 -10 -15z"/>
<path d="M68 2113 c6 -2 18 -2 25 0 6 3 1 5 -13 5 -14 0 -19 -2 -12 -5z"/>
<path d="M968 2113 c7 -3 16 -2 19 1 4 3 -2 6 -13 5 -11 0 -14 -3 -6 -6z"/>
<path d="M1328 2113 c6 -2 18 -2 25 0 6 3 1 5 -13 5 -14 0 -19 -2 -12 -5z"/>
<path d="M1878 2113 c7 -3 16 -2 19 1 4 3 -2 6 -13 5 -11 0 -14 -3 -6 -6z"/>
<path d="M2238 2083 c12 -2 30 -2 40 0 9 3 -1 5 -23 4 -22 0 -30 -2 -17 -4z"/>
<path d="M620 1980 c0 -37 2 -40 28 -39 23 2 24 2 5 6 -25 5 -31 28 -10 36 10
4 10 6 0 6 -7 1 -13 6 -13 12 0 6 9 9 20 6 11 -3 20 -1 20 4 0 5 -11 9 -25 9
-22 0 -25 -4 -25 -40z"/>
<path d="M685 1980 c0 -22 5 -40 10 -40 12 0 11 73 -1 77 -5 2 -9 -15 -9 -37z"/>
<path d="M726 1984 c3 -50 11 -53 16 -5 2 24 -1 41 -7 41 -6 0 -10 -16 -9 -36z"/>
<path d="M760 2016 c0 -2 11 -6 25 -8 13 -3 22 -1 19 3 -5 9 -44 13 -44 5z"/>
<path d="M908 2013 c6 -2 12 -17 12 -33 0 -16 -6 -31 -12 -33 -7 -3 1 -5 17
-5 17 0 24 2 18 5 -7 2 -13 17 -13 33 0 16 6 31 13 33 6 3 -1 5 -18 5 -16 0
-24 -2 -17 -5z"/>
<path d="M975 1980 c0 -34 3 -40 20 -39 11 0 14 3 8 6 -7 2 -13 11 -13 19 0 9
5 12 10 9 6 -3 10 1 10 10 0 9 -4 13 -10 10 -5 -3 -10 -1 -10 6 0 6 8 9 20 6
11 -3 20 -1 20 4 0 5 -12 9 -27 9 -26 0 -28 -3 -28 -40z"/>
<path d="M135 1980 c-3 -6 1 -7 9 -4 18 7 21 14 7 14 -6 0 -13 -4 -16 -10z"/>
<path d="M780 1950 c-23 -7 -23 -8 -3 -9 12 -1 25 4 28 9 3 6 5 10 3 9 -2 -1
-14 -5 -28 -9z"/>
<path d="M1050 1945 c0 -8 2 -15 4 -15 2 0 6 7 10 15 3 8 1 15 -4 15 -6 0 -10
-7 -10 -15z"/>
<path d="M68 1943 c6 -2 18 -2 25 0 6 3 1 5 -13 5 -14 0 -19 -2 -12 -5z"/>
<path d="M838 1913 c12 -2 30 -2 40 0 9 3 -1 5 -23 4 -22 0 -30 -2 -17 -4z"/>
<path d="M128 1843 c6 -2 18 -2 25 0 6 3 1 5 -13 5 -14 0 -19 -2 -12 -5z"/>
<path d="M340 1810 c0 -37 2 -40 28 -39 23 2 24 2 5 6 -25 5 -31 28 -10 36 10
4 10 6 0 6 -7 1 -13 6 -13 12 0 6 9 9 20 6 11 -3 20 -1 20 4 0 5 -11 9 -25 9
-22 0 -25 -4 -25 -40z"/>
<path d="M405 1810 c0 -22 5 -40 10 -40 12 0 11 73 -1 77 -5 2 -9 -15 -9 -37z"/>
<path d="M446 1814 c3 -50 11 -53 16 -5 2 24 -1 41 -7 41 -6 0 -10 -16 -9 -36z"/>
<path d="M480 1846 c0 -2 11 -6 25 -8 13 -3 22 -1 19 3 -5 9 -44 13 -44 5z"/>
<path d="M628 1843 c6 -2 12 -17 12 -33 0 -16 -6 -31 -12 -33 -7 -3 1 -5 17
-5 17 0 24 2 18 5 -7 2 -13 17 -13 33 0 16 6 31 13 33 6 3 -1 5 -18 5 -16 0
-24 -2 -17 -5z"/>
<path d="M695 1810 c0 -34 3 -40 20 -39 11 0 14 3 8 6 -7 2 -13 11 -13 19 0 9
5 12 10 9 6 -3 10 1 10 10 0 9 -4 13 -10 10 -5 -3 -10 -1 -10 6 0 6 8 9 20 6
11 -3 20 -1 20 4 0 5 -12 9 -27 9 -26 0 -28 -3 -28 -40z"/>
<path d="M500 1780 c-23 -7 -23 -8 -3 -9 12 -1 25 4 28 9 3 6 5 10 3 9 -2 -1
-14 -5 -28 -9z"/>
<path d="M770 1775 c0 -8 2 -15 4 -15 2 0 6 7 10 15 3 8 1 15 -4 15 -6 0 -10
-7 -10 -15z"/>
<path d="M68 1773 c6 -2 18 -2 25 0 6 3 1 5 -13 5 -14 0 -19 -2 -12 -5z"/>
<path d="M558 1743 c12 -2 30 -2 40 0 9 3 -1 5 -23 4 -22 0 -30 -2 -17 -4z"/>
<path d="M68 1603 c6 -2 18 -2 25 0 6 3 1 5 -13 5 -14 0 -19 -2 -12 -5z"/>
<path d="M563 1503 c9 -2 23 -2 30 0 6 3 -1 5 -18 5 -16 0 -22 -2 -12 -5z"/>
<path d="M1398 1503 c6 -2 18 -2 25 0 6 3 1 5 -13 5 -14 0 -19 -2 -12 -5z"/>
<path d="M1600 1506 c0 -2 11 -6 25 -8 13 -3 22 -1 19 3 -5 9 -44 13 -44 5z"/>
<path d="M1760 1506 c0 -2 7 -7 16 -10 8 -3 12 -2 9 4 -6 10 -25 14 -25 6z"/>
<path d="M638 1483 c7 -3 16 -2 19 1 4 3 -2 6 -13 5 -11 0 -14 -3 -6 -6z"/>
<path d="M719 1482 c12 -8 11 -11 -3 -15 -15 -4 -15 -5 1 -3 19 1 21 19 1 24
-10 3 -10 1 1 -6z"/>
<path d="M768 1483 c6 -2 18 -2 25 0 6 3 1 5 -13 5 -14 0 -19 -2 -12 -5z"/>
<path d="M1110 1486 c0 -2 7 -7 16 -10 8 -3 12 -2 9 4 -6 10 -25 14 -25 6z"/>
<path d="M1559 1482 c12 -8 11 -11 -3 -15 -15 -4 -15 -5 1 -3 19 1 21 19 1 24
-10 3 -10 1 1 -6z"/>
<path d="M150 1470 c-9 -6 -10 -10 -3 -10 6 0 15 5 18 10 8 12 4 12 -15 0z"/>
<path d="M1618 1473 c7 -3 16 -2 19 1 4 3 -2 6 -13 5 -11 0 -14 -3 -6 -6z"/>
<path d="M633 1463 c9 -2 23 -2 30 0 6 3 -1 5 -18 5 -16 0 -22 -2 -12 -5z"/>
<path d="M836 1461 c-4 -5 3 -7 14 -4 23 6 26 13 6 13 -8 0 -17 -4 -20 -9z"/>
<path d="M1408 1463 c7 -3 16 -2 19 1 4 3 -2 6 -13 5 -11 0 -14 -3 -6 -6z"/>
<path d="M68 1433 c6 -2 18 -2 25 0 6 3 1 5 -13 5 -14 0 -19 -2 -12 -5z"/>
<path d="M568 1433 c7 -3 16 -2 19 1 4 3 -2 6 -13 5 -11 0 -14 -3 -6 -6z"/>
<path d="M1118 1433 c6 -2 18 -2 25 0 6 3 1 5 -13 5 -14 0 -19 -2 -12 -5z"/>
<path d="M1398 1433 c7 -3 16 -2 19 1 4 3 -2 6 -13 5 -11 0 -14 -3 -6 -6z"/>
<path d="M1608 1433 c6 -2 18 -2 25 0 6 3 1 5 -13 5 -14 0 -19 -2 -12 -5z"/>
<path d="M1688 1433 c6 -2 18 -2 25 0 6 3 1 5 -13 5 -14 0 -19 -2 -12 -5z"/>
<path d="M1753 1433 c9 -2 23 -2 30 0 6 3 -1 5 -18 5 -16 0 -22 -2 -12 -5z"/>
<path d="M70 1336 c0 -2 7 -7 16 -10 8 -3 12 -2 9 4 -6 10 -25 14 -25 6z"/>
<path d="M348 1333 c6 -2 12 -17 12 -33 0 -16 -6 -31 -12 -33 -7 -3 1 -5 17
-5 17 0 24 2 18 5 -7 2 -13 17 -13 33 0 16 6 31 13 33 6 3 -1 5 -18 5 -16 0
-24 -2 -17 -5z"/>
<path d="M415 1300 c0 -34 3 -40 20 -39 11 0 14 3 8 6 -7 2 -13 11 -13 19 0 9
5 12 10 9 6 -3 10 1 10 10 0 9 -4 13 -10 10 -5 -3 -10 -1 -10 6 0 6 8 9 20 6
11 -3 20 -1 20 4 0 5 -12 9 -27 9 -26 0 -28 -3 -28 -40z"/>
<path d="M628 1333 c6 -2 18 -2 25 0 6 3 1 5 -13 5 -14 0 -19 -2 -12 -5z"/>
<path d="M1346 1326 c3 -8 -2 -16 -13 -19 -12 -3 -10 -5 9 -6 21 -1 25 3 21
19 -3 11 -9 20 -14 20 -5 0 -6 -6 -3 -14z"/>
<path d="M1395 1300 c0 -33 3 -40 20 -40 17 0 17 2 5 10 -13 9 -13 11 0 20 10
6 11 10 3 10 -20 0 -15 28 5 33 11 3 9 5 -8 6 -23 1 -25 -3 -25 -39z"/>
<path d="M1618 1333 c26 -5 29 -20 5 -25 -15 -3 -15 -5 3 -10 17 -4 21 -1 20
16 -1 15 -8 21 -26 23 -22 1 -22 1 -2 -4z"/>
<path d="M1688 1309 c3 -20 0 -34 -9 -40 -10 -6 -5 -8 16 -8 17 0 24 3 18 6
-7 2 -13 20 -13 39 0 19 -4 34 -8 34 -5 0 -6 -14 -4 -31z"/>
<path d="M1745 1331 c-4 -7 0 -8 10 -4 10 3 21 0 27 -8 8 -12 9 -11 5 1 -5 18
-33 25 -42 11z"/>
<path d="M1959 1331 c9 -6 12 -20 9 -40 -3 -19 0 -31 7 -31 7 0 10 12 7 31 -3
20 0 34 9 40 10 6 5 9 -16 9 -21 0 -26 -3 -16 -9z"/>
<path d="M2056 1326 c3 -8 -2 -16 -13 -19 -17 -4 -17 -5 1 -6 13 -1 17 -6 13
-21 -3 -11 -1 -20 4 -20 5 0 9 18 9 40 0 22 -4 40 -10 40 -5 0 -7 -6 -4 -14z"/>
<path d="M2090 1300 c0 -37 2 -40 28 -39 23 2 24 2 5 6 -25 5 -31 28 -10 36
10 4 10 6 0 6 -7 1 -13 6 -13 12 0 6 9 9 20 6 11 -3 20 -1 20 4 0 5 -11 9 -25
9 -22 0 -25 -4 -25 -40z"/>
<path d="M2155 1300 c0 -22 5 -40 10 -40 12 0 11 73 -1 77 -5 2 -9 -15 -9 -37z"/>
<path d="M2196 1304 c3 -50 11 -53 16 -5 2 24 -1 41 -7 41 -6 0 -10 -16 -9
-36z"/>
<path d="M697 1313 c-3 -5 5 -8 18 -8 13 0 21 3 18 8 -2 4 -10 7 -18 7 -8 0
-16 -3 -18 -7z"/>
<path d="M785 1311 l20 -8 -20 -5 c-16 -5 -17 -6 -2 -7 9 0 17 -6 17 -12 0 -6
-9 -9 -20 -6 -11 3 -20 1 -20 -5 0 -5 10 -8 22 -6 33 4 37 58 5 57 -21 0 -21
-1 -2 -8z"/>
<path d="M847 1299 c4 -12 0 -25 -8 -30 -10 -6 -5 -9 16 -8 17 0 24 3 18 6 -7
2 -13 16 -13 29 0 13 -4 24 -9 24 -5 0 -7 -9 -4 -21z"/>
<path d="M907 1313 c-3 -5 5 -8 18 -8 13 0 21 3 18 8 -2 4 -10 7 -18 7 -8 0
-16 -3 -18 -7z"/>
<path d="M1047 1313 c-3 -5 5 -8 18 -8 13 0 21 3 18 8 -2 4 -10 7 -18 7 -8 0
-16 -3 -18 -7z"/>
<path d="M1467 1313 c-3 -5 5 -8 18 -8 13 0 21 3 18 8 -2 4 -10 7 -18 7 -8 0
-16 -3 -18 -7z"/>
<path d="M1555 1311 l20 -8 -20 -5 c-16 -5 -17 -6 -2 -7 9 0 17 -6 17 -12 0
-6 -9 -9 -20 -6 -11 3 -20 1 -20 -5 0 -5 10 -8 22 -6 33 4 37 58 5 57 -21 0
-21 -1 -2 -8z"/>
<path d="M1828 1313 c7 -3 16 -2 19 1 4 3 -2 6 -13 5 -11 0 -14 -3 -6 -6z"/>
<path d="M563 1303 c9 -2 23 -2 30 0 6 3 -1 5 -18 5 -16 0 -22 -2 -12 -5z"/>
<path d="M1193 1303 c9 -2 23 -2 30 0 6 3 -1 5 -18 5 -16 0 -22 -2 -12 -5z"/>
<path d="M638 1293 c7 -3 16 -2 19 1 4 3 -2 6 -13 5 -11 0 -14 -3 -6 -6z"/>
<path d="M976 1291 c-4 -5 3 -7 14 -4 23 6 26 13 6 13 -8 0 -17 -4 -20 -9z"/>
<path d="M1815 1290 c-9 -15 3 -29 25 -27 10 1 17 5 14 9 -3 4 -11 5 -19 1 -8
-3 -15 0 -15 5 0 6 8 13 18 15 15 4 15 5 0 6 -9 0 -20 -3 -23 -9z"/>
<path d="M557 1274 c3 -9 9 -11 12 -6 3 5 13 12 21 15 9 3 4 6 -12 6 -21 1
-26 -3 -21 -15z"/>
<path d="M1193 1283 c9 -2 23 -2 30 0 6 3 -1 5 -18 5 -16 0 -22 -2 -12 -5z"/>
<path d="M1328 1268 c5 -18 7 -19 10 -6 2 9 11 19 20 21 10 3 6 5 -10 6 -22 1
-25 -2 -20 -21z"/>
<path d="M697 1268 c2 -5 10 -8 18 -8 8 0 16 3 18 8 3 4 -5 7 -18 7 -13 0 -21
-3 -18 -7z"/>
<path d="M908 1268 c5 -5 16 -8 23 -6 8 3 3 7 -10 11 -17 4 -21 3 -13 -5z"/>
<path d="M990 1270 c-12 -7 -10 -9 7 -7 12 0 19 5 17 9 -6 10 -6 10 -24 -2z"/>
<path d="M1047 1268 c2 -5 10 -8 18 -8 8 0 16 3 18 8 3 4 -5 7 -18 7 -13 0
-21 -3 -18 -7z"/>
<path d="M1467 1268 c2 -5 10 -8 18 -8 8 0 16 3 18 8 3 4 -5 7 -18 7 -13 0
-21 -3 -18 -7z"/>
<path d="M1620 1270 l-25 -8 28 -1 c15 -1 27 4 27 9 0 6 -1 10 -2 9 -2 -1 -14
-5 -28 -9z"/>
<path d="M1740 1268 c0 -5 11 -8 25 -8 14 0 25 3 25 8 0 4 -11 7 -25 7 -14 0
-25 -3 -25 -7z"/>
<path d="M63 1263 c9 -2 23 -2 30 0 6 3 -1 5 -18 5 -16 0 -22 -2 -12 -5z"/>
<path d="M628 1263 c6 -2 18 -2 25 0 6 3 1 5 -13 5 -14 0 -19 -2 -12 -5z"/>
<path d="M70 1166 c0 -2 7 -7 16 -10 8 -3 12 -2 9 4 -6 10 -25 14 -25 6z"/>
<path d="M628 1163 c6 -2 12 -17 12 -33 0 -16 -6 -31 -12 -33 -7 -3 1 -5 17
-5 17 0 24 2 18 5 -7 2 -13 17 -13 33 0 16 6 31 13 33 6 3 -1 5 -18 5 -16 0
-24 -2 -17 -5z"/>
<path d="M695 1130 c0 -34 3 -40 20 -39 11 0 14 3 8 6 -7 2 -13 11 -13 19 0 9
5 12 10 9 6 -3 10 1 10 10 0 9 -4 13 -10 10 -5 -3 -10 -1 -10 6 0 6 8 9 20 6
11 -3 20 -1 20 4 0 5 -12 9 -27 9 -26 0 -28 -3 -28 -40z"/>
<path d="M918 1163 c26 -5 29 -20 5 -25 -15 -3 -15 -5 3 -10 17 -4 21 -1 20
16 -1 15 -8 21 -26 23 -22 1 -22 1 -2 -4z"/>
<path d="M992 1138 c-1 -20 -8 -39 -14 -41 -7 -3 1 -6 17 -6 17 0 25 3 18 7
-6 4 -13 23 -16 42 l-4 35 -1 -37z"/>
<path d="M1045 1161 c-4 -7 0 -8 10 -4 10 3 21 0 27 -8 8 -12 9 -11 5 1 -5 18
-33 25 -42 11z"/>
<path d="M1189 1161 c9 -6 12 -20 9 -40 -3 -19 0 -31 7 -31 7 0 10 12 7 31 -3
20 0 34 9 40 10 6 5 9 -16 9 -21 0 -26 -3 -16 -9z"/>
<path d="M1286 1156 c3 -8 -2 -16 -13 -19 -17 -4 -17 -5 1 -6 13 -1 17 -6 13
-21 -3 -11 -1 -20 4 -20 5 0 9 18 9 40 0 22 -4 40 -10 40 -5 0 -7 -6 -4 -14z"/>
<path d="M1320 1130 c0 -37 2 -40 28 -39 23 2 24 2 5 6 -25 5 -31 28 -10 36
10 4 10 6 0 6 -7 1 -13 6 -13 12 0 6 9 9 20 6 11 -3 20 -1 20 4 0 5 -11 9 -25
9 -22 0 -25 -4 -25 -40z"/>
<path d="M1385 1130 c0 -22 5 -40 10 -40 12 0 11 73 -1 77 -5 2 -9 -15 -9 -37z"/>
<path d="M1426 1134 c3 -50 11 -53 16 -5 2 24 -1 41 -7 41 -6 0 -10 -16 -9
-36z"/>
<path d="M843 1133 c9 -2 23 -2 30 0 6 3 -1 5 -18 5 -16 0 -22 -2 -12 -5z"/>
<path d="M837 1104 c3 -9 9 -11 12 -6 3 5 13 12 21 15 9 3 4 6 -12 6 -21 1
-26 -3 -21 -15z"/>
<path d="M1040 1098 c0 -5 11 -8 25 -8 14 0 25 3 25 8 0 4 -11 7 -25 7 -14 0
-25 -3 -25 -7z"/>
<path d="M63 1093 c9 -2 23 -2 30 0 6 3 -1 5 -18 5 -16 0 -22 -2 -12 -5z"/>
<path d="M138 1093 c6 -2 18 -2 25 0 6 3 1 5 -13 5 -14 0 -19 -2 -12 -5z"/>
<path d="M908 1093 c6 -2 18 -2 25 0 6 3 1 5 -13 5 -14 0 -19 -2 -12 -5z"/>
<path d="M70 996 c0 -2 7 -7 16 -10 8 -3 12 -2 9 4 -6 10 -25 14 -25 6z"/>
<path d="M140 996 c0 -2 7 -7 16 -10 8 -3 12 -2 9 4 -6 10 -25 14 -25 6z"/>
<path d="M976 991 c-4 -5 3 -7 14 -4 23 6 26 13 6 13 -8 0 -17 -4 -20 -9z"/>
<path d="M1338 993 c26 -5 29 -20 5 -25 -15 -3 -15 -5 3 -10 17 -4 21 -1 20
16 -1 15 -8 21 -26 23 -22 1 -22 1 -2 -4z"/>
<path d="M1412 968 c-1 -20 -8 -39 -14 -41 -7 -3 1 -6 17 -6 17 0 25 3 18 7
-6 4 -13 23 -16 42 l-4 35 -1 -37z"/>
<path d="M1465 991 c-4 -7 0 -8 10 -4 10 3 21 0 27 -8 8 -12 9 -11 5 1 -5 18
-33 25 -42 11z"/>
<path d="M1836 986 c3 -8 -2 -16 -13 -19 -12 -3 -10 -5 9 -6 21 -1 25 3 21 19
-3 11 -9 20 -14 20 -5 0 -6 -6 -3 -14z"/>
<path d="M1886 991 c-4 -5 3 -7 14 -4 23 6 26 13 6 13 -8 0 -17 -4 -20 -9z"/>
<path d="M2303 978 c8 -13 18 -23 22 -23 4 0 14 10 23 23 8 12 10 22 4 22 -6
0 -14 -10 -18 -22 l-7 -23 -10 23 c-6 12 -14 22 -20 22 -5 0 -3 -10 6 -22z"/>
<path d="M1047 973 c-3 -5 5 -8 18 -8 13 0 21 3 18 8 -2 4 -10 7 -18 7 -8 0
-16 -3 -18 -7z"/>
<path d="M1110 975 c0 -8 29 -12 39 -5 9 5 4 8 -13 8 -14 0 -26 -2 -26 -3z"/>
<path d="M1175 940 c0 -22 5 -40 10 -40 6 0 9 17 7 40 -2 22 -7 40 -11 40 -3
0 -6 -18 -6 -40z"/>
<path d="M1257 973 c-3 -5 5 -8 18 -8 13 0 21 3 18 8 -2 4 -10 7 -18 7 -8 0
-16 -3 -18 -7z"/>
<path d="M1957 973 c-3 -5 5 -8 18 -8 13 0 21 3 18 8 -2 4 -10 7 -18 7 -8 0
-16 -3 -18 -7z"/>
<path d="M2020 975 c0 -8 29 -12 39 -5 9 5 4 8 -13 8 -14 0 -26 -2 -26 -3z"/>
<path d="M2085 940 c0 -22 5 -40 10 -40 6 0 9 17 7 40 -2 22 -7 40 -11 40 -3
0 -6 -18 -6 -40z"/>
<path d="M2167 973 c-3 -5 5 -8 18 -8 13 0 21 3 18 8 -2 4 -10 7 -18 7 -8 0
-16 -3 -18 -7z"/>
<path d="M913 963 c9 -2 23 -2 30 0 6 3 -1 5 -18 5 -16 0 -22 -2 -12 -5z"/>
<path d="M1683 963 c9 -2 23 -2 30 0 6 3 -1 5 -18 5 -16 0 -22 -2 -12 -5z"/>
<path d="M907 934 c3 -9 9 -11 12 -6 3 5 13 12 21 15 9 3 4 6 -12 6 -21 1 -26
-3 -21 -15z"/>
<path d="M1683 943 c9 -2 23 -2 30 0 6 3 -1 5 -18 5 -16 0 -22 -2 -12 -5z"/>
<path d="M1818 928 c5 -18 7 -19 10 -6 2 9 11 19 20 21 10 3 6 5 -10 6 -22 1
-25 -2 -20 -21z"/>
<path d="M1047 928 c2 -5 10 -8 18 -8 8 0 16 3 18 8 3 4 -5 7 -18 7 -13 0 -21
-3 -18 -7z"/>
<path d="M1257 928 c2 -5 10 -8 18 -8 8 0 16 3 18 8 3 4 -5 7 -18 7 -13 0 -21
-3 -18 -7z"/>
<path d="M1460 928 c0 -5 11 -8 25 -8 14 0 25 3 25 8 0 4 -11 7 -25 7 -14 0
-25 -3 -25 -7z"/>
<path d="M1888 928 c5 -5 16 -8 23 -6 8 3 3 7 -10 11 -17 4 -21 3 -13 -5z"/>
<path d="M1957 928 c2 -5 10 -8 18 -8 8 0 16 3 18 8 3 4 -5 7 -18 7 -13 0 -21
-3 -18 -7z"/>
<path d="M2167 928 c2 -5 10 -8 18 -8 8 0 16 3 18 8 3 4 -5 7 -18 7 -13 0 -21
-3 -18 -7z"/>
<path d="M2380 925 c0 -8 2 -15 4 -15 2 0 6 7 10 15 3 8 1 15 -4 15 -6 0 -10
-7 -10 -15z"/>
<path d="M63 923 c9 -2 23 -2 30 0 6 3 -1 5 -18 5 -16 0 -22 -2 -12 -5z"/>
<path d="M133 923 c9 -2 23 -2 30 0 6 3 -1 5 -18 5 -16 0 -22 -2 -12 -5z"/>
<path d="M1118 923 c6 -2 18 -2 25 0 6 3 1 5 -13 5 -14 0 -19 -2 -12 -5z"/>
<path d="M1328 923 c6 -2 18 -2 25 0 6 3 1 5 -13 5 -14 0 -19 -2 -12 -5z"/>
<path d="M2028 923 c6 -2 18 -2 25 0 6 3 1 5 -13 5 -14 0 -19 -2 -12 -5z"/>
<path d="M2298 923 c7 -3 16 -2 19 1 4 3 -2 6 -13 5 -11 0 -14 -3 -6 -6z"/>
<path d="M2238 893 c12 -2 30 -2 40 0 9 3 -1 5 -23 4 -22 0 -30 -2 -17 -4z"/>
<path d="M70 826 c0 -2 7 -7 16 -10 8 -3 12 -2 9 4 -6 10 -25 14 -25 6z"/>
<path d="M620 790 c0 -37 2 -40 28 -39 23 2 24 2 5 6 -25 5 -31 28 -10 36 10
4 10 6 0 6 -7 1 -13 6 -13 12 0 6 9 9 20 6 11 -3 20 -1 20 4 0 5 -11 9 -25 9
-22 0 -25 -4 -25 -40z"/>
<path d="M695 790 c0 -36 2 -40 25 -39 19 1 20 3 7 6 -15 4 -18 12 -15 39 2
20 0 34 -7 34 -5 0 -10 -18 -10 -40z"/>
<path d="M765 820 c-9 -14 1 -27 25 -33 11 -3 18 -1 14 4 -3 5 -12 9 -20 9 -8
0 -14 5 -14 11 0 6 9 9 20 6 11 -3 20 -1 20 4 0 12 -37 11 -45 -1z"/>
<path d="M830 790 c0 -37 2 -40 28 -39 23 2 24 2 5 6 -25 5 -31 28 -10 36 10
4 10 6 0 6 -7 1 -13 6 -13 12 0 6 9 9 20 6 11 -3 20 -1 20 4 0 5 -11 9 -25 9
-22 0 -25 -4 -25 -40z"/>
<path d="M150 760 c-9 -6 -10 -10 -3 -10 6 0 15 5 18 10 8 12 4 12 -15 0z"/>
<path d="M760 758 c0 -5 9 -8 19 -8 11 0 22 3 24 8 3 4 -6 7 -19 7 -13 0 -24
-3 -24 -7z"/>
<path d="M63 753 c9 -2 23 -2 30 0 6 3 -1 5 -18 5 -16 0 -22 -2 -12 -5z"/>
<path d="M70 656 c0 -2 7 -7 16 -10 8 -3 12 -2 9 4 -6 10 -25 14 -25 6z"/>
<path d="M976 651 c-4 -5 3 -7 14 -4 23 6 26 13 6 13 -8 0 -17 -4 -20 -9z"/>
<path d="M1338 653 c26 -5 29 -20 5 -25 -15 -3 -15 -5 3 -10 17 -4 21 -1 20
16 -1 15 -8 21 -26 23 -22 1 -22 1 -2 -4z"/>
<path d="M1412 628 c-1 -20 -8 -39 -14 -41 -7 -3 1 -6 17 -6 17 0 25 3 18 7
-6 4 -13 23 -16 42 l-4 35 -1 -37z"/>
<path d="M1465 651 c-4 -7 0 -8 10 -4 10 3 21 0 27 -8 8 -12 9 -11 5 1 -5 18
-33 25 -42 11z"/>
<path d="M1836 646 c3 -8 -2 -16 -13 -19 -12 -3 -10 -5 9 -6 21 -1 25 3 21 19
-3 11 -9 20 -14 20 -5 0 -6 -6 -3 -14z"/>
<path d="M1886 651 c-4 -5 3 -7 14 -4 23 6 26 13 6 13 -8 0 -17 -4 -20 -9z"/>
<path d="M2305 620 c0 -33 3 -40 20 -40 17 0 17 2 5 10 -13 9 -13 11 0 20 10
6 11 10 3 10 -20 0 -15 28 5 33 11 3 9 5 -8 6 -23 1 -25 -3 -25 -39z"/>
<path d="M2375 620 c0 -36 2 -40 25 -39 19 1 20 3 7 6 -15 4 -18 12 -15 39 2
20 0 34 -7 34 -5 0 -10 -18 -10 -40z"/>
<path d="M1047 633 c-3 -5 5 -8 18 -8 13 0 21 3 18 8 -2 4 -10 7 -18 7 -8 0
-16 -3 -18 -7z"/>
<path d="M1110 635 c0 -8 29 -12 39 -5 9 5 4 8 -13 8 -14 0 -26 -2 -26 -3z"/>
<path d="M1175 600 c0 -22 5 -40 10 -40 6 0 9 17 7 40 -2 22 -7 40 -11 40 -3
0 -6 -18 -6 -40z"/>
<path d="M1257 633 c-3 -5 5 -8 18 -8 13 0 21 3 18 8 -2 4 -10 7 -18 7 -8 0
-16 -3 -18 -7z"/>
<path d="M1957 633 c-3 -5 5 -8 18 -8 13 0 21 3 18 8 -2 4 -10 7 -18 7 -8 0
-16 -3 -18 -7z"/>
<path d="M2020 635 c0 -8 29 -12 39 -5 9 5 4 8 -13 8 -14 0 -26 -2 -26 -3z"/>
<path d="M2085 600 c0 -22 5 -40 10 -40 6 0 9 17 7 40 -2 22 -7 40 -11 40 -3
0 -6 -18 -6 -40z"/>
<path d="M2167 633 c-3 -5 5 -8 18 -8 13 0 21 3 18 8 -2 4 -10 7 -18 7 -8 0
-16 -3 -18 -7z"/>
<path d="M913 623 c9 -2 23 -2 30 0 6 3 -1 5 -18 5 -16 0 -22 -2 -12 -5z"/>
<path d="M1683 623 c9 -2 23 -2 30 0 6 3 -1 5 -18 5 -16 0 -22 -2 -12 -5z"/>
<path d="M138 603 c6 -2 18 -2 25 0 6 3 1 5 -13 5 -14 0 -19 -2 -12 -5z"/>
<path d="M907 594 c3 -9 9 -11 12 -6 3 5 13 12 21 15 9 3 4 6 -12 6 -21 1 -26
-3 -21 -15z"/>
<path d="M1683 603 c9 -2 23 -2 30 0 6 3 -1 5 -18 5 -16 0 -22 -2 -12 -5z"/>
<path d="M1818 588 c5 -18 7 -19 10 -6 2 9 11 19 20 21 10 3 6 5 -10 6 -22 1
-25 -2 -20 -21z"/>
<path d="M1047 588 c2 -5 10 -8 18 -8 8 0 16 3 18 8 3 4 -5 7 -18 7 -13 0 -21
-3 -18 -7z"/>
<path d="M1257 588 c2 -5 10 -8 18 -8 8 0 16 3 18 8 3 4 -5 7 -18 7 -13 0 -21
-3 -18 -7z"/>
<path d="M1460 588 c0 -5 11 -8 25 -8 14 0 25 3 25 8 0 4 -11 7 -25 7 -14 0
-25 -3 -25 -7z"/>
<path d="M1888 588 c5 -5 16 -8 23 -6 8 3 3 7 -10 11 -17 4 -21 3 -13 -5z"/>
<path d="M1957 588 c2 -5 10 -8 18 -8 8 0 16 3 18 8 3 4 -5 7 -18 7 -13 0 -21
-3 -18 -7z"/>
<path d="M2167 588 c2 -5 10 -8 18 -8 8 0 16 3 18 8 3 4 -5 7 -18 7 -13 0 -21
-3 -18 -7z"/>
<path d="M2450 585 c0 -8 2 -15 4 -15 2 0 6 7 10 15 3 8 1 15 -4 15 -6 0 -10
-7 -10 -15z"/>
<path d="M63 583 c9 -2 23 -2 30 0 6 3 -1 5 -18 5 -16 0 -22 -2 -12 -5z"/>
<path d="M1118 583 c6 -2 18 -2 25 0 6 3 1 5 -13 5 -14 0 -19 -2 -12 -5z"/>
<path d="M1328 583 c6 -2 18 -2 25 0 6 3 1 5 -13 5 -14 0 -19 -2 -12 -5z"/>
<path d="M2028 583 c6 -2 18 -2 25 0 6 3 1 5 -13 5 -14 0 -19 -2 -12 -5z"/>
<path d="M2238 553 c12 -2 30 -2 40 0 9 3 -1 5 -23 4 -22 0 -30 -2 -17 -4z"/>
<path d="M70 486 c0 -2 7 -7 16 -10 8 -3 12 -2 9 4 -6 10 -25 14 -25 6z"/>
<path d="M138 483 c7 -3 16 -2 19 1 4 3 -2 6 -13 5 -11 0 -14 -3 -6 -6z"/>
<path d="M620 450 c0 -37 2 -40 28 -39 23 2 24 2 5 6 -25 5 -31 28 -10 36 10
4 10 6 0 6 -7 1 -13 6 -13 12 0 6 9 9 20 6 11 -3 20 -1 20 4 0 5 -11 9 -25 9
-22 0 -25 -4 -25 -40z"/>
<path d="M685 450 c0 -22 5 -40 10 -40 12 0 11 73 -1 77 -5 2 -9 -15 -9 -37z"/>
<path d="M726 454 c3 -50 11 -53 16 -5 2 24 -1 41 -7 41 -6 0 -10 -16 -9 -36z"/>
<path d="M760 486 c0 -2 11 -6 25 -8 13 -3 22 -1 19 3 -5 9 -44 13 -44 5z"/>
<path d="M908 483 c6 -2 12 -17 12 -33 0 -16 -6 -31 -12 -33 -7 -3 1 -5 17 -5
17 0 24 2 18 5 -7 2 -13 17 -13 33 0 16 6 31 13 33 6 3 -1 5 -18 5 -16 0 -24
-2 -17 -5z"/>
<path d="M975 450 c0 -34 3 -40 20 -39 11 0 14 3 8 6 -7 2 -13 11 -13 19 0 9
5 12 10 9 6 -3 10 1 10 10 0 9 -4 13 -10 10 -5 -3 -10 -1 -10 6 0 6 8 9 20 6
11 -3 20 -1 20 4 0 5 -12 9 -27 9 -26 0 -28 -3 -28 -40z"/>
<path d="M138 453 c7 -3 16 -2 19 1 4 3 -2 6 -13 5 -11 0 -14 -3 -6 -6z"/>
<path d="M780 420 c-23 -7 -23 -8 -3 -9 12 -1 25 4 28 9 3 6 5 10 3 9 -2 -1
-14 -5 -28 -9z"/>
<path d="M1050 415 c0 -8 2 -15 4 -15 2 0 6 7 10 15 3 8 1 15 -4 15 -6 0 -10
-7 -10 -15z"/>
<path d="M63 413 c9 -2 23 -2 30 0 6 3 -1 5 -18 5 -16 0 -22 -2 -12 -5z"/>
<path d="M838 383 c12 -2 30 -2 40 0 9 3 -1 5 -23 4 -22 0 -30 -2 -17 -4z"/>
<path d="M70 316 c0 -2 7 -7 16 -10 8 -3 12 -2 9 4 -6 10 -25 14 -25 6z"/>
<path d="M340 280 c0 -37 2 -40 28 -39 23 2 24 2 5 6 -25 5 -31 28 -10 36 10
4 10 6 0 6 -7 1 -13 6 -13 12 0 6 9 9 20 6 11 -3 20 -1 20 4 0 5 -11 9 -25 9
-22 0 -25 -4 -25 -40z"/>
<path d="M405 280 c0 -22 5 -40 10 -40 12 0 11 73 -1 77 -5 2 -9 -15 -9 -37z"/>
<path d="M446 284 c3 -50 11 -53 16 -5 2 24 -1 41 -7 41 -6 0 -10 -16 -9 -36z"/>
<path d="M480 316 c0 -2 11 -6 25 -8 13 -3 22 -1 19 3 -5 9 -44 13 -44 5z"/>
<path d="M628 313 c6 -2 12 -17 12 -33 0 -16 -6 -31 -12 -33 -7 -3 1 -5 17 -5
17 0 24 2 18 5 -7 2 -13 17 -13 33 0 16 6 31 13 33 6 3 -1 5 -18 5 -16 0 -24
-2 -17 -5z"/>
<path d="M695 280 c0 -34 3 -40 20 -39 11 0 14 3 8 6 -7 2 -13 11 -13 19 0 9
5 12 10 9 6 -3 10 1 10 10 0 9 -4 13 -10 10 -5 -3 -10 -1 -10 6 0 6 8 9 20 6
11 -3 20 -1 20 4 0 5 -12 9 -27 9 -26 0 -28 -3 -28 -40z"/>
<path d="M135 280 c-3 -6 1 -7 9 -4 18 7 21 14 7 14 -6 0 -13 -4 -16 -10z"/>
<path d="M500 250 c-23 -7 -23 -8 -3 -9 12 -1 25 4 28 9 3 6 5 10 3 9 -2 -1
-14 -5 -28 -9z"/>
<path d="M770 245 c0 -8 2 -15 4 -15 2 0 6 7 10 15 3 8 1 15 -4 15 -6 0 -10
-7 -10 -15z"/>
<path d="M63 243 c9 -2 23 -2 30 0 6 3 -1 5 -18 5 -16 0 -22 -2 -12 -5z"/>
<path d="M558 213 c12 -2 30 -2 40 0 9 3 -1 5 -23 4 -22 0 -30 -2 -17 -4z"/>
<path d="M70 146 c0 -2 7 -7 16 -10 8 -3 12 -2 9 4 -6 10 -25 14 -25 6z"/>
<path d="M128 143 c6 -2 18 -2 25 0 6 3 1 5 -13 5 -14 0 -19 -2 -12 -5z"/>
<path d="M63 73 c9 -2 23 -2 30 0 6 3 -1 5 -18 5 -16 0 -22 -2 -12 -5z"/>
</g>
</svg>
