<?xml version="1.0" standalone="no"?>
<!DOCTYPE svg PUBLIC "-//W3C//DTD SVG 20010904//EN"
 "http://www.w3.org/TR/2001/REC-SVG-20010904/DTD/svg10.dtd">
<svg version="1.0" xmlns="http://www.w3.org/2000/svg"
 width="378.000000pt" height="141.000000pt" viewBox="0 0 378.000000 141.000000"
 preserveAspectRatio="xMidYMid meet">

<g transform="translate(0.000000,141.000000) scale(0.100000,-0.100000)"
fill="#000000" stroke="none">
<path d="M80 1346 c0 -2 7 -7 16 -10 8 -3 12 -2 9 4 -6 10 -25 14 -25 6z"/>
<path d="M573 1343 c9 -2 23 -2 30 0 6 3 -1 5 -18 5 -16 0 -22 -2 -12 -5z"/>
<path d="M1408 1343 c6 -2 18 -2 25 0 6 3 1 5 -13 5 -14 0 -19 -2 -12 -5z"/>
<path d="M1610 1346 c0 -2 11 -6 25 -8 13 -3 22 -1 19 3 -5 9 -44 13 -44 5z"/>
<path d="M1770 1346 c0 -2 7 -7 16 -10 8 -3 12 -2 9 4 -6 10 -25 14 -25 6z"/>
<path d="M648 1323 c7 -3 16 -2 19 1 4 3 -2 6 -13 5 -11 0 -14 -3 -6 -6z"/>
<path d="M729 1322 c12 -8 11 -11 -3 -15 -15 -4 -15 -5 1 -3 19 1 21 19 1 24
-10 3 -10 1 1 -6z"/>
<path d="M778 1323 c6 -2 18 -2 25 0 6 3 1 5 -13 5 -14 0 -19 -2 -12 -5z"/>
<path d="M975 1320 c4 -6 11 -8 16 -5 14 9 11 15 -7 15 -8 0 -12 -5 -9 -10z"/>
<path d="M1569 1322 c12 -8 11 -11 -3 -15 -15 -4 -15 -5 1 -3 19 1 21 19 1 24
-10 3 -10 1 1 -6z"/>
<path d="M1628 1313 c7 -3 16 -2 19 1 4 3 -2 6 -13 5 -11 0 -14 -3 -6 -6z"/>
<path d="M643 1303 c9 -2 23 -2 30 0 6 3 -1 5 -18 5 -16 0 -22 -2 -12 -5z"/>
<path d="M846 1301 c-4 -5 3 -7 14 -4 23 6 26 13 6 13 -8 0 -17 -4 -20 -9z"/>
<path d="M1418 1303 c7 -3 16 -2 19 1 4 3 -2 6 -13 5 -11 0 -14 -3 -6 -6z"/>
<path d="M73 1273 c9 -2 23 -2 30 0 6 3 -1 5 -18 5 -16 0 -22 -2 -12 -5z"/>
<path d="M578 1273 c7 -3 16 -2 19 1 4 3 -2 6 -13 5 -11 0 -14 -3 -6 -6z"/>
<path d="M1063 1273 c9 -2 23 -2 30 0 6 3 -1 5 -18 5 -16 0 -22 -2 -12 -5z"/>
<path d="M1203 1273 c9 -2 23 -2 30 0 6 3 -1 5 -18 5 -16 0 -22 -2 -12 -5z"/>
<path d="M1408 1273 c7 -3 16 -2 19 1 4 3 -2 6 -13 5 -11 0 -14 -3 -6 -6z"/>
<path d="M1618 1273 c6 -2 18 -2 25 0 6 3 1 5 -13 5 -14 0 -19 -2 -12 -5z"/>
<path d="M1698 1273 c6 -2 18 -2 25 0 6 3 1 5 -13 5 -14 0 -19 -2 -12 -5z"/>
<path d="M1763 1273 c9 -2 23 -2 30 0 6 3 -1 5 -18 5 -16 0 -22 -2 -12 -5z"/>
<path d="M80 1176 c0 -2 7 -7 16 -10 8 -3 12 -2 9 4 -6 10 -25 14 -25 6z"/>
<path d="M358 1173 c6 -2 12 -17 12 -33 0 -16 -6 -31 -12 -33 -7 -3 1 -5 17
-5 17 0 24 2 18 5 -7 2 -13 17 -13 33 0 16 6 31 13 33 6 3 -1 5 -18 5 -16 0
-24 -2 -17 -5z"/>
<path d="M425 1140 c0 -34 3 -40 20 -39 11 0 14 3 8 6 -7 2 -13 11 -13 19 0 9
5 12 10 9 6 -3 10 1 10 10 0 9 -4 13 -10 10 -5 -3 -10 -1 -10 6 0 6 8 9 20 6
11 -3 20 -1 20 4 0 5 -12 9 -27 9 -26 0 -28 -3 -28 -40z"/>
<path d="M638 1173 c6 -2 18 -2 25 0 6 3 1 5 -13 5 -14 0 -19 -2 -12 -5z"/>
<path d="M1356 1166 c3 -8 -2 -16 -13 -19 -12 -3 -10 -5 9 -6 21 -1 25 3 21
19 -3 11 -9 20 -14 20 -5 0 -6 -6 -3 -14z"/>
<path d="M1405 1140 c0 -33 3 -40 20 -40 17 0 17 2 5 10 -13 9 -13 11 0 20 10
6 11 10 3 10 -20 0 -15 28 5 33 11 3 9 5 -8 6 -23 1 -25 -3 -25 -39z"/>
<path d="M1628 1173 c26 -5 29 -20 5 -25 -15 -3 -15 -5 3 -10 17 -4 21 -1 20
16 -1 15 -8 21 -26 23 -22 1 -22 1 -2 -4z"/>
<path d="M1698 1149 c3 -20 0 -34 -9 -40 -10 -6 -5 -8 16 -8 17 0 24 3 18 6
-7 2 -13 20 -13 39 0 19 -4 34 -8 34 -5 0 -6 -14 -4 -31z"/>
<path d="M1755 1171 c-4 -7 0 -8 10 -4 10 3 21 0 27 -8 8 -12 9 -11 5 1 -5 18
-33 25 -42 11z"/>
<path d="M1815 1140 c0 -22 3 -40 8 -40 4 0 7 18 7 40 0 22 -3 40 -7 40 -5 0
-8 -18 -8 -40z"/>
<path d="M1969 1171 c9 -6 12 -20 9 -40 -3 -19 0 -31 7 -31 7 0 10 12 7 31 -3
20 0 34 9 40 10 6 5 9 -16 9 -21 0 -26 -3 -16 -9z"/>
<path d="M2066 1166 c3 -8 -2 -16 -13 -19 -17 -4 -17 -5 1 -6 13 -1 17 -6 13
-21 -3 -11 -1 -20 4 -20 5 0 9 18 9 40 0 22 -4 40 -10 40 -5 0 -7 -6 -4 -14z"/>
<path d="M2100 1140 c0 -37 2 -40 28 -39 23 2 24 2 5 6 -25 5 -31 28 -10 36
10 4 10 6 0 6 -7 1 -13 6 -13 12 0 6 9 9 20 6 11 -3 20 -1 20 4 0 5 -11 9 -25
9 -22 0 -25 -4 -25 -40z"/>
<path d="M2165 1140 c0 -22 5 -40 10 -40 12 0 11 73 -1 77 -5 2 -9 -15 -9 -37z"/>
<path d="M2206 1144 c3 -50 11 -53 16 -5 2 24 -1 41 -7 41 -6 0 -10 -16 -9
-36z"/>
<path d="M707 1153 c-3 -5 5 -8 18 -8 13 0 21 3 18 8 -2 4 -10 7 -18 7 -8 0
-16 -3 -18 -7z"/>
<path d="M795 1151 l20 -8 -20 -5 c-16 -5 -17 -6 -2 -7 9 0 17 -6 17 -12 0 -6
-9 -9 -20 -6 -11 3 -20 1 -20 -5 0 -5 10 -8 22 -6 33 4 37 58 5 57 -21 0 -21
-1 -2 -8z"/>
<path d="M857 1139 c4 -12 0 -25 -8 -30 -10 -6 -5 -9 16 -8 17 0 24 3 18 6 -7
2 -13 16 -13 29 0 13 -4 24 -9 24 -5 0 -7 -9 -4 -21z"/>
<path d="M917 1153 c-3 -5 5 -8 18 -8 13 0 21 3 18 8 -2 4 -10 7 -18 7 -8 0
-16 -3 -18 -7z"/>
<path d="M1057 1153 c-3 -5 5 -8 18 -8 13 0 21 3 18 8 -2 4 -10 7 -18 7 -8 0
-16 -3 -18 -7z"/>
<path d="M1477 1153 c-3 -5 5 -8 18 -8 13 0 21 3 18 8 -2 4 -10 7 -18 7 -8 0
-16 -3 -18 -7z"/>
<path d="M1565 1151 l20 -8 -20 -5 c-16 -5 -17 -6 -2 -7 9 0 17 -6 17 -12 0
-6 -9 -9 -20 -6 -11 3 -20 1 -20 -5 0 -5 10 -8 22 -6 33 4 37 58 5 57 -21 0
-21 -1 -2 -8z"/>
<path d="M1840 1156 c0 -2 7 -7 16 -10 8 -3 12 -2 9 4 -6 10 -25 14 -25 6z"/>
<path d="M160 1140 c-9 -6 -10 -10 -3 -10 6 0 15 5 18 10 8 12 4 12 -15 0z"/>
<path d="M573 1143 c9 -2 23 -2 30 0 6 3 -1 5 -18 5 -16 0 -22 -2 -12 -5z"/>
<path d="M1203 1143 c9 -2 23 -2 30 0 6 3 -1 5 -18 5 -16 0 -22 -2 -12 -5z"/>
<path d="M648 1133 c7 -3 16 -2 19 1 4 3 -2 6 -13 5 -11 0 -14 -3 -6 -6z"/>
<path d="M986 1131 c-4 -5 3 -7 14 -4 23 6 26 13 6 13 -8 0 -17 -4 -20 -9z"/>
<path d="M567 1114 c3 -9 9 -11 12 -6 3 5 13 12 21 15 9 3 4 6 -12 6 -21 1
-26 -3 -21 -15z"/>
<path d="M1203 1123 c9 -2 23 -2 30 0 6 3 -1 5 -18 5 -16 0 -22 -2 -12 -5z"/>
<path d="M1338 1108 c5 -18 7 -19 10 -6 2 9 11 19 20 21 10 3 6 5 -10 6 -22 1
-25 -2 -20 -21z"/>
<path d="M707 1108 c2 -5 10 -8 18 -8 8 0 16 3 18 8 3 4 -5 7 -18 7 -13 0 -21
-3 -18 -7z"/>
<path d="M918 1108 c5 -5 16 -8 23 -6 8 3 3 7 -10 11 -17 4 -21 3 -13 -5z"/>
<path d="M1000 1110 c-12 -7 -10 -9 7 -7 12 0 19 5 17 9 -6 10 -6 10 -24 -2z"/>
<path d="M1057 1108 c2 -5 10 -8 18 -8 8 0 16 3 18 8 3 4 -5 7 -18 7 -13 0
-21 -3 -18 -7z"/>
<path d="M1477 1108 c2 -5 10 -8 18 -8 8 0 16 3 18 8 3 4 -5 7 -18 7 -13 0
-21 -3 -18 -7z"/>
<path d="M1630 1110 l-25 -8 28 -1 c15 -1 27 4 27 9 0 6 -1 10 -2 9 -2 -1 -14
-5 -28 -9z"/>
<path d="M1750 1108 c0 -5 11 -8 25 -8 14 0 25 3 25 8 0 4 -11 7 -25 7 -14 0
-25 -3 -25 -7z"/>
<path d="M1850 1110 c-9 -6 -10 -10 -3 -10 6 0 15 5 18 10 8 12 4 12 -15 0z"/>
<path d="M73 1103 c9 -2 23 -2 30 0 6 3 -1 5 -18 5 -16 0 -22 -2 -12 -5z"/>
<path d="M638 1103 c6 -2 18 -2 25 0 6 3 1 5 -13 5 -14 0 -19 -2 -12 -5z"/>
<path d="M638 1003 c6 -2 12 -17 12 -33 0 -16 -6 -31 -12 -33 -7 -3 1 -5 17
-5 17 0 24 2 18 5 -7 2 -13 17 -13 33 0 16 6 31 13 33 6 3 -1 5 -18 5 -16 0
-24 -2 -17 -5z"/>
<path d="M705 970 c0 -34 3 -40 20 -39 11 0 14 3 8 6 -7 2 -13 11 -13 19 0 9
5 12 10 9 6 -3 10 1 10 10 0 9 -4 13 -10 10 -5 -3 -10 -1 -10 6 0 6 8 9 20 6
11 -3 20 -1 20 4 0 5 -12 9 -27 9 -26 0 -28 -3 -28 -40z"/>
<path d="M928 1003 c26 -5 29 -20 5 -25 -15 -3 -15 -5 3 -10 17 -4 21 -1 20
16 -1 15 -8 21 -26 23 -22 1 -22 1 -2 -4z"/>
<path d="M1002 978 c-1 -20 -8 -39 -14 -41 -7 -3 1 -6 17 -6 17 0 25 3 18 7
-6 4 -13 23 -16 42 l-4 35 -1 -37z"/>
<path d="M1055 1001 c-4 -7 0 -8 10 -4 10 3 21 0 27 -8 8 -12 9 -11 5 1 -5 18
-33 25 -42 11z"/>
<path d="M1199 1001 c9 -6 12 -20 9 -40 -3 -19 0 -31 7 -31 7 0 10 12 7 31 -3
20 0 34 9 40 10 6 5 9 -16 9 -21 0 -26 -3 -16 -9z"/>
<path d="M1296 996 c3 -8 -2 -16 -13 -19 -17 -4 -17 -5 1 -6 13 -1 17 -6 13
-21 -3 -11 -1 -20 4 -20 5 0 9 18 9 40 0 22 -4 40 -10 40 -5 0 -7 -6 -4 -14z"/>
<path d="M1330 970 c0 -37 2 -40 28 -39 23 2 24 2 5 6 -25 5 -31 28 -10 36 10
4 10 6 0 6 -7 1 -13 6 -13 12 0 6 9 9 20 6 11 -3 20 -1 20 4 0 5 -11 9 -25 9
-22 0 -25 -4 -25 -40z"/>
<path d="M1395 970 c0 -22 5 -40 10 -40 12 0 11 73 -1 77 -5 2 -9 -15 -9 -37z"/>
<path d="M1436 974 c3 -50 11 -53 16 -5 2 24 -1 41 -7 41 -6 0 -10 -16 -9 -36z"/>
<path d="M853 973 c9 -2 23 -2 30 0 6 3 -1 5 -18 5 -16 0 -22 -2 -12 -5z"/>
<path d="M847 944 c3 -9 9 -11 12 -6 3 5 13 12 21 15 9 3 4 6 -12 6 -21 1 -26
-3 -21 -15z"/>
<path d="M90 940 c-9 -6 -10 -10 -3 -10 6 0 15 5 18 10 8 12 4 12 -15 0z"/>
<path d="M1050 938 c0 -5 11 -8 25 -8 14 0 25 3 25 8 0 4 -11 7 -25 7 -14 0
-25 -3 -25 -7z"/>
<path d="M918 933 c6 -2 18 -2 25 0 6 3 1 5 -13 5 -14 0 -19 -2 -12 -5z"/>
<path d="M975 830 c3 -5 8 -10 11 -10 2 0 4 5 4 10 0 6 -5 10 -11 10 -5 0 -7
-4 -4 -10z"/>
<path d="M1016 824 c-5 -14 -4 -15 9 -4 17 14 19 20 6 20 -5 0 -12 -7 -15 -16z"/>
<path d="M1208 809 c3 -20 0 -34 -9 -40 -10 -6 -5 -8 16 -8 17 0 24 3 18 6 -7
2 -13 20 -13 39 0 19 -4 34 -8 34 -5 0 -6 -14 -4 -31z"/>
<path d="M1348 833 c26 -5 29 -20 5 -25 -15 -3 -15 -5 3 -10 17 -4 21 -1 20
16 -1 15 -8 21 -26 23 -22 1 -22 1 -2 -4z"/>
<path d="M1422 808 c-1 -20 -8 -39 -14 -41 -7 -3 1 -6 17 -6 17 0 25 3 18 7
-6 4 -13 23 -16 42 l-4 35 -1 -37z"/>
<path d="M1475 831 c-4 -7 0 -8 10 -4 10 3 21 0 27 -8 8 -12 9 -11 5 1 -5 18
-33 25 -42 11z"/>
<path d="M1846 826 c3 -8 -2 -16 -13 -19 -12 -3 -10 -5 9 -6 21 -1 25 3 21 19
-3 11 -9 20 -14 20 -5 0 -6 -6 -3 -14z"/>
<path d="M1893 818 c8 -13 18 -23 22 -23 4 0 14 10 23 23 8 12 10 22 4 22 -6
0 -14 -10 -18 -22 l-7 -23 -10 23 c-6 12 -14 22 -20 22 -5 0 -3 -10 6 -22z"/>
<path d="M2118 809 c3 -20 0 -34 -9 -40 -10 -6 -5 -8 16 -8 17 0 24 3 18 6 -7
2 -13 20 -13 39 0 19 -4 34 -8 34 -5 0 -6 -14 -4 -31z"/>
<path d="M2313 818 c8 -13 18 -23 22 -23 4 0 14 10 23 23 8 12 10 22 4 22 -6
0 -14 -10 -18 -22 l-7 -23 -10 23 c-6 12 -14 22 -20 22 -5 0 -3 -10 6 -22z"/>
<path d="M1067 799 c4 -12 0 -25 -8 -30 -10 -6 -5 -9 16 -8 17 0 24 3 18 6 -7
2 -13 16 -13 29 0 13 -4 24 -9 24 -5 0 -7 -9 -4 -21z"/>
<path d="M1127 813 c-3 -5 5 -8 18 -8 13 0 21 3 18 8 -2 4 -10 7 -18 7 -8 0
-16 -3 -18 -7z"/>
<path d="M1267 813 c-3 -5 5 -8 18 -8 13 0 21 3 18 8 -2 4 -10 7 -18 7 -8 0
-16 -3 -18 -7z"/>
<path d="M1977 799 c4 -12 0 -25 -8 -30 -10 -6 -5 -9 16 -8 17 0 24 3 18 6 -7
2 -13 16 -13 29 0 13 -4 24 -9 24 -5 0 -7 -9 -4 -21z"/>
<path d="M2037 813 c-3 -5 5 -8 18 -8 13 0 21 3 18 8 -2 4 -10 7 -18 7 -8 0
-16 -3 -18 -7z"/>
<path d="M2177 813 c-3 -5 5 -8 18 -8 13 0 21 3 18 8 -2 4 -10 7 -18 7 -8 0
-16 -3 -18 -7z"/>
<path d="M923 803 c9 -2 23 -2 30 0 6 3 -1 5 -18 5 -16 0 -22 -2 -12 -5z"/>
<path d="M1693 803 c9 -2 23 -2 30 0 6 3 -1 5 -18 5 -16 0 -22 -2 -12 -5z"/>
<path d="M917 774 c3 -9 9 -11 12 -6 3 5 13 12 21 15 9 3 4 6 -12 6 -21 1 -26
-3 -21 -15z"/>
<path d="M1693 783 c9 -2 23 -2 30 0 6 3 -1 5 -18 5 -16 0 -22 -2 -12 -5z"/>
<path d="M1828 768 c5 -18 7 -19 10 -6 2 9 11 19 20 21 10 3 6 5 -10 6 -22 1
-25 -2 -20 -21z"/>
<path d="M90 770 c-9 -6 -10 -10 -3 -10 6 0 15 5 18 10 8 12 4 12 -15 0z"/>
<path d="M1127 768 c2 -5 10 -8 18 -8 8 0 16 3 18 8 3 4 -5 7 -18 7 -13 0 -21
-3 -18 -7z"/>
<path d="M1267 768 c2 -5 10 -8 18 -8 8 0 16 3 18 8 3 4 -5 7 -18 7 -13 0 -21
-3 -18 -7z"/>
<path d="M1470 768 c0 -5 11 -8 25 -8 14 0 25 3 25 8 0 4 -11 7 -25 7 -14 0
-25 -3 -25 -7z"/>
<path d="M2037 768 c2 -5 10 -8 18 -8 8 0 16 3 18 8 3 4 -5 7 -18 7 -13 0 -21
-3 -18 -7z"/>
<path d="M2177 768 c2 -5 10 -8 18 -8 8 0 16 3 18 8 3 4 -5 7 -18 7 -13 0 -21
-3 -18 -7z"/>
<path d="M2390 765 c0 -8 2 -15 4 -15 2 0 6 7 10 15 3 8 1 15 -4 15 -6 0 -10
-7 -10 -15z"/>
<path d="M148 763 c6 -2 18 -2 25 0 6 3 1 5 -13 5 -14 0 -19 -2 -12 -5z"/>
<path d="M978 763 c7 -3 16 -2 19 1 4 3 -2 6 -13 5 -11 0 -14 -3 -6 -6z"/>
<path d="M1338 763 c6 -2 18 -2 25 0 6 3 1 5 -13 5 -14 0 -19 -2 -12 -5z"/>
<path d="M1888 763 c7 -3 16 -2 19 1 4 3 -2 6 -13 5 -11 0 -14 -3 -6 -6z"/>
<path d="M2308 763 c7 -3 16 -2 19 1 4 3 -2 6 -13 5 -11 0 -14 -3 -6 -6z"/>
<path d="M2248 733 c12 -2 30 -2 40 0 9 3 -1 5 -23 4 -22 0 -30 -2 -17 -4z"/>
<path d="M150 666 c0 -2 7 -7 16 -10 8 -3 12 -2 9 4 -6 10 -25 14 -25 6z"/>
<path d="M630 630 c0 -37 2 -40 28 -39 23 2 24 2 5 6 -25 5 -31 28 -10 36 10
4 10 6 0 6 -7 1 -13 6 -13 12 0 6 9 9 20 6 11 -3 20 -1 20 4 0 5 -11 9 -25 9
-22 0 -25 -4 -25 -40z"/>
<path d="M705 630 c0 -36 2 -40 25 -39 19 1 20 3 7 6 -15 4 -18 12 -15 39 2
20 0 34 -7 34 -5 0 -10 -18 -10 -40z"/>
<path d="M775 660 c-9 -14 1 -27 25 -33 11 -3 18 -1 14 4 -3 5 -12 9 -20 9 -8
0 -14 5 -14 11 0 6 9 9 20 6 11 -3 20 -1 20 4 0 12 -37 11 -45 -1z"/>
<path d="M840 630 c0 -37 2 -40 28 -39 23 2 24 2 5 6 -25 5 -31 28 -10 36 10
4 10 6 0 6 -7 1 -13 6 -13 12 0 6 9 9 20 6 11 -3 20 -1 20 4 0 5 -11 9 -25 9
-22 0 -25 -4 -25 -40z"/>
<path d="M90 600 c-9 -6 -10 -10 -3 -10 6 0 15 5 18 10 8 12 4 12 -15 0z"/>
<path d="M770 598 c0 -5 9 -8 19 -8 11 0 22 3 24 8 3 4 -6 7 -19 7 -13 0 -24
-3 -24 -7z"/>
<path d="M143 593 c9 -2 23 -2 30 0 6 3 -1 5 -18 5 -16 0 -22 -2 -12 -5z"/>
<path d="M975 490 c3 -5 8 -10 11 -10 2 0 4 5 4 10 0 6 -5 10 -11 10 -5 0 -7
-4 -4 -10z"/>
<path d="M1016 484 c-5 -14 -4 -15 9 -4 17 14 19 20 6 20 -5 0 -12 -7 -15 -16z"/>
<path d="M1208 469 c3 -20 0 -34 -9 -40 -10 -6 -5 -8 16 -8 17 0 24 3 18 6 -7
2 -13 20 -13 39 0 19 -4 34 -8 34 -5 0 -6 -14 -4 -31z"/>
<path d="M1348 493 c26 -5 29 -20 5 -25 -15 -3 -15 -5 3 -10 17 -4 21 -1 20
16 -1 15 -8 21 -26 23 -22 1 -22 1 -2 -4z"/>
<path d="M1422 468 c-1 -20 -8 -39 -14 -41 -7 -3 1 -6 17 -6 17 0 25 3 18 7
-6 4 -13 23 -16 42 l-4 35 -1 -37z"/>
<path d="M1475 491 c-4 -7 0 -8 10 -4 10 3 21 0 27 -8 8 -12 9 -11 5 1 -5 18
-33 25 -42 11z"/>
<path d="M1846 486 c3 -8 -2 -16 -13 -19 -12 -3 -10 -5 9 -6 21 -1 25 3 21 19
-3 11 -9 20 -14 20 -5 0 -6 -6 -3 -14z"/>
<path d="M1893 478 c8 -13 18 -23 22 -23 4 0 14 10 23 23 8 12 10 22 4 22 -6
0 -14 -10 -18 -22 l-7 -23 -10 23 c-6 12 -14 22 -20 22 -5 0 -3 -10 6 -22z"/>
<path d="M2118 469 c3 -20 0 -34 -9 -40 -10 -6 -5 -8 16 -8 17 0 24 3 18 6 -7
2 -13 20 -13 39 0 19 -4 34 -8 34 -5 0 -6 -14 -4 -31z"/>
<path d="M2315 460 c0 -33 3 -40 20 -40 17 0 17 2 5 10 -13 9 -13 11 0 20 10
6 11 10 3 10 -20 0 -15 28 5 33 11 3 9 5 -8 6 -23 1 -25 -3 -25 -39z"/>
<path d="M2385 460 c0 -36 2 -40 25 -39 19 1 20 3 7 6 -15 4 -18 12 -15 39 2
20 0 34 -7 34 -5 0 -10 -18 -10 -40z"/>
<path d="M1067 459 c4 -12 0 -25 -8 -30 -10 -6 -5 -9 16 -8 17 0 24 3 18 6 -7
2 -13 16 -13 29 0 13 -4 24 -9 24 -5 0 -7 -9 -4 -21z"/>
<path d="M1127 473 c-3 -5 5 -8 18 -8 13 0 21 3 18 8 -2 4 -10 7 -18 7 -8 0
-16 -3 -18 -7z"/>
<path d="M1267 473 c-3 -5 5 -8 18 -8 13 0 21 3 18 8 -2 4 -10 7 -18 7 -8 0
-16 -3 -18 -7z"/>
<path d="M1977 459 c4 -12 0 -25 -8 -30 -10 -6 -5 -9 16 -8 17 0 24 3 18 6 -7
2 -13 16 -13 29 0 13 -4 24 -9 24 -5 0 -7 -9 -4 -21z"/>
<path d="M2037 473 c-3 -5 5 -8 18 -8 13 0 21 3 18 8 -2 4 -10 7 -18 7 -8 0
-16 -3 -18 -7z"/>
<path d="M2177 473 c-3 -5 5 -8 18 -8 13 0 21 3 18 8 -2 4 -10 7 -18 7 -8 0
-16 -3 -18 -7z"/>
<path d="M923 463 c9 -2 23 -2 30 0 6 3 -1 5 -18 5 -16 0 -22 -2 -12 -5z"/>
<path d="M1693 463 c9 -2 23 -2 30 0 6 3 -1 5 -18 5 -16 0 -22 -2 -12 -5z"/>
<path d="M917 434 c3 -9 9 -11 12 -6 3 5 13 12 21 15 9 3 4 6 -12 6 -21 1 -26
-3 -21 -15z"/>
<path d="M1693 443 c9 -2 23 -2 30 0 6 3 -1 5 -18 5 -16 0 -22 -2 -12 -5z"/>
<path d="M1828 428 c5 -18 7 -19 10 -6 2 9 11 19 20 21 10 3 6 5 -10 6 -22 1
-25 -2 -20 -21z"/>
<path d="M90 430 c-9 -6 -10 -10 -3 -10 6 0 15 5 18 10 8 12 4 12 -15 0z"/>
<path d="M160 430 c-9 -6 -10 -10 -3 -10 6 0 15 5 18 10 8 12 4 12 -15 0z"/>
<path d="M1127 428 c2 -5 10 -8 18 -8 8 0 16 3 18 8 3 4 -5 7 -18 7 -13 0 -21
-3 -18 -7z"/>
<path d="M1267 428 c2 -5 10 -8 18 -8 8 0 16 3 18 8 3 4 -5 7 -18 7 -13 0 -21
-3 -18 -7z"/>
<path d="M1470 428 c0 -5 11 -8 25 -8 14 0 25 3 25 8 0 4 -11 7 -25 7 -14 0
-25 -3 -25 -7z"/>
<path d="M2037 428 c2 -5 10 -8 18 -8 8 0 16 3 18 8 3 4 -5 7 -18 7 -13 0 -21
-3 -18 -7z"/>
<path d="M2177 428 c2 -5 10 -8 18 -8 8 0 16 3 18 8 3 4 -5 7 -18 7 -13 0 -21
-3 -18 -7z"/>
<path d="M2460 425 c0 -8 2 -15 4 -15 2 0 6 7 10 15 3 8 1 15 -4 15 -6 0 -10
-7 -10 -15z"/>
<path d="M978 423 c7 -3 16 -2 19 1 4 3 -2 6 -13 5 -11 0 -14 -3 -6 -6z"/>
<path d="M1338 423 c6 -2 18 -2 25 0 6 3 1 5 -13 5 -14 0 -19 -2 -12 -5z"/>
<path d="M1888 423 c7 -3 16 -2 19 1 4 3 -2 6 -13 5 -11 0 -14 -3 -6 -6z"/>
<path d="M2248 393 c12 -2 30 -2 40 0 9 3 -1 5 -23 4 -22 0 -30 -2 -17 -4z"/>
<path d="M630 290 c0 -37 2 -40 28 -39 23 2 24 2 5 6 -25 5 -31 28 -10 36 10
4 10 6 0 6 -7 1 -13 6 -13 12 0 6 9 9 20 6 11 -3 20 -1 20 4 0 5 -11 9 -25 9
-22 0 -25 -4 -25 -40z"/>
<path d="M695 290 c0 -22 5 -40 10 -40 12 0 11 73 -1 77 -5 2 -9 -15 -9 -37z"/>
<path d="M736 294 c3 -50 11 -53 16 -5 2 24 -1 41 -7 41 -6 0 -10 -16 -9 -36z"/>
<path d="M770 326 c0 -2 11 -6 25 -8 13 -3 22 -1 19 3 -5 9 -44 13 -44 5z"/>
<path d="M918 323 c6 -2 12 -17 12 -33 0 -16 -6 -31 -12 -33 -7 -3 1 -5 17 -5
17 0 24 2 18 5 -7 2 -13 17 -13 33 0 16 6 31 13 33 6 3 -1 5 -18 5 -16 0 -24
-2 -17 -5z"/>
<path d="M985 290 c0 -34 3 -40 20 -39 11 0 14 3 8 6 -7 2 -13 11 -13 19 0 9
5 12 10 9 6 -3 10 1 10 10 0 9 -4 13 -10 10 -5 -3 -10 -1 -10 6 0 6 8 9 20 6
11 -3 20 -1 20 4 0 5 -12 9 -27 9 -26 0 -28 -3 -28 -40z"/>
<path d="M148 273 c6 -2 18 -2 25 0 6 3 1 5 -13 5 -14 0 -19 -2 -12 -5z"/>
<path d="M90 260 c-9 -6 -10 -10 -3 -10 6 0 15 5 18 10 8 12 4 12 -15 0z"/>
<path d="M790 260 c-23 -7 -23 -8 -3 -9 12 -1 25 4 28 9 3 6 5 10 3 9 -2 -1
-14 -5 -28 -9z"/>
<path d="M1060 255 c0 -8 2 -15 4 -15 2 0 6 7 10 15 3 8 1 15 -4 15 -6 0 -10
-7 -10 -15z"/>
<path d="M848 223 c12 -2 30 -2 40 0 9 3 -1 5 -23 4 -22 0 -30 -2 -17 -4z"/>
<path d="M148 153 c7 -3 16 -2 19 1 4 3 -2 6 -13 5 -11 0 -14 -3 -6 -6z"/>
<path d="M350 120 c0 -37 2 -40 28 -39 23 2 24 2 5 6 -25 5 -31 28 -10 36 10
4 10 6 0 6 -7 1 -13 6 -13 12 0 6 9 9 20 6 11 -3 20 -1 20 4 0 5 -11 9 -25 9
-22 0 -25 -4 -25 -40z"/>
<path d="M415 120 c0 -22 5 -40 10 -40 12 0 11 73 -1 77 -5 2 -9 -15 -9 -37z"/>
<path d="M456 124 c3 -50 11 -53 16 -5 2 24 -1 41 -7 41 -6 0 -10 -16 -9 -36z"/>
<path d="M490 156 c0 -2 11 -6 25 -8 13 -3 22 -1 19 3 -5 9 -44 13 -44 5z"/>
<path d="M638 153 c6 -2 12 -17 12 -33 0 -16 -6 -31 -12 -33 -7 -3 1 -5 17 -5
17 0 24 2 18 5 -7 2 -13 17 -13 33 0 16 6 31 13 33 6 3 -1 5 -18 5 -16 0 -24
-2 -17 -5z"/>
<path d="M705 120 c0 -34 3 -40 20 -39 11 0 14 3 8 6 -7 2 -13 11 -13 19 0 9
5 12 10 9 6 -3 10 1 10 10 0 9 -4 13 -10 10 -5 -3 -10 -1 -10 6 0 6 8 9 20 6
11 -3 20 -1 20 4 0 5 -12 9 -27 9 -26 0 -28 -3 -28 -40z"/>
<path d="M148 123 c7 -3 16 -2 19 1 4 3 -2 6 -13 5 -11 0 -14 -3 -6 -6z"/>
<path d="M90 90 c-9 -6 -10 -10 -3 -10 6 0 15 5 18 10 8 12 4 12 -15 0z"/>
<path d="M510 90 c-23 -7 -23 -8 -3 -9 12 -1 25 4 28 9 3 6 5 10 3 9 -2 -1
-14 -5 -28 -9z"/>
<path d="M780 85 c0 -8 2 -15 4 -15 2 0 6 7 10 15 3 8 1 15 -4 15 -6 0 -10 -7
-10 -15z"/>
<path d="M568 53 c12 -2 30 -2 40 0 9 3 -1 5 -23 4 -22 0 -30 -2 -17 -4z"/>
</g>
</svg>
