<?xml version="1.0" standalone="no"?>
<!DOCTYPE svg PUBLIC "-//W3C//DTD SVG 20010904//EN"
 "http://www.w3.org/TR/2001/REC-SVG-20010904/DTD/svg10.dtd">
<svg version="1.0" xmlns="http://www.w3.org/2000/svg"
 width="483.000000pt" height="441.000000pt" viewBox="0 0 483.000000 441.000000"
 preserveAspectRatio="xMidYMid meet">

<g transform="translate(0.000000,441.000000) scale(0.100000,-0.100000)"
fill="#000000" stroke="none">
<path d="M78 4383 c7 -3 16 -2 19 1 4 3 -2 6 -13 5 -11 0 -14 -3 -6 -6z"/>
<path d="M910 4386 c0 -2 11 -6 25 -8 13 -3 22 -1 19 3 -5 9 -44 13 -44 5z"/>
<path d="M630 4366 c0 -2 7 -7 16 -10 8 -3 12 -2 9 4 -6 10 -25 14 -25 6z"/>
<path d="M980 4366 c0 -2 7 -7 16 -10 8 -3 12 -2 9 4 -6 10 -25 14 -25 6z"/>
<path d="M1128 4363 c6 -2 18 -2 25 0 6 3 1 5 -13 5 -14 0 -19 -2 -12 -5z"/>
<path d="M78 4353 c7 -3 16 -2 19 1 4 3 -2 6 -13 5 -11 0 -14 -3 -6 -6z"/>
<path d="M928 4353 c7 -3 16 -2 19 1 4 3 -2 6 -13 5 -11 0 -14 -3 -6 -6z"/>
<path d="M1056 4341 c-4 -5 3 -7 14 -4 23 6 26 13 6 13 -8 0 -17 -4 -20 -9z"/>
<path d="M148 4333 c6 -2 18 -2 25 0 6 3 1 5 -13 5 -14 0 -19 -2 -12 -5z"/>
<path d="M638 4313 c6 -2 18 -2 25 0 6 3 1 5 -13 5 -14 0 -19 -2 -12 -5z"/>
<path d="M918 4313 c6 -2 18 -2 25 0 6 3 1 5 -13 5 -14 0 -19 -2 -12 -5z"/>
<path d="M988 4313 c6 -2 18 -2 25 0 6 3 1 5 -13 5 -14 0 -19 -2 -12 -5z"/>
<path d="M78 4213 c7 -3 16 -2 19 1 4 3 -2 6 -13 5 -11 0 -14 -3 -6 -6z"/>
<path d="M148 4213 c7 -3 16 -2 19 1 4 3 -2 6 -13 5 -11 0 -14 -3 -6 -6z"/>
<path d="M630 4180 c0 -37 2 -40 28 -39 23 2 24 2 5 6 -25 5 -31 28 -10 36 10
4 10 6 0 6 -7 1 -13 6 -13 12 0 6 9 9 20 6 11 -3 20 -1 20 4 0 5 -11 9 -25 9
-22 0 -25 -4 -25 -40z"/>
<path d="M705 4180 c0 -36 2 -40 25 -39 19 1 20 3 7 6 -15 4 -18 12 -15 39 2
20 0 34 -7 34 -5 0 -10 -18 -10 -40z"/>
<path d="M775 4210 c-9 -14 1 -27 25 -33 11 -3 18 -1 14 4 -3 5 -12 9 -20 9
-8 0 -14 5 -14 11 0 6 9 9 20 6 11 -3 20 -1 20 4 0 12 -37 11 -45 -1z"/>
<path d="M840 4180 c0 -37 2 -40 28 -39 23 2 24 2 5 6 -25 5 -31 28 -10 36 10
4 10 6 0 6 -7 1 -13 6 -13 12 0 6 9 9 20 6 11 -3 20 -1 20 4 0 5 -11 9 -25 9
-22 0 -25 -4 -25 -40z"/>
<path d="M78 4183 c7 -3 16 -2 19 1 4 3 -2 6 -13 5 -11 0 -14 -3 -6 -6z"/>
<path d="M148 4183 c7 -3 16 -2 19 1 4 3 -2 6 -13 5 -11 0 -14 -3 -6 -6z"/>
<path d="M770 4148 c0 -5 9 -8 19 -8 11 0 22 3 24 8 3 4 -6 7 -19 7 -13 0 -24
-3 -24 -7z"/>
<path d="M78 4043 c7 -3 16 -2 19 1 4 3 -2 6 -13 5 -11 0 -14 -3 -6 -6z"/>
<path d="M918 4043 c6 -2 12 -17 12 -33 0 -16 -6 -31 -12 -33 -7 -3 1 -5 17
-5 17 0 24 2 18 5 -7 2 -13 17 -13 33 0 16 6 31 13 33 6 3 -1 5 -18 5 -16 0
-24 -2 -17 -5z"/>
<path d="M985 4010 c0 -34 3 -40 20 -39 11 0 14 3 8 6 -7 2 -13 11 -13 19 0 9
5 12 10 9 6 -3 10 1 10 10 0 9 -4 13 -10 10 -5 -3 -10 -1 -10 6 0 6 8 9 20 6
11 -3 20 -1 20 4 0 5 -12 9 -27 9 -26 0 -28 -3 -28 -40z"/>
<path d="M1185 4040 c3 -5 8 -10 11 -10 2 0 4 5 4 10 0 6 -5 10 -11 10 -5 0
-7 -4 -4 -10z"/>
<path d="M1226 4034 c-5 -14 -4 -15 9 -4 17 14 19 20 6 20 -5 0 -12 -7 -15
-16z"/>
<path d="M1418 4019 c3 -20 0 -34 -9 -40 -10 -6 -5 -8 16 -8 17 0 24 3 18 6
-7 2 -13 20 -13 39 0 19 -4 34 -8 34 -5 0 -6 -14 -4 -31z"/>
<path d="M1558 4043 c26 -5 29 -20 5 -25 -15 -3 -15 -5 3 -10 17 -4 21 -1 20
16 -1 15 -8 21 -26 23 -22 1 -22 1 -2 -4z"/>
<path d="M1632 4018 c-1 -20 -8 -39 -14 -41 -7 -3 1 -6 17 -6 17 0 25 3 18 7
-6 4 -13 23 -16 42 l-4 35 -1 -37z"/>
<path d="M1986 4036 c3 -8 -2 -16 -13 -19 -12 -3 -10 -5 9 -6 21 -1 25 3 21
19 -3 11 -9 20 -14 20 -5 0 -6 -6 -3 -14z"/>
<path d="M2033 4028 c8 -13 18 -23 22 -23 4 0 14 10 23 23 8 12 10 22 4 22 -6
0 -14 -10 -18 -22 l-7 -23 -10 23 c-6 12 -14 22 -20 22 -5 0 -3 -10 6 -22z"/>
<path d="M2258 4019 c3 -20 0 -34 -9 -40 -10 -6 -5 -8 16 -8 17 0 24 3 18 6
-7 2 -13 20 -13 39 0 19 -4 34 -8 34 -5 0 -6 -14 -4 -31z"/>
<path d="M2455 4010 c0 -33 3 -40 20 -40 17 0 17 2 5 10 -13 9 -13 11 0 20 10
6 11 10 3 10 -20 0 -15 28 5 33 11 3 9 5 -8 6 -23 1 -25 -3 -25 -39z"/>
<path d="M2599 4041 c9 -6 12 -20 9 -40 -3 -19 0 -31 7 -31 7 0 10 12 7 31 -3
20 0 34 9 40 10 6 5 9 -16 9 -21 0 -26 -3 -16 -9z"/>
<path d="M2696 4036 c3 -8 -2 -16 -13 -19 -17 -4 -17 -5 1 -6 13 -1 17 -6 13
-21 -3 -11 -1 -20 4 -20 5 0 9 18 9 40 0 22 -4 40 -10 40 -5 0 -7 -6 -4 -14z"/>
<path d="M2730 4010 c0 -37 2 -40 28 -39 23 2 24 2 5 6 -25 5 -31 28 -10 36
10 4 10 6 0 6 -7 1 -13 6 -13 12 0 6 9 9 20 6 11 -3 20 -1 20 4 0 5 -11 9 -25
9 -22 0 -25 -4 -25 -40z"/>
<path d="M2795 4010 c0 -22 5 -40 10 -40 12 0 11 73 -1 77 -5 2 -9 -15 -9 -37z"/>
<path d="M2836 4014 c3 -50 11 -53 16 -5 2 24 -1 41 -7 41 -6 0 -10 -16 -9
-36z"/>
<path d="M1277 4009 c4 -12 0 -25 -8 -30 -10 -6 -5 -9 16 -8 17 0 24 3 18 6
-7 2 -13 16 -13 29 0 13 -4 24 -9 24 -5 0 -7 -9 -4 -21z"/>
<path d="M1337 4023 c-3 -5 5 -8 18 -8 13 0 21 3 18 8 -2 4 -10 7 -18 7 -8 0
-16 -3 -18 -7z"/>
<path d="M1477 4023 c-3 -5 5 -8 18 -8 13 0 21 3 18 8 -2 4 -10 7 -18 7 -8 0
-16 -3 -18 -7z"/>
<path d="M2117 4009 c4 -12 0 -25 -8 -30 -10 -6 -5 -9 16 -8 17 0 24 3 18 6
-7 2 -13 16 -13 29 0 13 -4 24 -9 24 -5 0 -7 -9 -4 -21z"/>
<path d="M2177 4023 c-3 -5 5 -8 18 -8 13 0 21 3 18 8 -2 4 -10 7 -18 7 -8 0
-16 -3 -18 -7z"/>
<path d="M2317 4023 c-3 -5 5 -8 18 -8 13 0 21 3 18 8 -2 4 -10 7 -18 7 -8 0
-16 -3 -18 -7z"/>
<path d="M78 4013 c7 -3 16 -2 19 1 4 3 -2 6 -13 5 -11 0 -14 -3 -6 -6z"/>
<path d="M145 4010 c-3 -6 1 -7 9 -4 18 7 21 14 7 14 -6 0 -13 -4 -16 -10z"/>
<path d="M1133 4013 c9 -2 23 -2 30 0 6 3 -1 5 -18 5 -16 0 -22 -2 -12 -5z"/>
<path d="M1833 4013 c9 -2 23 -2 30 0 6 3 -1 5 -18 5 -16 0 -22 -2 -12 -5z"/>
<path d="M1127 3984 c3 -9 9 -11 12 -6 3 5 13 12 21 15 9 3 4 6 -12 6 -21 1
-26 -3 -21 -15z"/>
<path d="M1720 3991 c0 -8 -8 -11 -20 -8 -11 3 -18 1 -14 -4 3 -5 11 -9 19 -9
16 0 30 18 21 27 -3 4 -6 1 -6 -6z"/>
<path d="M1833 3993 c9 -2 23 -2 30 0 6 3 -1 5 -18 5 -16 0 -22 -2 -12 -5z"/>
<path d="M1968 3978 c5 -18 7 -19 10 -6 2 9 11 19 20 21 10 3 6 5 -10 6 -22 1
-25 -2 -20 -21z"/>
<path d="M1337 3978 c2 -5 10 -8 18 -8 8 0 16 3 18 8 3 4 -5 7 -18 7 -13 0
-21 -3 -18 -7z"/>
<path d="M1477 3978 c2 -5 10 -8 18 -8 8 0 16 3 18 8 3 4 -5 7 -18 7 -13 0
-21 -3 -18 -7z"/>
<path d="M2177 3978 c2 -5 10 -8 18 -8 8 0 16 3 18 8 3 4 -5 7 -18 7 -13 0
-21 -3 -18 -7z"/>
<path d="M2317 3978 c2 -5 10 -8 18 -8 8 0 16 3 18 8 3 4 -5 7 -18 7 -13 0
-21 -3 -18 -7z"/>
<path d="M1188 3973 c7 -3 16 -2 19 1 4 3 -2 6 -13 5 -11 0 -14 -3 -6 -6z"/>
<path d="M1548 3973 c6 -2 18 -2 25 0 6 3 1 5 -13 5 -14 0 -19 -2 -12 -5z"/>
<path d="M2028 3973 c7 -3 16 -2 19 1 4 3 -2 6 -13 5 -11 0 -14 -3 -6 -6z"/>
<path d="M2388 3943 c12 -2 30 -2 40 0 9 3 -1 5 -23 4 -22 0 -30 -2 -17 -4z"/>
<path d="M78 3873 c7 -3 16 -2 19 1 4 3 -2 6 -13 5 -11 0 -14 -3 -6 -6z"/>
<path d="M138 3873 c6 -2 18 -2 25 0 6 3 1 5 -13 5 -14 0 -19 -2 -12 -5z"/>
<path d="M1266 3871 c-4 -5 3 -7 14 -4 23 6 26 13 6 13 -8 0 -17 -4 -20 -9z"/>
<path d="M1348 3849 c3 -20 0 -34 -9 -40 -10 -6 -5 -8 16 -8 17 0 24 3 18 6
-7 2 -13 20 -13 39 0 19 -4 34 -8 34 -5 0 -6 -14 -4 -31z"/>
<path d="M1708 3873 c7 -3 16 -2 19 1 4 3 -2 6 -13 5 -11 0 -14 -3 -6 -6z"/>
<path d="M1495 3851 l20 -8 -20 -5 c-16 -5 -17 -6 -2 -7 9 0 17 -6 17 -12 0
-6 -9 -9 -20 -6 -11 3 -20 1 -20 -5 0 -5 10 -8 22 -6 33 4 37 58 5 57 -21 0
-21 -1 -2 -8z"/>
<path d="M1565 3851 l20 -8 -20 -5 c-16 -5 -17 -6 -2 -7 9 0 17 -6 17 -12 0
-6 -9 -9 -20 -6 -11 3 -20 1 -20 -5 0 -5 10 -8 22 -6 33 4 37 58 5 57 -21 0
-21 -1 -2 -8z"/>
<path d="M1627 3839 c4 -12 0 -25 -8 -30 -10 -6 -5 -9 16 -8 17 0 24 3 18 6
-7 2 -13 16 -13 29 0 13 -4 24 -9 24 -5 0 -7 -9 -4 -21z"/>
<path d="M1693 3853 c9 -2 23 -2 30 0 6 3 -1 5 -18 5 -16 0 -22 -2 -12 -5z"/>
<path d="M1767 3839 c4 -12 0 -25 -8 -30 -10 -6 -5 -9 16 -8 17 0 24 3 18 6
-7 2 -13 16 -13 29 0 13 -4 24 -9 24 -5 0 -7 -9 -4 -21z"/>
<path d="M1827 3853 c-3 -5 5 -8 18 -8 13 0 21 3 18 8 -2 4 -10 7 -18 7 -8 0
-16 -3 -18 -7z"/>
<path d="M1967 3853 c-3 -5 5 -8 18 -8 13 0 21 3 18 8 -2 4 -10 7 -18 7 -8 0
-16 -3 -18 -7z"/>
<path d="M2107 3853 c-3 -5 5 -8 18 -8 13 0 21 3 18 8 -2 4 -10 7 -18 7 -8 0
-16 -3 -18 -7z"/>
<path d="M78 3843 c7 -3 16 -2 19 1 4 3 -2 6 -13 5 -11 0 -14 -3 -6 -6z"/>
<path d="M1203 3843 c9 -2 23 -2 30 0 6 3 -1 5 -18 5 -16 0 -22 -2 -12 -5z"/>
<path d="M2323 3843 c9 -2 23 -2 30 0 6 3 -1 5 -18 5 -16 0 -22 -2 -12 -5z"/>
<path d="M1406 3831 c-4 -5 3 -7 14 -4 23 6 26 13 6 13 -8 0 -17 -4 -20 -9z"/>
<path d="M1896 3831 c-4 -5 3 -7 14 -4 23 6 26 13 6 13 -8 0 -17 -4 -20 -9z"/>
<path d="M2036 3831 c-4 -5 3 -7 14 -4 23 6 26 13 6 13 -8 0 -17 -4 -20 -9z"/>
<path d="M1197 3814 c3 -9 9 -11 12 -6 3 5 13 12 21 15 9 3 4 6 -12 6 -21 1
-26 -3 -21 -15z"/>
<path d="M2323 3823 c9 -2 23 -2 30 0 6 3 -1 5 -18 5 -16 0 -22 -2 -12 -5z"/>
<path d="M1420 3810 c-12 -7 -10 -9 7 -7 12 0 19 5 17 9 -6 10 -6 10 -24 -2z"/>
<path d="M1828 3808 c5 -5 16 -8 23 -6 8 3 3 7 -10 11 -17 4 -21 3 -13 -5z"/>
<path d="M1910 3810 c-12 -7 -10 -9 7 -7 12 0 19 5 17 9 -6 10 -6 10 -24 -2z"/>
<path d="M1968 3808 c5 -5 16 -8 23 -6 8 3 3 7 -10 11 -17 4 -21 3 -13 -5z"/>
<path d="M2050 3810 c-12 -7 -10 -9 7 -7 12 0 19 5 17 9 -6 10 -6 10 -24 -2z"/>
<path d="M2107 3808 c2 -5 10 -8 18 -8 8 0 16 3 18 8 3 4 -5 7 -18 7 -13 0
-21 -3 -18 -7z"/>
<path d="M2457 3808 c2 -5 10 -8 18 -8 8 0 16 3 18 8 3 4 -5 7 -18 7 -13 0
-21 -3 -18 -7z"/>
<path d="M2530 3805 c0 -8 2 -15 4 -15 2 0 6 7 10 15 3 8 1 15 -4 15 -6 0 -10
-7 -10 -15z"/>
<path d="M1693 3803 c9 -2 23 -2 30 0 6 3 -1 5 -18 5 -16 0 -22 -2 -12 -5z"/>
<path d="M78 3703 c7 -3 16 -2 19 1 4 3 -2 6 -13 5 -11 0 -14 -3 -6 -6z"/>
<path d="M910 3670 c0 -37 2 -40 28 -39 23 2 24 2 5 6 -25 5 -31 28 -10 36 10
4 10 6 0 6 -7 1 -13 6 -13 12 0 6 9 9 20 6 11 -3 20 -1 20 4 0 5 -11 9 -25 9
-22 0 -25 -4 -25 -40z"/>
<path d="M985 3670 c0 -36 2 -40 25 -39 19 1 20 3 7 6 -15 4 -18 12 -15 39 2
20 0 34 -7 34 -5 0 -10 -18 -10 -40z"/>
<path d="M1055 3700 c-9 -14 1 -27 25 -33 11 -3 18 -1 14 4 -3 5 -12 9 -20 9
-8 0 -14 5 -14 11 0 6 9 9 20 6 11 -3 20 -1 20 4 0 12 -37 11 -45 -1z"/>
<path d="M1128 3703 c6 -2 12 -17 12 -33 0 -16 -6 -31 -12 -33 -7 -3 1 -5 17
-5 17 0 24 2 18 5 -7 2 -13 17 -13 33 0 16 6 31 13 33 6 3 -1 5 -18 5 -16 0
-24 -2 -17 -5z"/>
<path d="M1195 3670 c0 -34 3 -40 20 -39 11 0 14 3 8 6 -7 2 -13 11 -13 19 0
9 5 12 10 9 6 -3 10 1 10 10 0 9 -4 13 -10 10 -5 -3 -10 -1 -10 6 0 6 8 9 20
6 11 -3 20 -1 20 4 0 5 -12 9 -27 9 -26 0 -28 -3 -28 -40z"/>
<path d="M1395 3700 c3 -5 8 -10 11 -10 2 0 4 5 4 10 0 6 -5 10 -11 10 -5 0
-7 -4 -4 -10z"/>
<path d="M1436 3694 c-5 -14 -4 -15 9 -4 17 14 19 20 6 20 -5 0 -12 -7 -15
-16z"/>
<path d="M1628 3679 c3 -20 0 -34 -9 -40 -10 -6 -5 -8 16 -8 17 0 24 3 18 6
-7 2 -13 20 -13 39 0 19 -4 34 -8 34 -5 0 -6 -14 -4 -31z"/>
<path d="M1768 3703 c26 -5 29 -20 5 -25 -15 -3 -15 -5 3 -10 17 -4 21 -1 20
16 -1 15 -8 21 -26 23 -22 1 -22 1 -2 -4z"/>
<path d="M1842 3678 c-1 -20 -8 -39 -14 -41 -7 -3 1 -6 17 -6 17 0 25 3 18 7
-6 4 -13 23 -16 42 l-4 35 -1 -37z"/>
<path d="M2196 3696 c3 -8 -2 -16 -13 -19 -12 -3 -10 -5 9 -6 21 -1 25 3 21
19 -3 11 -9 20 -14 20 -5 0 -6 -6 -3 -14z"/>
<path d="M2243 3688 c8 -13 18 -23 22 -23 4 0 14 10 23 23 8 12 10 22 4 22 -6
0 -14 -10 -18 -22 l-7 -23 -10 23 c-6 12 -14 22 -20 22 -5 0 -3 -10 6 -22z"/>
<path d="M2468 3679 c3 -20 0 -34 -9 -40 -10 -6 -5 -8 16 -8 17 0 24 3 18 6
-7 2 -13 20 -13 39 0 19 -4 34 -8 34 -5 0 -6 -14 -4 -31z"/>
<path d="M2678 3703 c26 -5 29 -20 5 -25 -15 -3 -15 -5 3 -10 17 -4 21 -1 20
16 -1 15 -8 21 -26 23 -22 1 -22 1 -2 -4z"/>
<path d="M2809 3701 c9 -6 12 -20 9 -40 -3 -19 0 -31 7 -31 7 0 10 12 7 31 -3
20 0 34 9 40 10 6 5 9 -16 9 -21 0 -26 -3 -16 -9z"/>
<path d="M2906 3696 c3 -8 -2 -16 -13 -19 -17 -4 -17 -5 1 -6 13 -1 17 -6 13
-21 -3 -11 -1 -20 4 -20 5 0 9 18 9 40 0 22 -4 40 -10 40 -5 0 -7 -6 -4 -14z"/>
<path d="M2940 3670 c0 -37 2 -40 28 -39 23 2 24 2 5 6 -25 5 -31 28 -10 36
10 4 10 6 0 6 -7 1 -13 6 -13 12 0 6 9 9 20 6 11 -3 20 -1 20 4 0 5 -11 9 -25
9 -22 0 -25 -4 -25 -40z"/>
<path d="M3005 3670 c0 -22 5 -40 10 -40 12 0 11 73 -1 77 -5 2 -9 -15 -9 -37z"/>
<path d="M3046 3674 c3 -50 11 -53 16 -5 2 24 -1 41 -7 41 -6 0 -10 -16 -9
-36z"/>
<path d="M1487 3669 c4 -12 0 -25 -8 -30 -10 -6 -5 -9 16 -8 17 0 24 3 18 6
-7 2 -13 16 -13 29 0 13 -4 24 -9 24 -5 0 -7 -9 -4 -21z"/>
<path d="M1547 3683 c-3 -5 5 -8 18 -8 13 0 21 3 18 8 -2 4 -10 7 -18 7 -8 0
-16 -3 -18 -7z"/>
<path d="M1687 3683 c-3 -5 5 -8 18 -8 13 0 21 3 18 8 -2 4 -10 7 -18 7 -8 0
-16 -3 -18 -7z"/>
<path d="M2327 3669 c4 -12 0 -25 -8 -30 -10 -6 -5 -9 16 -8 17 0 24 3 18 6
-7 2 -13 16 -13 29 0 13 -4 24 -9 24 -5 0 -7 -9 -4 -21z"/>
<path d="M2387 3683 c-3 -5 5 -8 18 -8 13 0 21 3 18 8 -2 4 -10 7 -18 7 -8 0
-16 -3 -18 -7z"/>
<path d="M2527 3683 c-3 -5 5 -8 18 -8 13 0 21 3 18 8 -2 4 -10 7 -18 7 -8 0
-16 -3 -18 -7z"/>
<path d="M78 3673 c7 -3 16 -2 19 1 4 3 -2 6 -13 5 -11 0 -14 -3 -6 -6z"/>
<path d="M1343 3673 c9 -2 23 -2 30 0 6 3 -1 5 -18 5 -16 0 -22 -2 -12 -5z"/>
<path d="M2043 3673 c9 -2 23 -2 30 0 6 3 -1 5 -18 5 -16 0 -22 -2 -12 -5z"/>
<path d="M1337 3644 c3 -9 9 -11 12 -6 3 5 13 12 21 15 9 3 4 6 -12 6 -21 1
-26 -3 -21 -15z"/>
<path d="M1930 3651 c0 -8 -8 -11 -20 -8 -11 3 -18 1 -14 -4 3 -5 11 -9 19 -9
16 0 30 18 21 27 -3 4 -6 1 -6 -6z"/>
<path d="M2043 3653 c9 -2 23 -2 30 0 6 3 -1 5 -18 5 -16 0 -22 -2 -12 -5z"/>
<path d="M2178 3638 c5 -18 7 -19 10 -6 2 9 11 19 20 21 10 3 6 5 -10 6 -22 1
-25 -2 -20 -21z"/>
<path d="M1050 3638 c0 -5 9 -8 19 -8 11 0 22 3 24 8 3 4 -6 7 -19 7 -13 0
-24 -3 -24 -7z"/>
<path d="M1547 3638 c2 -5 10 -8 18 -8 8 0 16 3 18 8 3 4 -5 7 -18 7 -13 0
-21 -3 -18 -7z"/>
<path d="M1687 3638 c2 -5 10 -8 18 -8 8 0 16 3 18 8 3 4 -5 7 -18 7 -13 0
-21 -3 -18 -7z"/>
<path d="M2387 3638 c2 -5 10 -8 18 -8 8 0 16 3 18 8 3 4 -5 7 -18 7 -13 0
-21 -3 -18 -7z"/>
<path d="M2527 3638 c2 -5 10 -8 18 -8 8 0 16 3 18 8 3 4 -5 7 -18 7 -13 0
-21 -3 -18 -7z"/>
<path d="M2680 3640 l-25 -8 28 -1 c15 -1 27 4 27 9 0 6 -1 10 -2 9 -2 -1 -14
-5 -28 -9z"/>
<path d="M1398 3633 c7 -3 16 -2 19 1 4 3 -2 6 -13 5 -11 0 -14 -3 -6 -6z"/>
<path d="M1758 3633 c6 -2 18 -2 25 0 6 3 1 5 -13 5 -14 0 -19 -2 -12 -5z"/>
<path d="M2238 3633 c7 -3 16 -2 19 1 4 3 -2 6 -13 5 -11 0 -14 -3 -6 -6z"/>
<path d="M2598 3603 c12 -2 30 -2 40 0 9 3 -1 5 -23 4 -22 0 -30 -2 -17 -4z"/>
<path d="M78 3533 c7 -3 16 -2 19 1 4 3 -2 6 -13 5 -11 0 -14 -3 -6 -6z"/>
<path d="M1198 3533 c6 -2 12 -17 12 -33 0 -16 -6 -31 -12 -33 -7 -3 1 -5 17
-5 17 0 24 2 18 5 -7 2 -13 17 -13 33 0 16 6 31 13 33 6 3 -1 5 -18 5 -16 0
-24 -2 -17 -5z"/>
<path d="M1265 3500 c0 -34 3 -40 20 -39 11 0 14 3 8 6 -7 2 -13 11 -13 19 0
9 5 12 10 9 6 -3 10 1 10 10 0 9 -4 13 -10 10 -5 -3 -10 -1 -10 6 0 6 8 9 20
6 11 -3 20 -1 20 4 0 5 -12 9 -27 9 -26 0 -28 -3 -28 -40z"/>
<path d="M1465 3530 c3 -5 8 -10 11 -10 2 0 4 5 4 10 0 6 -5 10 -11 10 -5 0
-7 -4 -4 -10z"/>
<path d="M1506 3524 c-5 -14 -4 -15 9 -4 17 14 19 20 6 20 -5 0 -12 -7 -15
-16z"/>
<path d="M1698 3509 c3 -20 0 -34 -9 -40 -10 -6 -5 -8 16 -8 17 0 24 3 18 6
-7 2 -13 20 -13 39 0 19 -4 34 -8 34 -5 0 -6 -14 -4 -31z"/>
<path d="M1838 3533 c26 -5 29 -20 5 -25 -15 -3 -15 -5 3 -10 17 -4 21 -1 20
16 -1 15 -8 21 -26 23 -22 1 -22 1 -2 -4z"/>
<path d="M1912 3508 c-1 -20 -8 -39 -14 -41 -7 -3 1 -6 17 -6 17 0 25 3 18 7
-6 4 -13 23 -16 42 l-4 35 -1 -37z"/>
<path d="M1965 3531 c-4 -7 0 -8 10 -4 10 3 21 0 27 -8 8 -12 9 -11 5 1 -5 18
-33 25 -42 11z"/>
<path d="M2266 3526 c3 -8 -2 -16 -13 -19 -12 -3 -10 -5 9 -6 21 -1 25 3 21
19 -3 11 -9 20 -14 20 -5 0 -6 -6 -3 -14z"/>
<path d="M2313 3518 c8 -13 18 -23 22 -23 4 0 14 10 23 23 8 12 10 22 4 22 -6
0 -14 -10 -18 -22 l-7 -23 -10 23 c-6 12 -14 22 -20 22 -5 0 -3 -10 6 -22z"/>
<path d="M2538 3509 c3 -20 0 -34 -9 -40 -10 -6 -5 -8 16 -8 17 0 24 3 18 6
-7 2 -13 20 -13 39 0 19 -4 34 -8 34 -5 0 -6 -14 -4 -31z"/>
<path d="M2733 3518 c8 -13 18 -23 22 -23 4 0 14 10 23 23 8 12 10 22 4 22 -6
0 -14 -10 -18 -22 l-7 -23 -10 23 c-6 12 -14 22 -20 22 -5 0 -3 -10 6 -22z"/>
<path d="M2879 3531 c9 -6 12 -20 9 -40 -3 -19 0 -31 7 -31 7 0 10 12 7 31 -3
20 0 34 9 40 10 6 5 9 -16 9 -21 0 -26 -3 -16 -9z"/>
<path d="M2976 3526 c3 -8 -2 -16 -13 -19 -17 -4 -17 -5 1 -6 13 -1 17 -6 13
-21 -3 -11 -1 -20 4 -20 5 0 9 18 9 40 0 22 -4 40 -10 40 -5 0 -7 -6 -4 -14z"/>
<path d="M3010 3500 c0 -37 2 -40 28 -39 23 2 24 2 5 6 -25 5 -31 28 -10 36
10 4 10 6 0 6 -7 1 -13 6 -13 12 0 6 9 9 20 6 11 -3 20 -1 20 4 0 5 -11 9 -25
9 -22 0 -25 -4 -25 -40z"/>
<path d="M3075 3500 c0 -22 5 -40 10 -40 12 0 11 73 -1 77 -5 2 -9 -15 -9 -37z"/>
<path d="M3116 3504 c3 -50 11 -53 16 -5 2 24 -1 41 -7 41 -6 0 -10 -16 -9
-36z"/>
<path d="M1557 3499 c4 -12 0 -25 -8 -30 -10 -6 -5 -9 16 -8 17 0 24 3 18 6
-7 2 -13 16 -13 29 0 13 -4 24 -9 24 -5 0 -7 -9 -4 -21z"/>
<path d="M1617 3513 c-3 -5 5 -8 18 -8 13 0 21 3 18 8 -2 4 -10 7 -18 7 -8 0
-16 -3 -18 -7z"/>
<path d="M1757 3513 c-3 -5 5 -8 18 -8 13 0 21 3 18 8 -2 4 -10 7 -18 7 -8 0
-16 -3 -18 -7z"/>
<path d="M2397 3499 c4 -12 0 -25 -8 -30 -10 -6 -5 -9 16 -8 17 0 24 3 18 6
-7 2 -13 16 -13 29 0 13 -4 24 -9 24 -5 0 -7 -9 -4 -21z"/>
<path d="M2457 3513 c-3 -5 5 -8 18 -8 13 0 21 3 18 8 -2 4 -10 7 -18 7 -8 0
-16 -3 -18 -7z"/>
<path d="M2597 3513 c-3 -5 5 -8 18 -8 13 0 21 3 18 8 -2 4 -10 7 -18 7 -8 0
-16 -3 -18 -7z"/>
<path d="M78 3503 c7 -3 16 -2 19 1 4 3 -2 6 -13 5 -11 0 -14 -3 -6 -6z"/>
<path d="M160 3500 c-9 -6 -10 -10 -3 -10 6 0 15 5 18 10 8 12 4 12 -15 0z"/>
<path d="M1413 3503 c9 -2 23 -2 30 0 6 3 -1 5 -18 5 -16 0 -22 -2 -12 -5z"/>
<path d="M2113 3503 c9 -2 23 -2 30 0 6 3 -1 5 -18 5 -16 0 -22 -2 -12 -5z"/>
<path d="M1407 3474 c3 -9 9 -11 12 -6 3 5 13 12 21 15 9 3 4 6 -12 6 -21 1
-26 -3 -21 -15z"/>
<path d="M2113 3483 c9 -2 23 -2 30 0 6 3 -1 5 -18 5 -16 0 -22 -2 -12 -5z"/>
<path d="M2248 3468 c5 -18 7 -19 10 -6 2 9 11 19 20 21 10 3 6 5 -10 6 -22 1
-25 -2 -20 -21z"/>
<path d="M1617 3468 c2 -5 10 -8 18 -8 8 0 16 3 18 8 3 4 -5 7 -18 7 -13 0
-21 -3 -18 -7z"/>
<path d="M1757 3468 c2 -5 10 -8 18 -8 8 0 16 3 18 8 3 4 -5 7 -18 7 -13 0
-21 -3 -18 -7z"/>
<path d="M1960 3468 c0 -5 11 -8 25 -8 14 0 25 3 25 8 0 4 -11 7 -25 7 -14 0
-25 -3 -25 -7z"/>
<path d="M2457 3468 c2 -5 10 -8 18 -8 8 0 16 3 18 8 3 4 -5 7 -18 7 -13 0
-21 -3 -18 -7z"/>
<path d="M2597 3468 c2 -5 10 -8 18 -8 8 0 16 3 18 8 3 4 -5 7 -18 7 -13 0
-21 -3 -18 -7z"/>
<path d="M1468 3463 c7 -3 16 -2 19 1 4 3 -2 6 -13 5 -11 0 -14 -3 -6 -6z"/>
<path d="M1828 3463 c6 -2 18 -2 25 0 6 3 1 5 -13 5 -14 0 -19 -2 -12 -5z"/>
<path d="M2308 3463 c7 -3 16 -2 19 1 4 3 -2 6 -13 5 -11 0 -14 -3 -6 -6z"/>
<path d="M2728 3463 c7 -3 16 -2 19 1 4 3 -2 6 -13 5 -11 0 -14 -3 -6 -6z"/>
<path d="M2668 3433 c12 -2 30 -2 40 0 9 3 -1 5 -23 4 -22 0 -30 -2 -17 -4z"/>
<path d="M1546 3361 c-4 -5 3 -7 14 -4 23 6 26 13 6 13 -8 0 -17 -4 -20 -9z"/>
<path d="M1628 3339 c3 -20 0 -34 -9 -40 -10 -6 -5 -8 16 -8 17 0 24 3 18 6
-7 2 -13 20 -13 39 0 19 -4 34 -8 34 -5 0 -6 -14 -4 -31z"/>
<path d="M1988 3363 c7 -3 16 -2 19 1 4 3 -2 6 -13 5 -11 0 -14 -3 -6 -6z"/>
<path d="M2818 3363 c7 -3 16 -2 19 1 4 3 -2 6 -13 5 -11 0 -14 -3 -6 -6z"/>
<path d="M1775 3341 l20 -8 -20 -5 c-16 -5 -17 -6 -2 -7 9 0 17 -6 17 -12 0
-6 -9 -9 -20 -6 -11 3 -20 1 -20 -5 0 -5 10 -8 22 -6 33 4 37 58 5 57 -21 0
-21 -1 -2 -8z"/>
<path d="M1845 3341 l20 -8 -20 -5 c-16 -5 -17 -6 -2 -7 9 0 17 -6 17 -12 0
-6 -9 -9 -20 -6 -11 3 -20 1 -20 -5 0 -5 10 -8 22 -6 33 4 37 58 5 57 -21 0
-21 -1 -2 -8z"/>
<path d="M1907 3329 c4 -12 0 -25 -8 -30 -10 -6 -5 -9 16 -8 17 0 24 3 18 6
-7 2 -13 16 -13 29 0 13 -4 24 -9 24 -5 0 -7 -9 -4 -21z"/>
<path d="M1973 3343 c9 -2 23 -2 30 0 6 3 -1 5 -18 5 -16 0 -22 -2 -12 -5z"/>
<path d="M2047 3329 c4 -12 0 -25 -8 -30 -10 -6 -5 -9 16 -8 17 0 24 3 18 6
-7 2 -13 16 -13 29 0 13 -4 24 -9 24 -5 0 -7 -9 -4 -21z"/>
<path d="M2107 3343 c-3 -5 5 -8 18 -8 13 0 21 3 18 8 -2 4 -10 7 -18 7 -8 0
-16 -3 -18 -7z"/>
<path d="M2247 3343 c-3 -5 5 -8 18 -8 13 0 21 3 18 8 -2 4 -10 7 -18 7 -8 0
-16 -3 -18 -7z"/>
<path d="M2387 3343 c-3 -5 5 -8 18 -8 13 0 21 3 18 8 -2 4 -10 7 -18 7 -8 0
-16 -3 -18 -7z"/>
<path d="M75 3330 c-3 -6 1 -7 9 -4 18 7 21 14 7 14 -6 0 -13 -4 -16 -10z"/>
<path d="M1483 3333 c9 -2 23 -2 30 0 6 3 -1 5 -18 5 -16 0 -22 -2 -12 -5z"/>
<path d="M2603 3333 c9 -2 23 -2 30 0 6 3 -1 5 -18 5 -16 0 -22 -2 -12 -5z"/>
<path d="M2810 3336 c0 -2 9 -6 20 -9 11 -3 18 -1 14 4 -5 9 -34 13 -34 5z"/>
<path d="M1686 3321 c-4 -5 3 -7 14 -4 23 6 26 13 6 13 -8 0 -17 -4 -20 -9z"/>
<path d="M2176 3321 c-4 -5 3 -7 14 -4 23 6 26 13 6 13 -8 0 -17 -4 -20 -9z"/>
<path d="M2316 3321 c-4 -5 3 -7 14 -4 23 6 26 13 6 13 -8 0 -17 -4 -20 -9z"/>
<path d="M1477 3304 c3 -9 9 -11 12 -6 3 5 13 12 21 15 9 3 4 6 -12 6 -21 1
-26 -3 -21 -15z"/>
<path d="M2603 3313 c9 -2 23 -2 30 0 6 3 -1 5 -18 5 -16 0 -22 -2 -12 -5z"/>
<path d="M1700 3300 c-12 -7 -10 -9 7 -7 12 0 19 5 17 9 -6 10 -6 10 -24 -2z"/>
<path d="M2108 3298 c5 -5 16 -8 23 -6 8 3 3 7 -10 11 -17 4 -21 3 -13 -5z"/>
<path d="M2190 3300 c-12 -7 -10 -9 7 -7 12 0 19 5 17 9 -6 10 -6 10 -24 -2z"/>
<path d="M2248 3298 c5 -5 16 -8 23 -6 8 3 3 7 -10 11 -17 4 -21 3 -13 -5z"/>
<path d="M2330 3300 c-12 -7 -10 -9 7 -7 12 0 19 5 17 9 -6 10 -6 10 -24 -2z"/>
<path d="M2387 3298 c2 -5 10 -8 18 -8 8 0 16 3 18 8 3 4 -5 7 -18 7 -13 0
-21 -3 -18 -7z"/>
<path d="M2807 3298 c2 -5 10 -8 18 -8 8 0 16 3 18 8 3 4 -5 7 -18 7 -13 0
-21 -3 -18 -7z"/>
<path d="M2880 3295 c0 -8 2 -15 4 -15 2 0 6 7 10 15 3 8 1 15 -4 15 -6 0 -10
-7 -10 -15z"/>
<path d="M1973 3293 c9 -2 23 -2 30 0 6 3 -1 5 -18 5 -16 0 -22 -2 -12 -5z"/>
<path d="M2743 3293 c9 -2 23 -2 30 0 6 3 -1 5 -18 5 -16 0 -22 -2 -12 -5z"/>
<path d="M1190 3160 c0 -37 2 -40 28 -39 23 2 24 2 5 6 -25 5 -31 28 -10 36
10 4 10 6 0 6 -7 1 -13 6 -13 12 0 6 9 9 20 6 11 -3 20 -1 20 4 0 5 -11 9 -25
9 -22 0 -25 -4 -25 -40z"/>
<path d="M1265 3160 c0 -36 2 -40 25 -39 19 1 20 3 7 6 -15 4 -18 12 -15 39 2
20 0 34 -7 34 -5 0 -10 -18 -10 -40z"/>
<path d="M1335 3190 c-9 -14 1 -27 25 -33 11 -3 18 -1 14 4 -3 5 -12 9 -20 9
-8 0 -14 5 -14 11 0 6 9 9 20 6 11 -3 20 -1 20 4 0 12 -37 11 -45 -1z"/>
<path d="M1408 3193 c6 -2 12 -17 12 -33 0 -16 -6 -31 -12 -33 -7 -3 1 -5 17
-5 17 0 24 2 18 5 -7 2 -13 17 -13 33 0 16 6 31 13 33 6 3 -1 5 -18 5 -16 0
-24 -2 -17 -5z"/>
<path d="M1475 3160 c0 -34 3 -40 20 -39 11 0 14 3 8 6 -7 2 -13 11 -13 19 0
9 5 12 10 9 6 -3 10 1 10 10 0 9 -4 13 -10 10 -5 -3 -10 -1 -10 6 0 6 8 9 20
6 11 -3 20 -1 20 4 0 5 -12 9 -27 9 -26 0 -28 -3 -28 -40z"/>
<path d="M1675 3190 c3 -5 8 -10 11 -10 2 0 4 5 4 10 0 6 -5 10 -11 10 -5 0
-7 -4 -4 -10z"/>
<path d="M1716 3184 c-5 -14 -4 -15 9 -4 17 14 19 20 6 20 -5 0 -12 -7 -15
-16z"/>
<path d="M1908 3169 c3 -20 0 -34 -9 -40 -10 -6 -5 -8 16 -8 17 0 24 3 18 6
-7 2 -13 20 -13 39 0 19 -4 34 -8 34 -5 0 -6 -14 -4 -31z"/>
<path d="M2048 3193 c26 -5 29 -20 5 -25 -15 -3 -15 -5 3 -10 17 -4 21 -1 20
16 -1 15 -8 21 -26 23 -22 1 -22 1 -2 -4z"/>
<path d="M2122 3168 c-1 -20 -8 -39 -14 -41 -7 -3 1 -6 17 -6 17 0 25 3 18 7
-6 4 -13 23 -16 42 l-4 35 -1 -37z"/>
<path d="M2175 3191 c-4 -7 0 -8 10 -4 10 3 21 0 27 -8 8 -12 9 -11 5 1 -5 18
-33 25 -42 11z"/>
<path d="M2476 3186 c3 -8 -2 -16 -13 -19 -12 -3 -10 -5 9 -6 21 -1 25 3 21
19 -3 11 -9 20 -14 20 -5 0 -6 -6 -3 -14z"/>
<path d="M2523 3178 c8 -13 18 -23 22 -23 4 0 14 10 23 23 8 12 10 22 4 22 -6
0 -14 -10 -18 -22 l-7 -23 -10 23 c-6 12 -14 22 -20 22 -5 0 -3 -10 6 -22z"/>
<path d="M2748 3169 c3 -20 0 -34 -9 -40 -10 -6 -5 -8 16 -8 17 0 24 3 18 6
-7 2 -13 20 -13 39 0 19 -4 34 -8 34 -5 0 -6 -14 -4 -31z"/>
<path d="M2945 3160 c0 -33 3 -40 20 -40 17 0 17 2 5 10 -13 9 -13 11 0 20 10
6 11 10 3 10 -20 0 -15 28 5 33 11 3 9 5 -8 6 -23 1 -25 -3 -25 -39z"/>
<path d="M3015 3160 c0 -36 2 -40 25 -39 19 1 20 3 7 6 -15 4 -18 12 -15 39 2
20 0 34 -7 34 -5 0 -10 -18 -10 -40z"/>
<path d="M3159 3191 c9 -6 12 -20 9 -40 -3 -19 0 -31 7 -31 7 0 10 12 7 31 -3
20 0 34 9 40 10 6 5 9 -16 9 -21 0 -26 -3 -16 -9z"/>
<path d="M3256 3186 c3 -8 -2 -16 -13 -19 -17 -4 -17 -5 1 -6 13 -1 17 -6 13
-21 -3 -11 -1 -20 4 -20 5 0 9 18 9 40 0 22 -4 40 -10 40 -5 0 -7 -6 -4 -14z"/>
<path d="M3290 3160 c0 -37 2 -40 28 -39 23 2 24 2 5 6 -25 5 -31 28 -10 36
10 4 10 6 0 6 -7 1 -13 6 -13 12 0 6 9 9 20 6 11 -3 20 -1 20 4 0 5 -11 9 -25
9 -22 0 -25 -4 -25 -40z"/>
<path d="M3355 3160 c0 -22 5 -40 10 -40 12 0 11 73 -1 77 -5 2 -9 -15 -9 -37z"/>
<path d="M3396 3164 c3 -50 11 -53 16 -5 2 24 -1 41 -7 41 -6 0 -10 -16 -9
-36z"/>
<path d="M1767 3159 c4 -12 0 -25 -8 -30 -10 -6 -5 -9 16 -8 17 0 24 3 18 6
-7 2 -13 16 -13 29 0 13 -4 24 -9 24 -5 0 -7 -9 -4 -21z"/>
<path d="M1827 3173 c-3 -5 5 -8 18 -8 13 0 21 3 18 8 -2 4 -10 7 -18 7 -8 0
-16 -3 -18 -7z"/>
<path d="M1967 3173 c-3 -5 5 -8 18 -8 13 0 21 3 18 8 -2 4 -10 7 -18 7 -8 0
-16 -3 -18 -7z"/>
<path d="M2607 3159 c4 -12 0 -25 -8 -30 -10 -6 -5 -9 16 -8 17 0 24 3 18 6
-7 2 -13 16 -13 29 0 13 -4 24 -9 24 -5 0 -7 -9 -4 -21z"/>
<path d="M2667 3173 c-3 -5 5 -8 18 -8 13 0 21 3 18 8 -2 4 -10 7 -18 7 -8 0
-16 -3 -18 -7z"/>
<path d="M2807 3173 c-3 -5 5 -8 18 -8 13 0 21 3 18 8 -2 4 -10 7 -18 7 -8 0
-16 -3 -18 -7z"/>
<path d="M75 3160 c-3 -6 1 -7 9 -4 18 7 21 14 7 14 -6 0 -13 -4 -16 -10z"/>
<path d="M1623 3163 c9 -2 23 -2 30 0 6 3 -1 5 -18 5 -16 0 -22 -2 -12 -5z"/>
<path d="M2323 3163 c9 -2 23 -2 30 0 6 3 -1 5 -18 5 -16 0 -22 -2 -12 -5z"/>
<path d="M1617 3134 c3 -9 9 -11 12 -6 3 5 13 12 21 15 9 3 4 6 -12 6 -21 1
-26 -3 -21 -15z"/>
<path d="M2323 3143 c9 -2 23 -2 30 0 6 3 -1 5 -18 5 -16 0 -22 -2 -12 -5z"/>
<path d="M2458 3128 c5 -18 7 -19 10 -6 2 9 11 19 20 21 10 3 6 5 -10 6 -22 1
-25 -2 -20 -21z"/>
<path d="M1330 3128 c0 -5 9 -8 19 -8 11 0 22 3 24 8 3 4 -6 7 -19 7 -13 0
-24 -3 -24 -7z"/>
<path d="M1827 3128 c2 -5 10 -8 18 -8 8 0 16 3 18 8 3 4 -5 7 -18 7 -13 0
-21 -3 -18 -7z"/>
<path d="M1967 3128 c2 -5 10 -8 18 -8 8 0 16 3 18 8 3 4 -5 7 -18 7 -13 0
-21 -3 -18 -7z"/>
<path d="M2170 3128 c0 -5 11 -8 25 -8 14 0 25 3 25 8 0 4 -11 7 -25 7 -14 0
-25 -3 -25 -7z"/>
<path d="M2667 3128 c2 -5 10 -8 18 -8 8 0 16 3 18 8 3 4 -5 7 -18 7 -13 0
-21 -3 -18 -7z"/>
<path d="M2807 3128 c2 -5 10 -8 18 -8 8 0 16 3 18 8 3 4 -5 7 -18 7 -13 0
-21 -3 -18 -7z"/>
<path d="M148 3123 c6 -2 18 -2 25 0 6 3 1 5 -13 5 -14 0 -19 -2 -12 -5z"/>
<path d="M1678 3123 c7 -3 16 -2 19 1 4 3 -2 6 -13 5 -11 0 -14 -3 -6 -6z"/>
<path d="M2038 3123 c6 -2 18 -2 25 0 6 3 1 5 -13 5 -14 0 -19 -2 -12 -5z"/>
<path d="M2518 3123 c7 -3 16 -2 19 1 4 3 -2 6 -13 5 -11 0 -14 -3 -6 -6z"/>
<path d="M2878 3093 c12 -2 30 -2 40 0 9 3 -1 5 -23 4 -22 0 -30 -2 -17 -4z"/>
<path d="M150 3026 c0 -2 7 -7 16 -10 8 -3 12 -2 9 4 -6 10 -25 14 -25 6z"/>
<path d="M1546 3021 c-4 -5 3 -7 14 -4 23 6 26 13 6 13 -8 0 -17 -4 -20 -9z"/>
<path d="M1628 2999 c3 -20 0 -34 -9 -40 -10 -6 -5 -8 16 -8 17 0 24 3 18 6
-7 2 -13 20 -13 39 0 19 -4 34 -8 34 -5 0 -6 -14 -4 -31z"/>
<path d="M1988 3023 c7 -3 16 -2 19 1 4 3 -2 6 -13 5 -11 0 -14 -3 -6 -6z"/>
<path d="M1775 3001 l20 -8 -20 -5 c-16 -5 -17 -6 -2 -7 9 0 17 -6 17 -12 0
-6 -9 -9 -20 -6 -11 3 -20 1 -20 -5 0 -5 10 -8 22 -6 33 4 37 58 5 57 -21 0
-21 -1 -2 -8z"/>
<path d="M1845 3001 l20 -8 -20 -5 c-16 -5 -17 -6 -2 -7 9 0 17 -6 17 -12 0
-6 -9 -9 -20 -6 -11 3 -20 1 -20 -5 0 -5 10 -8 22 -6 33 4 37 58 5 57 -21 0
-21 -1 -2 -8z"/>
<path d="M1907 2989 c4 -12 0 -25 -8 -30 -10 -6 -5 -9 16 -8 17 0 24 3 18 6
-7 2 -13 16 -13 29 0 13 -4 24 -9 24 -5 0 -7 -9 -4 -21z"/>
<path d="M1973 3003 c9 -2 23 -2 30 0 6 3 -1 5 -18 5 -16 0 -22 -2 -12 -5z"/>
<path d="M2047 2989 c4 -12 0 -25 -8 -30 -10 -6 -5 -9 16 -8 17 0 24 3 18 6
-7 2 -13 16 -13 29 0 13 -4 24 -9 24 -5 0 -7 -9 -4 -21z"/>
<path d="M2107 3003 c-3 -5 5 -8 18 -8 13 0 21 3 18 8 -2 4 -10 7 -18 7 -8 0
-16 -3 -18 -7z"/>
<path d="M2247 3003 c-3 -5 5 -8 18 -8 13 0 21 3 18 8 -2 4 -10 7 -18 7 -8 0
-16 -3 -18 -7z"/>
<path d="M2387 3003 c-3 -5 5 -8 18 -8 13 0 21 3 18 8 -2 4 -10 7 -18 7 -8 0
-16 -3 -18 -7z"/>
<path d="M75 2990 c-3 -6 1 -7 9 -4 18 7 21 14 7 14 -6 0 -13 -4 -16 -10z"/>
<path d="M1483 2993 c9 -2 23 -2 30 0 6 3 -1 5 -18 5 -16 0 -22 -2 -12 -5z"/>
<path d="M2603 2993 c9 -2 23 -2 30 0 6 3 -1 5 -18 5 -16 0 -22 -2 -12 -5z"/>
<path d="M1686 2981 c-4 -5 3 -7 14 -4 23 6 26 13 6 13 -8 0 -17 -4 -20 -9z"/>
<path d="M2176 2981 c-4 -5 3 -7 14 -4 23 6 26 13 6 13 -8 0 -17 -4 -20 -9z"/>
<path d="M2316 2981 c-4 -5 3 -7 14 -4 23 6 26 13 6 13 -8 0 -17 -4 -20 -9z"/>
<path d="M1477 2964 c3 -9 9 -11 12 -6 3 5 13 12 21 15 9 3 4 6 -12 6 -21 1
-26 -3 -21 -15z"/>
<path d="M2603 2973 c9 -2 23 -2 30 0 6 3 -1 5 -18 5 -16 0 -22 -2 -12 -5z"/>
<path d="M1700 2960 c-12 -7 -10 -9 7 -7 12 0 19 5 17 9 -6 10 -6 10 -24 -2z"/>
<path d="M2108 2958 c5 -5 16 -8 23 -6 8 3 3 7 -10 11 -17 4 -21 3 -13 -5z"/>
<path d="M2190 2960 c-12 -7 -10 -9 7 -7 12 0 19 5 17 9 -6 10 -6 10 -24 -2z"/>
<path d="M2248 2958 c5 -5 16 -8 23 -6 8 3 3 7 -10 11 -17 4 -21 3 -13 -5z"/>
<path d="M2330 2960 c-12 -7 -10 -9 7 -7 12 0 19 5 17 9 -6 10 -6 10 -24 -2z"/>
<path d="M2387 2958 c2 -5 10 -8 18 -8 8 0 16 3 18 8 3 4 -5 7 -18 7 -13 0
-21 -3 -18 -7z"/>
<path d="M2880 2955 c0 -8 2 -15 4 -15 2 0 6 7 10 15 3 8 1 15 -4 15 -6 0 -10
-7 -10 -15z"/>
<path d="M143 2953 c9 -2 23 -2 30 0 6 3 -1 5 -18 5 -16 0 -22 -2 -12 -5z"/>
<path d="M1973 2953 c9 -2 23 -2 30 0 6 3 -1 5 -18 5 -16 0 -22 -2 -12 -5z"/>
<path d="M2743 2953 c9 -2 23 -2 30 0 6 3 -1 5 -18 5 -16 0 -22 -2 -12 -5z"/>
<path d="M2813 2953 c9 -2 23 -2 30 0 6 3 -1 5 -18 5 -16 0 -22 -2 -12 -5z"/>
<path d="M1190 2820 c0 -37 2 -40 28 -39 23 2 24 2 5 6 -25 5 -31 28 -10 36
10 4 10 6 0 6 -7 1 -13 6 -13 12 0 6 9 9 20 6 11 -3 20 -1 20 4 0 5 -11 9 -25
9 -22 0 -25 -4 -25 -40z"/>
<path d="M1255 2820 c0 -22 5 -40 10 -40 12 0 11 73 -1 77 -5 2 -9 -15 -9 -37z"/>
<path d="M1296 2824 c3 -50 11 -53 16 -5 2 24 -1 41 -7 41 -6 0 -10 -16 -9
-36z"/>
<path d="M1330 2856 c0 -2 11 -6 25 -8 13 -3 22 -1 19 3 -5 9 -44 13 -44 5z"/>
<path d="M1478 2853 c6 -2 12 -17 12 -33 0 -16 -6 -31 -12 -33 -7 -3 1 -5 17
-5 17 0 24 2 18 5 -7 2 -13 17 -13 33 0 16 6 31 13 33 6 3 -1 5 -18 5 -16 0
-24 -2 -17 -5z"/>
<path d="M1545 2820 c0 -34 3 -40 20 -39 11 0 14 3 8 6 -7 2 -13 11 -13 19 0
9 5 12 10 9 6 -3 10 1 10 10 0 9 -4 13 -10 10 -5 -3 -10 -1 -10 6 0 6 8 9 20
6 11 -3 20 -1 20 4 0 5 -12 9 -27 9 -26 0 -28 -3 -28 -40z"/>
<path d="M75 2820 c-3 -6 1 -7 9 -4 18 7 21 14 7 14 -6 0 -13 -4 -16 -10z"/>
<path d="M160 2790 c-9 -6 -10 -10 -3 -10 6 0 15 5 18 10 8 12 4 12 -15 0z"/>
<path d="M1350 2790 c-23 -7 -23 -8 -3 -9 12 -1 25 4 28 9 3 6 5 10 3 9 -2 -1
-14 -5 -28 -9z"/>
<path d="M1620 2785 c0 -8 2 -15 4 -15 2 0 6 7 10 15 3 8 1 15 -4 15 -6 0 -10
-7 -10 -15z"/>
<path d="M1408 2753 c12 -2 30 -2 40 0 9 3 -1 5 -23 4 -22 0 -30 -2 -17 -4z"/>
<path d="M910 2650 c0 -37 2 -40 28 -39 23 2 24 2 5 6 -25 5 -31 28 -10 36 10
4 10 6 0 6 -7 1 -13 6 -13 12 0 6 9 9 20 6 11 -3 20 -1 20 4 0 5 -11 9 -25 9
-22 0 -25 -4 -25 -40z"/>
<path d="M975 2650 c0 -22 5 -40 10 -40 12 0 11 73 -1 77 -5 2 -9 -15 -9 -37z"/>
<path d="M1016 2654 c3 -50 11 -53 16 -5 2 24 -1 41 -7 41 -6 0 -10 -16 -9
-36z"/>
<path d="M1050 2686 c0 -2 11 -6 25 -8 13 -3 22 -1 19 3 -5 9 -44 13 -44 5z"/>
<path d="M1198 2683 c6 -2 12 -17 12 -33 0 -16 -6 -31 -12 -33 -7 -3 1 -5 17
-5 17 0 24 2 18 5 -7 2 -13 17 -13 33 0 16 6 31 13 33 6 3 -1 5 -18 5 -16 0
-24 -2 -17 -5z"/>
<path d="M1265 2650 c0 -34 3 -40 20 -39 11 0 14 3 8 6 -7 2 -13 11 -13 19 0
9 5 12 10 9 6 -3 10 1 10 10 0 9 -4 13 -10 10 -5 -3 -10 -1 -10 6 0 6 8 9 20
6 11 -3 20 -1 20 4 0 5 -12 9 -27 9 -26 0 -28 -3 -28 -40z"/>
<path d="M75 2650 c-3 -6 1 -7 9 -4 18 7 21 14 7 14 -6 0 -13 -4 -16 -10z"/>
<path d="M148 2633 c6 -2 18 -2 25 0 6 3 1 5 -13 5 -14 0 -19 -2 -12 -5z"/>
<path d="M1070 2620 c-23 -7 -23 -8 -3 -9 12 -1 25 4 28 9 3 6 5 10 3 9 -2 -1
-14 -5 -28 -9z"/>
<path d="M1340 2615 c0 -8 2 -15 4 -15 2 0 6 7 10 15 3 8 1 15 -4 15 -6 0 -10
-7 -10 -15z"/>
<path d="M1128 2583 c12 -2 30 -2 40 0 9 3 -1 5 -23 4 -22 0 -30 -2 -17 -4z"/>
<path d="M148 2513 c7 -3 16 -2 19 1 4 3 -2 6 -13 5 -11 0 -14 -3 -6 -6z"/>
<path d="M630 2480 c0 -37 2 -40 28 -39 23 2 24 2 5 6 -25 5 -31 28 -10 36 10
4 10 6 0 6 -7 1 -13 6 -13 12 0 6 9 9 20 6 11 -3 20 -1 20 4 0 5 -11 9 -25 9
-22 0 -25 -4 -25 -40z"/>
<path d="M695 2480 c0 -22 5 -40 10 -40 12 0 11 73 -1 77 -5 2 -9 -15 -9 -37z"/>
<path d="M736 2484 c3 -50 11 -53 16 -5 2 24 -1 41 -7 41 -6 0 -10 -16 -9 -36z"/>
<path d="M770 2516 c0 -2 11 -6 25 -8 13 -3 22 -1 19 3 -5 9 -44 13 -44 5z"/>
<path d="M918 2513 c6 -2 12 -17 12 -33 0 -16 -6 -31 -12 -33 -7 -3 1 -5 17
-5 17 0 24 2 18 5 -7 2 -13 17 -13 33 0 16 6 31 13 33 6 3 -1 5 -18 5 -16 0
-24 -2 -17 -5z"/>
<path d="M985 2480 c0 -34 3 -40 20 -39 11 0 14 3 8 6 -7 2 -13 11 -13 19 0 9
5 12 10 9 6 -3 10 1 10 10 0 9 -4 13 -10 10 -5 -3 -10 -1 -10 6 0 6 8 9 20 6
11 -3 20 -1 20 4 0 5 -12 9 -27 9 -26 0 -28 -3 -28 -40z"/>
<path d="M75 2480 c-3 -6 1 -7 9 -4 18 7 21 14 7 14 -6 0 -13 -4 -16 -10z"/>
<path d="M148 2483 c7 -3 16 -2 19 1 4 3 -2 6 -13 5 -11 0 -14 -3 -6 -6z"/>
<path d="M790 2450 c-23 -7 -23 -8 -3 -9 12 -1 25 4 28 9 3 6 5 10 3 9 -2 -1
-14 -5 -28 -9z"/>
<path d="M1060 2445 c0 -8 2 -15 4 -15 2 0 6 7 10 15 3 8 1 15 -4 15 -6 0 -10
-7 -10 -15z"/>
<path d="M848 2413 c12 -2 30 -2 40 0 9 3 -1 5 -23 4 -22 0 -30 -2 -17 -4z"/>
<path d="M918 2343 c6 -2 18 -2 25 0 6 3 1 5 -13 5 -14 0 -19 -2 -12 -5z"/>
<path d="M630 2326 c0 -2 7 -7 16 -10 8 -3 12 -2 9 4 -6 10 -25 14 -25 6z"/>
<path d="M980 2326 c0 -2 7 -7 16 -10 8 -3 12 -2 9 4 -6 10 -25 14 -25 6z"/>
<path d="M1068 2323 c7 -3 16 -2 19 1 4 3 -2 6 -13 5 -11 0 -14 -3 -6 -6z"/>
<path d="M1128 2323 c6 -2 18 -2 25 0 6 3 1 5 -13 5 -14 0 -19 -2 -12 -5z"/>
<path d="M75 2310 c-3 -6 1 -7 9 -4 18 7 21 14 7 14 -6 0 -13 -4 -16 -10z"/>
<path d="M145 2310 c-3 -6 1 -7 9 -4 18 7 21 14 7 14 -6 0 -13 -4 -16 -10z"/>
<path d="M928 2303 c7 -3 16 -2 19 1 4 3 -2 6 -13 5 -11 0 -14 -3 -6 -6z"/>
<path d="M1063 2303 c9 -2 23 -2 30 0 6 3 -1 5 -18 5 -16 0 -22 -2 -12 -5z"/>
<path d="M638 2273 c6 -2 18 -2 25 0 6 3 1 5 -13 5 -14 0 -19 -2 -12 -5z"/>
<path d="M918 2273 c7 -3 16 -2 19 1 4 3 -2 6 -13 5 -11 0 -14 -3 -6 -6z"/>
<path d="M988 2273 c6 -2 18 -2 25 0 6 3 1 5 -13 5 -14 0 -19 -2 -12 -5z"/>
<path d="M138 2173 c6 -2 18 -2 25 0 6 3 1 5 -13 5 -14 0 -19 -2 -12 -5z"/>
<path d="M350 2140 c0 -37 2 -40 28 -39 23 2 24 2 5 6 -25 5 -31 28 -10 36 10
4 10 6 0 6 -7 1 -13 6 -13 12 0 6 9 9 20 6 11 -3 20 -1 20 4 0 5 -11 9 -25 9
-22 0 -25 -4 -25 -40z"/>
<path d="M425 2140 c0 -36 2 -40 25 -39 19 1 20 3 7 6 -15 4 -18 12 -15 39 2
20 0 34 -7 34 -5 0 -10 -18 -10 -40z"/>
<path d="M495 2170 c-9 -14 1 -27 25 -33 11 -3 18 -1 14 4 -3 5 -12 9 -20 9
-8 0 -14 5 -14 11 0 6 9 9 20 6 11 -3 20 -1 20 4 0 12 -37 11 -45 -1z"/>
<path d="M560 2140 c0 -37 2 -40 28 -39 23 2 24 2 5 6 -25 5 -31 28 -10 36 10
4 10 6 0 6 -7 1 -13 6 -13 12 0 6 9 9 20 6 11 -3 20 -1 20 4 0 5 -11 9 -25 9
-22 0 -25 -4 -25 -40z"/>
<path d="M75 2140 c-3 -6 1 -7 9 -4 18 7 21 14 7 14 -6 0 -13 -4 -16 -10z"/>
<path d="M490 2108 c0 -5 9 -8 19 -8 11 0 22 3 24 8 3 4 -6 7 -19 7 -13 0 -24
-3 -24 -7z"/>
<path d="M638 2003 c6 -2 12 -17 12 -33 0 -16 -6 -31 -12 -33 -7 -3 1 -5 17
-5 17 0 24 2 18 5 -7 2 -13 17 -13 33 0 16 6 31 13 33 6 3 -1 5 -18 5 -16 0
-24 -2 -17 -5z"/>
<path d="M705 1970 c0 -34 3 -40 20 -39 11 0 14 3 8 6 -7 2 -13 11 -13 19 0 9
5 12 10 9 6 -3 10 1 10 10 0 9 -4 13 -10 10 -5 -3 -10 -1 -10 6 0 6 8 9 20 6
11 -3 20 -1 20 4 0 5 -12 9 -27 9 -26 0 -28 -3 -28 -40z"/>
<path d="M916 2001 c-4 -5 3 -7 14 -4 23 6 26 13 6 13 -8 0 -17 -4 -20 -9z"/>
<path d="M1278 2003 c26 -5 29 -20 5 -25 -15 -3 -15 -5 3 -10 17 -4 21 -1 20
16 -1 15 -8 21 -26 23 -22 1 -22 1 -2 -4z"/>
<path d="M1352 1978 c-1 -20 -8 -39 -14 -41 -7 -3 1 -6 17 -6 17 0 25 3 18 7
-6 4 -13 23 -16 42 l-4 35 -1 -37z"/>
<path d="M1706 1996 c3 -8 -2 -16 -13 -19 -12 -3 -10 -5 9 -6 21 -1 25 3 21
19 -3 11 -9 20 -14 20 -5 0 -6 -6 -3 -14z"/>
<path d="M1756 2001 c-4 -5 3 -7 14 -4 23 6 26 13 6 13 -8 0 -17 -4 -20 -9z"/>
<path d="M2175 1970 c0 -33 3 -40 20 -40 17 0 17 2 5 10 -13 9 -13 11 0 20 10
6 11 10 3 10 -20 0 -15 28 5 33 11 3 9 5 -8 6 -23 1 -25 -3 -25 -39z"/>
<path d="M2319 2001 c9 -6 12 -20 9 -40 -3 -19 0 -31 7 -31 7 0 10 12 7 31 -3
20 0 34 9 40 10 6 5 9 -16 9 -21 0 -26 -3 -16 -9z"/>
<path d="M2416 1996 c3 -8 -2 -16 -13 -19 -17 -4 -17 -5 1 -6 13 -1 17 -6 13
-21 -3 -11 -1 -20 4 -20 5 0 9 18 9 40 0 22 -4 40 -10 40 -5 0 -7 -6 -4 -14z"/>
<path d="M2450 1970 c0 -37 2 -40 28 -39 23 2 24 2 5 6 -25 5 -31 28 -10 36
10 4 10 6 0 6 -7 1 -13 6 -13 12 0 6 9 9 20 6 11 -3 20 -1 20 4 0 5 -11 9 -25
9 -22 0 -25 -4 -25 -40z"/>
<path d="M2515 1970 c0 -22 5 -40 10 -40 12 0 11 73 -1 77 -5 2 -9 -15 -9 -37z"/>
<path d="M2556 1974 c3 -50 11 -53 16 -5 2 24 -1 41 -7 41 -6 0 -10 -16 -9
-36z"/>
<path d="M987 1983 c-3 -5 5 -8 18 -8 13 0 21 3 18 8 -2 4 -10 7 -18 7 -8 0
-16 -3 -18 -7z"/>
<path d="M1050 1985 c0 -8 29 -12 39 -5 9 5 4 8 -13 8 -14 0 -26 -2 -26 -3z"/>
<path d="M1115 1950 c0 -22 5 -40 10 -40 6 0 9 17 7 40 -2 22 -7 40 -11 40 -3
0 -6 -18 -6 -40z"/>
<path d="M1197 1983 c-3 -5 5 -8 18 -8 13 0 21 3 18 8 -2 4 -10 7 -18 7 -8 0
-16 -3 -18 -7z"/>
<path d="M1827 1983 c-3 -5 5 -8 18 -8 13 0 21 3 18 8 -2 4 -10 7 -18 7 -8 0
-16 -3 -18 -7z"/>
<path d="M1890 1985 c0 -8 29 -12 39 -5 9 5 4 8 -13 8 -14 0 -26 -2 -26 -3z"/>
<path d="M1955 1950 c0 -22 5 -40 10 -40 6 0 9 17 7 40 -2 22 -7 40 -11 40 -3
0 -6 -18 -6 -40z"/>
<path d="M2037 1983 c-3 -5 5 -8 18 -8 13 0 21 3 18 8 -2 4 -10 7 -18 7 -8 0
-16 -3 -18 -7z"/>
<path d="M75 1970 c-3 -6 1 -7 9 -4 18 7 21 14 7 14 -6 0 -13 -4 -16 -10z"/>
<path d="M853 1973 c9 -2 23 -2 30 0 6 3 -1 5 -18 5 -16 0 -22 -2 -12 -5z"/>
<path d="M1553 1973 c9 -2 23 -2 30 0 6 3 -1 5 -18 5 -16 0 -22 -2 -12 -5z"/>
<path d="M847 1944 c3 -9 9 -11 12 -6 3 5 13 12 21 15 9 3 4 6 -12 6 -21 1
-26 -3 -21 -15z"/>
<path d="M1440 1951 c0 -8 -8 -11 -20 -8 -11 3 -18 1 -14 -4 3 -5 11 -9 19 -9
16 0 30 18 21 27 -3 4 -6 1 -6 -6z"/>
<path d="M1553 1953 c9 -2 23 -2 30 0 6 3 -1 5 -18 5 -16 0 -22 -2 -12 -5z"/>
<path d="M1688 1938 c5 -18 7 -19 10 -6 2 9 11 19 20 21 10 3 6 5 -10 6 -22 1
-25 -2 -20 -21z"/>
<path d="M987 1938 c2 -5 10 -8 18 -8 8 0 16 3 18 8 3 4 -5 7 -18 7 -13 0 -21
-3 -18 -7z"/>
<path d="M1197 1938 c2 -5 10 -8 18 -8 8 0 16 3 18 8 3 4 -5 7 -18 7 -13 0
-21 -3 -18 -7z"/>
<path d="M1758 1938 c5 -5 16 -8 23 -6 8 3 3 7 -10 11 -17 4 -21 3 -13 -5z"/>
<path d="M1827 1938 c2 -5 10 -8 18 -8 8 0 16 3 18 8 3 4 -5 7 -18 7 -13 0
-21 -3 -18 -7z"/>
<path d="M2037 1938 c2 -5 10 -8 18 -8 8 0 16 3 18 8 3 4 -5 7 -18 7 -13 0
-21 -3 -18 -7z"/>
<path d="M1058 1933 c6 -2 18 -2 25 0 6 3 1 5 -13 5 -14 0 -19 -2 -12 -5z"/>
<path d="M1268 1933 c6 -2 18 -2 25 0 6 3 1 5 -13 5 -14 0 -19 -2 -12 -5z"/>
<path d="M1898 1933 c6 -2 18 -2 25 0 6 3 1 5 -13 5 -14 0 -19 -2 -12 -5z"/>
<path d="M2108 1903 c12 -2 30 -2 40 0 9 3 -1 5 -23 4 -22 0 -30 -2 -17 -4z"/>
<path d="M918 1833 c6 -2 12 -17 12 -33 0 -16 -6 -31 -12 -33 -7 -3 1 -5 17
-5 17 0 24 2 18 5 -7 2 -13 17 -13 33 0 16 6 31 13 33 6 3 -1 5 -18 5 -16 0
-24 -2 -17 -5z"/>
<path d="M985 1800 c0 -34 3 -40 20 -39 11 0 14 3 8 6 -7 2 -13 11 -13 19 0 9
5 12 10 9 6 -3 10 1 10 10 0 9 -4 13 -10 10 -5 -3 -10 -1 -10 6 0 6 8 9 20 6
11 -3 20 -1 20 4 0 5 -12 9 -27 9 -26 0 -28 -3 -28 -40z"/>
<path d="M1185 1830 c3 -5 8 -10 11 -10 2 0 4 5 4 10 0 6 -5 10 -11 10 -5 0
-7 -4 -4 -10z"/>
<path d="M1226 1824 c-5 -14 -4 -15 9 -4 17 14 19 20 6 20 -5 0 -12 -7 -15
-16z"/>
<path d="M1418 1809 c3 -20 0 -34 -9 -40 -10 -6 -5 -8 16 -8 17 0 24 3 18 6
-7 2 -13 20 -13 39 0 19 -4 34 -8 34 -5 0 -6 -14 -4 -31z"/>
<path d="M1558 1833 c26 -5 29 -20 5 -25 -15 -3 -15 -5 3 -10 17 -4 21 -1 20
16 -1 15 -8 21 -26 23 -22 1 -22 1 -2 -4z"/>
<path d="M1632 1808 c-1 -20 -8 -39 -14 -41 -7 -3 1 -6 17 -6 17 0 25 3 18 7
-6 4 -13 23 -16 42 l-4 35 -1 -37z"/>
<path d="M1986 1826 c3 -8 -2 -16 -13 -19 -12 -3 -10 -5 9 -6 21 -1 25 3 21
19 -3 11 -9 20 -14 20 -5 0 -6 -6 -3 -14z"/>
<path d="M2033 1818 c8 -13 18 -23 22 -23 4 0 14 10 23 23 8 12 10 22 4 22 -6
0 -14 -10 -18 -22 l-7 -23 -10 23 c-6 12 -14 22 -20 22 -5 0 -3 -10 6 -22z"/>
<path d="M2258 1809 c3 -20 0 -34 -9 -40 -10 -6 -5 -8 16 -8 17 0 24 3 18 6
-7 2 -13 20 -13 39 0 19 -4 34 -8 34 -5 0 -6 -14 -4 -31z"/>
<path d="M2455 1800 c0 -33 3 -40 20 -40 17 0 17 2 5 10 -13 9 -13 11 0 20 10
6 11 10 3 10 -20 0 -15 28 5 33 11 3 9 5 -8 6 -23 1 -25 -3 -25 -39z"/>
<path d="M2599 1831 c9 -6 12 -20 9 -40 -3 -19 0 -31 7 -31 7 0 10 12 7 31 -3
20 0 34 9 40 10 6 5 9 -16 9 -21 0 -26 -3 -16 -9z"/>
<path d="M2696 1826 c3 -8 -2 -16 -13 -19 -17 -4 -17 -5 1 -6 13 -1 17 -6 13
-21 -3 -11 -1 -20 4 -20 5 0 9 18 9 40 0 22 -4 40 -10 40 -5 0 -7 -6 -4 -14z"/>
<path d="M2730 1800 c0 -37 2 -40 28 -39 23 2 24 2 5 6 -25 5 -31 28 -10 36
10 4 10 6 0 6 -7 1 -13 6 -13 12 0 6 9 9 20 6 11 -3 20 -1 20 4 0 5 -11 9 -25
9 -22 0 -25 -4 -25 -40z"/>
<path d="M2795 1800 c0 -22 5 -40 10 -40 12 0 11 73 -1 77 -5 2 -9 -15 -9 -37z"/>
<path d="M2836 1804 c3 -50 11 -53 16 -5 2 24 -1 41 -7 41 -6 0 -10 -16 -9
-36z"/>
<path d="M1277 1799 c4 -12 0 -25 -8 -30 -10 -6 -5 -9 16 -8 17 0 24 3 18 6
-7 2 -13 16 -13 29 0 13 -4 24 -9 24 -5 0 -7 -9 -4 -21z"/>
<path d="M1337 1813 c-3 -5 5 -8 18 -8 13 0 21 3 18 8 -2 4 -10 7 -18 7 -8 0
-16 -3 -18 -7z"/>
<path d="M1477 1813 c-3 -5 5 -8 18 -8 13 0 21 3 18 8 -2 4 -10 7 -18 7 -8 0
-16 -3 -18 -7z"/>
<path d="M2117 1799 c4 -12 0 -25 -8 -30 -10 -6 -5 -9 16 -8 17 0 24 3 18 6
-7 2 -13 16 -13 29 0 13 -4 24 -9 24 -5 0 -7 -9 -4 -21z"/>
<path d="M2177 1813 c-3 -5 5 -8 18 -8 13 0 21 3 18 8 -2 4 -10 7 -18 7 -8 0
-16 -3 -18 -7z"/>
<path d="M2317 1813 c-3 -5 5 -8 18 -8 13 0 21 3 18 8 -2 4 -10 7 -18 7 -8 0
-16 -3 -18 -7z"/>
<path d="M75 1800 c-3 -6 1 -7 9 -4 18 7 21 14 7 14 -6 0 -13 -4 -16 -10z"/>
<path d="M160 1800 c-9 -6 -10 -10 -3 -10 6 0 15 5 18 10 8 12 4 12 -15 0z"/>
<path d="M1133 1803 c9 -2 23 -2 30 0 6 3 -1 5 -18 5 -16 0 -22 -2 -12 -5z"/>
<path d="M1833 1803 c9 -2 23 -2 30 0 6 3 -1 5 -18 5 -16 0 -22 -2 -12 -5z"/>
<path d="M1127 1774 c3 -9 9 -11 12 -6 3 5 13 12 21 15 9 3 4 6 -12 6 -21 1
-26 -3 -21 -15z"/>
<path d="M1720 1781 c0 -8 -8 -11 -20 -8 -11 3 -18 1 -14 -4 3 -5 11 -9 19 -9
16 0 30 18 21 27 -3 4 -6 1 -6 -6z"/>
<path d="M1833 1783 c9 -2 23 -2 30 0 6 3 -1 5 -18 5 -16 0 -22 -2 -12 -5z"/>
<path d="M1968 1768 c5 -18 7 -19 10 -6 2 9 11 19 20 21 10 3 6 5 -10 6 -22 1
-25 -2 -20 -21z"/>
<path d="M1337 1768 c2 -5 10 -8 18 -8 8 0 16 3 18 8 3 4 -5 7 -18 7 -13 0
-21 -3 -18 -7z"/>
<path d="M1477 1768 c2 -5 10 -8 18 -8 8 0 16 3 18 8 3 4 -5 7 -18 7 -13 0
-21 -3 -18 -7z"/>
<path d="M2177 1768 c2 -5 10 -8 18 -8 8 0 16 3 18 8 3 4 -5 7 -18 7 -13 0
-21 -3 -18 -7z"/>
<path d="M2317 1768 c2 -5 10 -8 18 -8 8 0 16 3 18 8 3 4 -5 7 -18 7 -13 0
-21 -3 -18 -7z"/>
<path d="M1188 1763 c7 -3 16 -2 19 1 4 3 -2 6 -13 5 -11 0 -14 -3 -6 -6z"/>
<path d="M1548 1763 c6 -2 18 -2 25 0 6 3 1 5 -13 5 -14 0 -19 -2 -12 -5z"/>
<path d="M2028 1763 c7 -3 16 -2 19 1 4 3 -2 6 -13 5 -11 0 -14 -3 -6 -6z"/>
<path d="M2388 1733 c12 -2 30 -2 40 0 9 3 -1 5 -23 4 -22 0 -30 -2 -17 -4z"/>
<path d="M68 1663 c6 -2 18 -2 25 0 6 3 1 5 -13 5 -14 0 -19 -2 -12 -5z"/>
<path d="M1266 1661 c-4 -5 3 -7 14 -4 23 6 26 13 6 13 -8 0 -17 -4 -20 -9z"/>
<path d="M1348 1639 c3 -20 0 -34 -9 -40 -10 -6 -5 -8 16 -8 17 0 24 3 18 6
-7 2 -13 20 -13 39 0 19 -4 34 -8 34 -5 0 -6 -14 -4 -31z"/>
<path d="M1708 1663 c7 -3 16 -2 19 1 4 3 -2 6 -13 5 -11 0 -14 -3 -6 -6z"/>
<path d="M1495 1641 l20 -8 -20 -5 c-16 -5 -17 -6 -2 -7 9 0 17 -6 17 -12 0
-6 -9 -9 -20 -6 -11 3 -20 1 -20 -5 0 -5 10 -8 22 -6 33 4 37 58 5 57 -21 0
-21 -1 -2 -8z"/>
<path d="M1565 1641 l20 -8 -20 -5 c-16 -5 -17 -6 -2 -7 9 0 17 -6 17 -12 0
-6 -9 -9 -20 -6 -11 3 -20 1 -20 -5 0 -5 10 -8 22 -6 33 4 37 58 5 57 -21 0
-21 -1 -2 -8z"/>
<path d="M1627 1629 c4 -12 0 -25 -8 -30 -10 -6 -5 -9 16 -8 17 0 24 3 18 6
-7 2 -13 16 -13 29 0 13 -4 24 -9 24 -5 0 -7 -9 -4 -21z"/>
<path d="M1693 1643 c9 -2 23 -2 30 0 6 3 -1 5 -18 5 -16 0 -22 -2 -12 -5z"/>
<path d="M1767 1629 c4 -12 0 -25 -8 -30 -10 -6 -5 -9 16 -8 17 0 24 3 18 6
-7 2 -13 16 -13 29 0 13 -4 24 -9 24 -5 0 -7 -9 -4 -21z"/>
<path d="M1827 1643 c-3 -5 5 -8 18 -8 13 0 21 3 18 8 -2 4 -10 7 -18 7 -8 0
-16 -3 -18 -7z"/>
<path d="M1967 1643 c-3 -5 5 -8 18 -8 13 0 21 3 18 8 -2 4 -10 7 -18 7 -8 0
-16 -3 -18 -7z"/>
<path d="M2107 1643 c-3 -5 5 -8 18 -8 13 0 21 3 18 8 -2 4 -10 7 -18 7 -8 0
-16 -3 -18 -7z"/>
<path d="M1203 1633 c9 -2 23 -2 30 0 6 3 -1 5 -18 5 -16 0 -22 -2 -12 -5z"/>
<path d="M2323 1633 c9 -2 23 -2 30 0 6 3 -1 5 -18 5 -16 0 -22 -2 -12 -5z"/>
<path d="M1406 1621 c-4 -5 3 -7 14 -4 23 6 26 13 6 13 -8 0 -17 -4 -20 -9z"/>
<path d="M1896 1621 c-4 -5 3 -7 14 -4 23 6 26 13 6 13 -8 0 -17 -4 -20 -9z"/>
<path d="M2036 1621 c-4 -5 3 -7 14 -4 23 6 26 13 6 13 -8 0 -17 -4 -20 -9z"/>
<path d="M1197 1604 c3 -9 9 -11 12 -6 3 5 13 12 21 15 9 3 4 6 -12 6 -21 1
-26 -3 -21 -15z"/>
<path d="M2323 1613 c9 -2 23 -2 30 0 6 3 -1 5 -18 5 -16 0 -22 -2 -12 -5z"/>
<path d="M1420 1600 c-12 -7 -10 -9 7 -7 12 0 19 5 17 9 -6 10 -6 10 -24 -2z"/>
<path d="M1828 1598 c5 -5 16 -8 23 -6 8 3 3 7 -10 11 -17 4 -21 3 -13 -5z"/>
<path d="M1910 1600 c-12 -7 -10 -9 7 -7 12 0 19 5 17 9 -6 10 -6 10 -24 -2z"/>
<path d="M1968 1598 c5 -5 16 -8 23 -6 8 3 3 7 -10 11 -17 4 -21 3 -13 -5z"/>
<path d="M2050 1600 c-12 -7 -10 -9 7 -7 12 0 19 5 17 9 -6 10 -6 10 -24 -2z"/>
<path d="M2107 1598 c2 -5 10 -8 18 -8 8 0 16 3 18 8 3 4 -5 7 -18 7 -13 0
-21 -3 -18 -7z"/>
<path d="M2530 1595 c0 -8 2 -15 4 -15 2 0 6 7 10 15 3 8 1 15 -4 15 -6 0 -10
-7 -10 -15z"/>
<path d="M1693 1593 c9 -2 23 -2 30 0 6 3 -1 5 -18 5 -16 0 -22 -2 -12 -5z"/>
<path d="M2463 1593 c9 -2 23 -2 30 0 6 3 -1 5 -18 5 -16 0 -22 -2 -12 -5z"/>
<path d="M68 1493 c6 -2 18 -2 25 0 6 3 1 5 -13 5 -14 0 -19 -2 -12 -5z"/>
<path d="M910 1460 c0 -37 2 -40 28 -39 23 2 24 2 5 6 -25 5 -31 28 -10 36 10
4 10 6 0 6 -7 1 -13 6 -13 12 0 6 9 9 20 6 11 -3 20 -1 20 4 0 5 -11 9 -25 9
-22 0 -25 -4 -25 -40z"/>
<path d="M985 1460 c0 -36 2 -40 25 -39 19 1 20 3 7 6 -15 4 -18 12 -15 39 2
20 0 34 -7 34 -5 0 -10 -18 -10 -40z"/>
<path d="M1055 1490 c-9 -14 1 -27 25 -33 11 -3 18 -1 14 4 -3 5 -12 9 -20 9
-8 0 -14 5 -14 11 0 6 9 9 20 6 11 -3 20 -1 20 4 0 12 -37 11 -45 -1z"/>
<path d="M1128 1493 c6 -2 12 -17 12 -33 0 -16 -6 -31 -12 -33 -7 -3 1 -5 17
-5 17 0 24 2 18 5 -7 2 -13 17 -13 33 0 16 6 31 13 33 6 3 -1 5 -18 5 -16 0
-24 -2 -17 -5z"/>
<path d="M1195 1460 c0 -34 3 -40 20 -39 11 0 14 3 8 6 -7 2 -13 11 -13 19 0
9 5 12 10 9 6 -3 10 1 10 10 0 9 -4 13 -10 10 -5 -3 -10 -1 -10 6 0 6 8 9 20
6 11 -3 20 -1 20 4 0 5 -12 9 -27 9 -26 0 -28 -3 -28 -40z"/>
<path d="M1395 1490 c3 -5 8 -10 11 -10 2 0 4 5 4 10 0 6 -5 10 -11 10 -5 0
-7 -4 -4 -10z"/>
<path d="M1436 1484 c-5 -14 -4 -15 9 -4 17 14 19 20 6 20 -5 0 -12 -7 -15
-16z"/>
<path d="M1628 1469 c3 -20 0 -34 -9 -40 -10 -6 -5 -8 16 -8 17 0 24 3 18 6
-7 2 -13 20 -13 39 0 19 -4 34 -8 34 -5 0 -6 -14 -4 -31z"/>
<path d="M1768 1493 c26 -5 29 -20 5 -25 -15 -3 -15 -5 3 -10 17 -4 21 -1 20
16 -1 15 -8 21 -26 23 -22 1 -22 1 -2 -4z"/>
<path d="M1842 1468 c-1 -20 -8 -39 -14 -41 -7 -3 1 -6 17 -6 17 0 25 3 18 7
-6 4 -13 23 -16 42 l-4 35 -1 -37z"/>
<path d="M2196 1486 c3 -8 -2 -16 -13 -19 -12 -3 -10 -5 9 -6 21 -1 25 3 21
19 -3 11 -9 20 -14 20 -5 0 -6 -6 -3 -14z"/>
<path d="M2243 1478 c8 -13 18 -23 22 -23 4 0 14 10 23 23 8 12 10 22 4 22 -6
0 -14 -10 -18 -22 l-7 -23 -10 23 c-6 12 -14 22 -20 22 -5 0 -3 -10 6 -22z"/>
<path d="M2468 1469 c3 -20 0 -34 -9 -40 -10 -6 -5 -8 16 -8 17 0 24 3 18 6
-7 2 -13 20 -13 39 0 19 -4 34 -8 34 -5 0 -6 -14 -4 -31z"/>
<path d="M2678 1493 c26 -5 29 -20 5 -25 -15 -3 -15 -5 3 -10 17 -4 21 -1 20
16 -1 15 -8 21 -26 23 -22 1 -22 1 -2 -4z"/>
<path d="M2809 1491 c9 -6 12 -20 9 -40 -3 -19 0 -31 7 -31 7 0 10 12 7 31 -3
20 0 34 9 40 10 6 5 9 -16 9 -21 0 -26 -3 -16 -9z"/>
<path d="M2906 1486 c3 -8 -2 -16 -13 -19 -17 -4 -17 -5 1 -6 13 -1 17 -6 13
-21 -3 -11 -1 -20 4 -20 5 0 9 18 9 40 0 22 -4 40 -10 40 -5 0 -7 -6 -4 -14z"/>
<path d="M2940 1460 c0 -37 2 -40 28 -39 23 2 24 2 5 6 -25 5 -31 28 -10 36
10 4 10 6 0 6 -7 1 -13 6 -13 12 0 6 9 9 20 6 11 -3 20 -1 20 4 0 5 -11 9 -25
9 -22 0 -25 -4 -25 -40z"/>
<path d="M3005 1460 c0 -22 5 -40 10 -40 12 0 11 73 -1 77 -5 2 -9 -15 -9 -37z"/>
<path d="M3046 1464 c3 -50 11 -53 16 -5 2 24 -1 41 -7 41 -6 0 -10 -16 -9
-36z"/>
<path d="M1487 1459 c4 -12 0 -25 -8 -30 -10 -6 -5 -9 16 -8 17 0 24 3 18 6
-7 2 -13 16 -13 29 0 13 -4 24 -9 24 -5 0 -7 -9 -4 -21z"/>
<path d="M1547 1473 c-3 -5 5 -8 18 -8 13 0 21 3 18 8 -2 4 -10 7 -18 7 -8 0
-16 -3 -18 -7z"/>
<path d="M1687 1473 c-3 -5 5 -8 18 -8 13 0 21 3 18 8 -2 4 -10 7 -18 7 -8 0
-16 -3 -18 -7z"/>
<path d="M2327 1459 c4 -12 0 -25 -8 -30 -10 -6 -5 -9 16 -8 17 0 24 3 18 6
-7 2 -13 16 -13 29 0 13 -4 24 -9 24 -5 0 -7 -9 -4 -21z"/>
<path d="M2387 1473 c-3 -5 5 -8 18 -8 13 0 21 3 18 8 -2 4 -10 7 -18 7 -8 0
-16 -3 -18 -7z"/>
<path d="M2527 1473 c-3 -5 5 -8 18 -8 13 0 21 3 18 8 -2 4 -10 7 -18 7 -8 0
-16 -3 -18 -7z"/>
<path d="M1343 1463 c9 -2 23 -2 30 0 6 3 -1 5 -18 5 -16 0 -22 -2 -12 -5z"/>
<path d="M2043 1463 c9 -2 23 -2 30 0 6 3 -1 5 -18 5 -16 0 -22 -2 -12 -5z"/>
<path d="M1337 1434 c3 -9 9 -11 12 -6 3 5 13 12 21 15 9 3 4 6 -12 6 -21 1
-26 -3 -21 -15z"/>
<path d="M1930 1441 c0 -8 -8 -11 -20 -8 -11 3 -18 1 -14 -4 3 -5 11 -9 19 -9
16 0 30 18 21 27 -3 4 -6 1 -6 -6z"/>
<path d="M2043 1443 c9 -2 23 -2 30 0 6 3 -1 5 -18 5 -16 0 -22 -2 -12 -5z"/>
<path d="M2178 1428 c5 -18 7 -19 10 -6 2 9 11 19 20 21 10 3 6 5 -10 6 -22 1
-25 -2 -20 -21z"/>
<path d="M1050 1428 c0 -5 9 -8 19 -8 11 0 22 3 24 8 3 4 -6 7 -19 7 -13 0
-24 -3 -24 -7z"/>
<path d="M1547 1428 c2 -5 10 -8 18 -8 8 0 16 3 18 8 3 4 -5 7 -18 7 -13 0
-21 -3 -18 -7z"/>
<path d="M1687 1428 c2 -5 10 -8 18 -8 8 0 16 3 18 8 3 4 -5 7 -18 7 -13 0
-21 -3 -18 -7z"/>
<path d="M2387 1428 c2 -5 10 -8 18 -8 8 0 16 3 18 8 3 4 -5 7 -18 7 -13 0
-21 -3 -18 -7z"/>
<path d="M2527 1428 c2 -5 10 -8 18 -8 8 0 16 3 18 8 3 4 -5 7 -18 7 -13 0
-21 -3 -18 -7z"/>
<path d="M2680 1430 l-25 -8 28 -1 c15 -1 27 4 27 9 0 6 -1 10 -2 9 -2 -1 -14
-5 -28 -9z"/>
<path d="M148 1423 c6 -2 18 -2 25 0 6 3 1 5 -13 5 -14 0 -19 -2 -12 -5z"/>
<path d="M1398 1423 c7 -3 16 -2 19 1 4 3 -2 6 -13 5 -11 0 -14 -3 -6 -6z"/>
<path d="M1758 1423 c6 -2 18 -2 25 0 6 3 1 5 -13 5 -14 0 -19 -2 -12 -5z"/>
<path d="M2238 1423 c7 -3 16 -2 19 1 4 3 -2 6 -13 5 -11 0 -14 -3 -6 -6z"/>
<path d="M2598 1393 c12 -2 30 -2 40 0 9 3 -1 5 -23 4 -22 0 -30 -2 -17 -4z"/>
<path d="M68 1323 c6 -2 18 -2 25 0 6 3 1 5 -13 5 -14 0 -19 -2 -12 -5z"/>
<path d="M150 1326 c0 -2 7 -7 16 -10 8 -3 12 -2 9 4 -6 10 -25 14 -25 6z"/>
<path d="M1198 1323 c6 -2 12 -17 12 -33 0 -16 -6 -31 -12 -33 -7 -3 1 -5 17
-5 17 0 24 2 18 5 -7 2 -13 17 -13 33 0 16 6 31 13 33 6 3 -1 5 -18 5 -16 0
-24 -2 -17 -5z"/>
<path d="M1265 1290 c0 -34 3 -40 20 -39 11 0 14 3 8 6 -7 2 -13 11 -13 19 0
9 5 12 10 9 6 -3 10 1 10 10 0 9 -4 13 -10 10 -5 -3 -10 -1 -10 6 0 6 8 9 20
6 11 -3 20 -1 20 4 0 5 -12 9 -27 9 -26 0 -28 -3 -28 -40z"/>
<path d="M1465 1320 c3 -5 8 -10 11 -10 2 0 4 5 4 10 0 6 -5 10 -11 10 -5 0
-7 -4 -4 -10z"/>
<path d="M1506 1314 c-5 -14 -4 -15 9 -4 17 14 19 20 6 20 -5 0 -12 -7 -15
-16z"/>
<path d="M1698 1299 c3 -20 0 -34 -9 -40 -10 -6 -5 -8 16 -8 17 0 24 3 18 6
-7 2 -13 20 -13 39 0 19 -4 34 -8 34 -5 0 -6 -14 -4 -31z"/>
<path d="M1838 1323 c26 -5 29 -20 5 -25 -15 -3 -15 -5 3 -10 17 -4 21 -1 20
16 -1 15 -8 21 -26 23 -22 1 -22 1 -2 -4z"/>
<path d="M1912 1298 c-1 -20 -8 -39 -14 -41 -7 -3 1 -6 17 -6 17 0 25 3 18 7
-6 4 -13 23 -16 42 l-4 35 -1 -37z"/>
<path d="M1965 1321 c-4 -7 0 -8 10 -4 10 3 21 0 27 -8 8 -12 9 -11 5 1 -5 18
-33 25 -42 11z"/>
<path d="M2266 1316 c3 -8 -2 -16 -13 -19 -12 -3 -10 -5 9 -6 21 -1 25 3 21
19 -3 11 -9 20 -14 20 -5 0 -6 -6 -3 -14z"/>
<path d="M2313 1308 c8 -13 18 -23 22 -23 4 0 14 10 23 23 8 12 10 22 4 22 -6
0 -14 -10 -18 -22 l-7 -23 -10 23 c-6 12 -14 22 -20 22 -5 0 -3 -10 6 -22z"/>
<path d="M2538 1299 c3 -20 0 -34 -9 -40 -10 -6 -5 -8 16 -8 17 0 24 3 18 6
-7 2 -13 20 -13 39 0 19 -4 34 -8 34 -5 0 -6 -14 -4 -31z"/>
<path d="M2733 1308 c8 -13 18 -23 22 -23 4 0 14 10 23 23 8 12 10 22 4 22 -6
0 -14 -10 -18 -22 l-7 -23 -10 23 c-6 12 -14 22 -20 22 -5 0 -3 -10 6 -22z"/>
<path d="M2879 1321 c9 -6 12 -20 9 -40 -3 -19 0 -31 7 -31 7 0 10 12 7 31 -3
20 0 34 9 40 10 6 5 9 -16 9 -21 0 -26 -3 -16 -9z"/>
<path d="M2976 1316 c3 -8 -2 -16 -13 -19 -17 -4 -17 -5 1 -6 13 -1 17 -6 13
-21 -3 -11 -1 -20 4 -20 5 0 9 18 9 40 0 22 -4 40 -10 40 -5 0 -7 -6 -4 -14z"/>
<path d="M3010 1290 c0 -37 2 -40 28 -39 23 2 24 2 5 6 -25 5 -31 28 -10 36
10 4 10 6 0 6 -7 1 -13 6 -13 12 0 6 9 9 20 6 11 -3 20 -1 20 4 0 5 -11 9 -25
9 -22 0 -25 -4 -25 -40z"/>
<path d="M3075 1290 c0 -22 5 -40 10 -40 12 0 11 73 -1 77 -5 2 -9 -15 -9 -37z"/>
<path d="M3116 1294 c3 -50 11 -53 16 -5 2 24 -1 41 -7 41 -6 0 -10 -16 -9
-36z"/>
<path d="M1557 1289 c4 -12 0 -25 -8 -30 -10 -6 -5 -9 16 -8 17 0 24 3 18 6
-7 2 -13 16 -13 29 0 13 -4 24 -9 24 -5 0 -7 -9 -4 -21z"/>
<path d="M1617 1303 c-3 -5 5 -8 18 -8 13 0 21 3 18 8 -2 4 -10 7 -18 7 -8 0
-16 -3 -18 -7z"/>
<path d="M1757 1303 c-3 -5 5 -8 18 -8 13 0 21 3 18 8 -2 4 -10 7 -18 7 -8 0
-16 -3 -18 -7z"/>
<path d="M2397 1289 c4 -12 0 -25 -8 -30 -10 -6 -5 -9 16 -8 17 0 24 3 18 6
-7 2 -13 16 -13 29 0 13 -4 24 -9 24 -5 0 -7 -9 -4 -21z"/>
<path d="M2457 1303 c-3 -5 5 -8 18 -8 13 0 21 3 18 8 -2 4 -10 7 -18 7 -8 0
-16 -3 -18 -7z"/>
<path d="M2597 1303 c-3 -5 5 -8 18 -8 13 0 21 3 18 8 -2 4 -10 7 -18 7 -8 0
-16 -3 -18 -7z"/>
<path d="M1413 1293 c9 -2 23 -2 30 0 6 3 -1 5 -18 5 -16 0 -22 -2 -12 -5z"/>
<path d="M2113 1293 c9 -2 23 -2 30 0 6 3 -1 5 -18 5 -16 0 -22 -2 -12 -5z"/>
<path d="M1407 1264 c3 -9 9 -11 12 -6 3 5 13 12 21 15 9 3 4 6 -12 6 -21 1
-26 -3 -21 -15z"/>
<path d="M2113 1273 c9 -2 23 -2 30 0 6 3 -1 5 -18 5 -16 0 -22 -2 -12 -5z"/>
<path d="M2248 1258 c5 -18 7 -19 10 -6 2 9 11 19 20 21 10 3 6 5 -10 6 -22 1
-25 -2 -20 -21z"/>
<path d="M1617 1258 c2 -5 10 -8 18 -8 8 0 16 3 18 8 3 4 -5 7 -18 7 -13 0
-21 -3 -18 -7z"/>
<path d="M1757 1258 c2 -5 10 -8 18 -8 8 0 16 3 18 8 3 4 -5 7 -18 7 -13 0
-21 -3 -18 -7z"/>
<path d="M1960 1258 c0 -5 11 -8 25 -8 14 0 25 3 25 8 0 4 -11 7 -25 7 -14 0
-25 -3 -25 -7z"/>
<path d="M2457 1258 c2 -5 10 -8 18 -8 8 0 16 3 18 8 3 4 -5 7 -18 7 -13 0
-21 -3 -18 -7z"/>
<path d="M2597 1258 c2 -5 10 -8 18 -8 8 0 16 3 18 8 3 4 -5 7 -18 7 -13 0
-21 -3 -18 -7z"/>
<path d="M143 1253 c9 -2 23 -2 30 0 6 3 -1 5 -18 5 -16 0 -22 -2 -12 -5z"/>
<path d="M1468 1253 c7 -3 16 -2 19 1 4 3 -2 6 -13 5 -11 0 -14 -3 -6 -6z"/>
<path d="M1828 1253 c6 -2 18 -2 25 0 6 3 1 5 -13 5 -14 0 -19 -2 -12 -5z"/>
<path d="M2308 1253 c7 -3 16 -2 19 1 4 3 -2 6 -13 5 -11 0 -14 -3 -6 -6z"/>
<path d="M2728 1253 c7 -3 16 -2 19 1 4 3 -2 6 -13 5 -11 0 -14 -3 -6 -6z"/>
<path d="M2668 1223 c12 -2 30 -2 40 0 9 3 -1 5 -23 4 -22 0 -30 -2 -17 -4z"/>
<path d="M68 1153 c6 -2 18 -2 25 0 6 3 1 5 -13 5 -14 0 -19 -2 -12 -5z"/>
<path d="M1546 1151 c-4 -5 3 -7 14 -4 23 6 26 13 6 13 -8 0 -17 -4 -20 -9z"/>
<path d="M1628 1129 c3 -20 0 -34 -9 -40 -10 -6 -5 -8 16 -8 17 0 24 3 18 6
-7 2 -13 20 -13 39 0 19 -4 34 -8 34 -5 0 -6 -14 -4 -31z"/>
<path d="M1988 1153 c7 -3 16 -2 19 1 4 3 -2 6 -13 5 -11 0 -14 -3 -6 -6z"/>
<path d="M1775 1131 l20 -8 -20 -5 c-16 -5 -17 -6 -2 -7 9 0 17 -6 17 -12 0
-6 -9 -9 -20 -6 -11 3 -20 1 -20 -5 0 -5 10 -8 22 -6 33 4 37 58 5 57 -21 0
-21 -1 -2 -8z"/>
<path d="M1845 1131 l20 -8 -20 -5 c-16 -5 -17 -6 -2 -7 9 0 17 -6 17 -12 0
-6 -9 -9 -20 -6 -11 3 -20 1 -20 -5 0 -5 10 -8 22 -6 33 4 37 58 5 57 -21 0
-21 -1 -2 -8z"/>
<path d="M1907 1119 c4 -12 0 -25 -8 -30 -10 -6 -5 -9 16 -8 17 0 24 3 18 6
-7 2 -13 16 -13 29 0 13 -4 24 -9 24 -5 0 -7 -9 -4 -21z"/>
<path d="M1973 1133 c9 -2 23 -2 30 0 6 3 -1 5 -18 5 -16 0 -22 -2 -12 -5z"/>
<path d="M2047 1119 c4 -12 0 -25 -8 -30 -10 -6 -5 -9 16 -8 17 0 24 3 18 6
-7 2 -13 16 -13 29 0 13 -4 24 -9 24 -5 0 -7 -9 -4 -21z"/>
<path d="M2107 1133 c-3 -5 5 -8 18 -8 13 0 21 3 18 8 -2 4 -10 7 -18 7 -8 0
-16 -3 -18 -7z"/>
<path d="M2247 1133 c-3 -5 5 -8 18 -8 13 0 21 3 18 8 -2 4 -10 7 -18 7 -8 0
-16 -3 -18 -7z"/>
<path d="M2387 1133 c-3 -5 5 -8 18 -8 13 0 21 3 18 8 -2 4 -10 7 -18 7 -8 0
-16 -3 -18 -7z"/>
<path d="M1483 1123 c9 -2 23 -2 30 0 6 3 -1 5 -18 5 -16 0 -22 -2 -12 -5z"/>
<path d="M2603 1123 c9 -2 23 -2 30 0 6 3 -1 5 -18 5 -16 0 -22 -2 -12 -5z"/>
<path d="M1686 1111 c-4 -5 3 -7 14 -4 23 6 26 13 6 13 -8 0 -17 -4 -20 -9z"/>
<path d="M2176 1111 c-4 -5 3 -7 14 -4 23 6 26 13 6 13 -8 0 -17 -4 -20 -9z"/>
<path d="M2316 1111 c-4 -5 3 -7 14 -4 23 6 26 13 6 13 -8 0 -17 -4 -20 -9z"/>
<path d="M1477 1094 c3 -9 9 -11 12 -6 3 5 13 12 21 15 9 3 4 6 -12 6 -21 1
-26 -3 -21 -15z"/>
<path d="M2603 1103 c9 -2 23 -2 30 0 6 3 -1 5 -18 5 -16 0 -22 -2 -12 -5z"/>
<path d="M160 1090 c-9 -6 -10 -10 -3 -10 6 0 15 5 18 10 8 12 4 12 -15 0z"/>
<path d="M1700 1090 c-12 -7 -10 -9 7 -7 12 0 19 5 17 9 -6 10 -6 10 -24 -2z"/>
<path d="M2108 1088 c5 -5 16 -8 23 -6 8 3 3 7 -10 11 -17 4 -21 3 -13 -5z"/>
<path d="M2190 1090 c-12 -7 -10 -9 7 -7 12 0 19 5 17 9 -6 10 -6 10 -24 -2z"/>
<path d="M2248 1088 c5 -5 16 -8 23 -6 8 3 3 7 -10 11 -17 4 -21 3 -13 -5z"/>
<path d="M2330 1090 c-12 -7 -10 -9 7 -7 12 0 19 5 17 9 -6 10 -6 10 -24 -2z"/>
<path d="M2387 1088 c2 -5 10 -8 18 -8 8 0 16 3 18 8 3 4 -5 7 -18 7 -13 0
-21 -3 -18 -7z"/>
<path d="M2807 1088 c2 -5 10 -8 18 -8 8 0 16 3 18 8 3 4 -5 7 -18 7 -13 0
-21 -3 -18 -7z"/>
<path d="M2880 1085 c0 -8 2 -15 4 -15 2 0 6 7 10 15 3 8 1 15 -4 15 -6 0 -10
-7 -10 -15z"/>
<path d="M1973 1083 c9 -2 23 -2 30 0 6 3 -1 5 -18 5 -16 0 -22 -2 -12 -5z"/>
<path d="M2743 1083 c9 -2 23 -2 30 0 6 3 -1 5 -18 5 -16 0 -22 -2 -12 -5z"/>
<path d="M68 983 c6 -2 18 -2 25 0 6 3 1 5 -13 5 -14 0 -19 -2 -12 -5z"/>
<path d="M1190 950 c0 -37 2 -40 28 -39 23 2 24 2 5 6 -25 5 -31 28 -10 36 10
4 10 6 0 6 -7 1 -13 6 -13 12 0 6 9 9 20 6 11 -3 20 -1 20 4 0 5 -11 9 -25 9
-22 0 -25 -4 -25 -40z"/>
<path d="M1265 950 c0 -36 2 -40 25 -39 19 1 20 3 7 6 -15 4 -18 12 -15 39 2
20 0 34 -7 34 -5 0 -10 -18 -10 -40z"/>
<path d="M1335 980 c-9 -14 1 -27 25 -33 11 -3 18 -1 14 4 -3 5 -12 9 -20 9
-8 0 -14 5 -14 11 0 6 9 9 20 6 11 -3 20 -1 20 4 0 12 -37 11 -45 -1z"/>
<path d="M1408 983 c6 -2 12 -17 12 -33 0 -16 -6 -31 -12 -33 -7 -3 1 -5 17
-5 17 0 24 2 18 5 -7 2 -13 17 -13 33 0 16 6 31 13 33 6 3 -1 5 -18 5 -16 0
-24 -2 -17 -5z"/>
<path d="M1475 950 c0 -34 3 -40 20 -39 11 0 14 3 8 6 -7 2 -13 11 -13 19 0 9
5 12 10 9 6 -3 10 1 10 10 0 9 -4 13 -10 10 -5 -3 -10 -1 -10 6 0 6 8 9 20 6
11 -3 20 -1 20 4 0 5 -12 9 -27 9 -26 0 -28 -3 -28 -40z"/>
<path d="M1675 980 c3 -5 8 -10 11 -10 2 0 4 5 4 10 0 6 -5 10 -11 10 -5 0 -7
-4 -4 -10z"/>
<path d="M1716 974 c-5 -14 -4 -15 9 -4 17 14 19 20 6 20 -5 0 -12 -7 -15 -16z"/>
<path d="M1908 959 c3 -20 0 -34 -9 -40 -10 -6 -5 -8 16 -8 17 0 24 3 18 6 -7
2 -13 20 -13 39 0 19 -4 34 -8 34 -5 0 -6 -14 -4 -31z"/>
<path d="M2048 983 c26 -5 29 -20 5 -25 -15 -3 -15 -5 3 -10 17 -4 21 -1 20
16 -1 15 -8 21 -26 23 -22 1 -22 1 -2 -4z"/>
<path d="M2122 958 c-1 -20 -8 -39 -14 -41 -7 -3 1 -6 17 -6 17 0 25 3 18 7
-6 4 -13 23 -16 42 l-4 35 -1 -37z"/>
<path d="M2175 981 c-4 -7 0 -8 10 -4 10 3 21 0 27 -8 8 -12 9 -11 5 1 -5 18
-33 25 -42 11z"/>
<path d="M2476 976 c3 -8 -2 -16 -13 -19 -12 -3 -10 -5 9 -6 21 -1 25 3 21 19
-3 11 -9 20 -14 20 -5 0 -6 -6 -3 -14z"/>
<path d="M2523 968 c8 -13 18 -23 22 -23 4 0 14 10 23 23 8 12 10 22 4 22 -6
0 -14 -10 -18 -22 l-7 -23 -10 23 c-6 12 -14 22 -20 22 -5 0 -3 -10 6 -22z"/>
<path d="M2748 959 c3 -20 0 -34 -9 -40 -10 -6 -5 -8 16 -8 17 0 24 3 18 6 -7
2 -13 20 -13 39 0 19 -4 34 -8 34 -5 0 -6 -14 -4 -31z"/>
<path d="M2945 950 c0 -33 3 -40 20 -40 17 0 17 2 5 10 -13 9 -13 11 0 20 10
6 11 10 3 10 -20 0 -15 28 5 33 11 3 9 5 -8 6 -23 1 -25 -3 -25 -39z"/>
<path d="M3015 950 c0 -36 2 -40 25 -39 19 1 20 3 7 6 -15 4 -18 12 -15 39 2
20 0 34 -7 34 -5 0 -10 -18 -10 -40z"/>
<path d="M3159 981 c9 -6 12 -20 9 -40 -3 -19 0 -31 7 -31 7 0 10 12 7 31 -3
20 0 34 9 40 10 6 5 9 -16 9 -21 0 -26 -3 -16 -9z"/>
<path d="M3256 976 c3 -8 -2 -16 -13 -19 -17 -4 -17 -5 1 -6 13 -1 17 -6 13
-21 -3 -11 -1 -20 4 -20 5 0 9 18 9 40 0 22 -4 40 -10 40 -5 0 -7 -6 -4 -14z"/>
<path d="M3290 950 c0 -37 2 -40 28 -39 23 2 24 2 5 6 -25 5 -31 28 -10 36 10
4 10 6 0 6 -7 1 -13 6 -13 12 0 6 9 9 20 6 11 -3 20 -1 20 4 0 5 -11 9 -25 9
-22 0 -25 -4 -25 -40z"/>
<path d="M3355 950 c0 -22 5 -40 10 -40 12 0 11 73 -1 77 -5 2 -9 -15 -9 -37z"/>
<path d="M3396 954 c3 -50 11 -53 16 -5 2 24 -1 41 -7 41 -6 0 -10 -16 -9 -36z"/>
<path d="M1767 949 c4 -12 0 -25 -8 -30 -10 -6 -5 -9 16 -8 17 0 24 3 18 6 -7
2 -13 16 -13 29 0 13 -4 24 -9 24 -5 0 -7 -9 -4 -21z"/>
<path d="M1827 963 c-3 -5 5 -8 18 -8 13 0 21 3 18 8 -2 4 -10 7 -18 7 -8 0
-16 -3 -18 -7z"/>
<path d="M1967 963 c-3 -5 5 -8 18 -8 13 0 21 3 18 8 -2 4 -10 7 -18 7 -8 0
-16 -3 -18 -7z"/>
<path d="M2607 949 c4 -12 0 -25 -8 -30 -10 -6 -5 -9 16 -8 17 0 24 3 18 6 -7
2 -13 16 -13 29 0 13 -4 24 -9 24 -5 0 -7 -9 -4 -21z"/>
<path d="M2667 963 c-3 -5 5 -8 18 -8 13 0 21 3 18 8 -2 4 -10 7 -18 7 -8 0
-16 -3 -18 -7z"/>
<path d="M2807 963 c-3 -5 5 -8 18 -8 13 0 21 3 18 8 -2 4 -10 7 -18 7 -8 0
-16 -3 -18 -7z"/>
<path d="M1623 953 c9 -2 23 -2 30 0 6 3 -1 5 -18 5 -16 0 -22 -2 -12 -5z"/>
<path d="M2323 953 c9 -2 23 -2 30 0 6 3 -1 5 -18 5 -16 0 -22 -2 -12 -5z"/>
<path d="M148 933 c6 -2 18 -2 25 0 6 3 1 5 -13 5 -14 0 -19 -2 -12 -5z"/>
<path d="M1617 924 c3 -9 9 -11 12 -6 3 5 13 12 21 15 9 3 4 6 -12 6 -21 1
-26 -3 -21 -15z"/>
<path d="M2323 933 c9 -2 23 -2 30 0 6 3 -1 5 -18 5 -16 0 -22 -2 -12 -5z"/>
<path d="M2458 918 c5 -18 7 -19 10 -6 2 9 11 19 20 21 10 3 6 5 -10 6 -22 1
-25 -2 -20 -21z"/>
<path d="M1330 918 c0 -5 9 -8 19 -8 11 0 22 3 24 8 3 4 -6 7 -19 7 -13 0 -24
-3 -24 -7z"/>
<path d="M1827 918 c2 -5 10 -8 18 -8 8 0 16 3 18 8 3 4 -5 7 -18 7 -13 0 -21
-3 -18 -7z"/>
<path d="M1967 918 c2 -5 10 -8 18 -8 8 0 16 3 18 8 3 4 -5 7 -18 7 -13 0 -21
-3 -18 -7z"/>
<path d="M2170 918 c0 -5 11 -8 25 -8 14 0 25 3 25 8 0 4 -11 7 -25 7 -14 0
-25 -3 -25 -7z"/>
<path d="M2667 918 c2 -5 10 -8 18 -8 8 0 16 3 18 8 3 4 -5 7 -18 7 -13 0 -21
-3 -18 -7z"/>
<path d="M2807 918 c2 -5 10 -8 18 -8 8 0 16 3 18 8 3 4 -5 7 -18 7 -13 0 -21
-3 -18 -7z"/>
<path d="M1678 913 c7 -3 16 -2 19 1 4 3 -2 6 -13 5 -11 0 -14 -3 -6 -6z"/>
<path d="M2038 913 c6 -2 18 -2 25 0 6 3 1 5 -13 5 -14 0 -19 -2 -12 -5z"/>
<path d="M2518 913 c7 -3 16 -2 19 1 4 3 -2 6 -13 5 -11 0 -14 -3 -6 -6z"/>
<path d="M2878 883 c12 -2 30 -2 40 0 9 3 -1 5 -23 4 -22 0 -30 -2 -17 -4z"/>
<path d="M68 813 c6 -2 18 -2 25 0 6 3 1 5 -13 5 -14 0 -19 -2 -12 -5z"/>
<path d="M148 813 c7 -3 16 -2 19 1 4 3 -2 6 -13 5 -11 0 -14 -3 -6 -6z"/>
<path d="M1546 811 c-4 -5 3 -7 14 -4 23 6 26 13 6 13 -8 0 -17 -4 -20 -9z"/>
<path d="M1628 789 c3 -20 0 -34 -9 -40 -10 -6 -5 -8 16 -8 17 0 24 3 18 6 -7
2 -13 20 -13 39 0 19 -4 34 -8 34 -5 0 -6 -14 -4 -31z"/>
<path d="M1988 813 c7 -3 16 -2 19 1 4 3 -2 6 -13 5 -11 0 -14 -3 -6 -6z"/>
<path d="M2748 813 c7 -3 16 -2 19 1 4 3 -2 6 -13 5 -11 0 -14 -3 -6 -6z"/>
<path d="M1775 791 l20 -8 -20 -5 c-16 -5 -17 -6 -2 -7 9 0 17 -6 17 -12 0 -6
-9 -9 -20 -6 -11 3 -20 1 -20 -5 0 -5 10 -8 22 -6 33 4 37 58 5 57 -21 0 -21
-1 -2 -8z"/>
<path d="M1845 791 l20 -8 -20 -5 c-16 -5 -17 -6 -2 -7 9 0 17 -6 17 -12 0 -6
-9 -9 -20 -6 -11 3 -20 1 -20 -5 0 -5 10 -8 22 -6 33 4 37 58 5 57 -21 0 -21
-1 -2 -8z"/>
<path d="M1907 779 c4 -12 0 -25 -8 -30 -10 -6 -5 -9 16 -8 17 0 24 3 18 6 -7
2 -13 16 -13 29 0 13 -4 24 -9 24 -5 0 -7 -9 -4 -21z"/>
<path d="M1973 793 c9 -2 23 -2 30 0 6 3 -1 5 -18 5 -16 0 -22 -2 -12 -5z"/>
<path d="M2047 779 c4 -12 0 -25 -8 -30 -10 -6 -5 -9 16 -8 17 0 24 3 18 6 -7
2 -13 16 -13 29 0 13 -4 24 -9 24 -5 0 -7 -9 -4 -21z"/>
<path d="M2107 793 c-3 -5 5 -8 18 -8 13 0 21 3 18 8 -2 4 -10 7 -18 7 -8 0
-16 -3 -18 -7z"/>
<path d="M2247 793 c-3 -5 5 -8 18 -8 13 0 21 3 18 8 -2 4 -10 7 -18 7 -8 0
-16 -3 -18 -7z"/>
<path d="M2387 793 c-3 -5 5 -8 18 -8 13 0 21 3 18 8 -2 4 -10 7 -18 7 -8 0
-16 -3 -18 -7z"/>
<path d="M148 783 c7 -3 16 -2 19 1 4 3 -2 6 -13 5 -11 0 -14 -3 -6 -6z"/>
<path d="M1483 783 c9 -2 23 -2 30 0 6 3 -1 5 -18 5 -16 0 -22 -2 -12 -5z"/>
<path d="M2603 783 c9 -2 23 -2 30 0 6 3 -1 5 -18 5 -16 0 -22 -2 -12 -5z"/>
<path d="M2755 780 c-19 -8 -19 -9 3 -9 12 -1 22 4 22 9 0 6 -1 10 -2 9 -2 0
-12 -4 -23 -9z"/>
<path d="M1686 771 c-4 -5 3 -7 14 -4 23 6 26 13 6 13 -8 0 -17 -4 -20 -9z"/>
<path d="M2176 771 c-4 -5 3 -7 14 -4 23 6 26 13 6 13 -8 0 -17 -4 -20 -9z"/>
<path d="M2316 771 c-4 -5 3 -7 14 -4 23 6 26 13 6 13 -8 0 -17 -4 -20 -9z"/>
<path d="M1477 754 c3 -9 9 -11 12 -6 3 5 13 12 21 15 9 3 4 6 -12 6 -21 1
-26 -3 -21 -15z"/>
<path d="M2603 763 c9 -2 23 -2 30 0 6 3 -1 5 -18 5 -16 0 -22 -2 -12 -5z"/>
<path d="M1700 750 c-12 -7 -10 -9 7 -7 12 0 19 5 17 9 -6 10 -6 10 -24 -2z"/>
<path d="M2108 748 c5 -5 16 -8 23 -6 8 3 3 7 -10 11 -17 4 -21 3 -13 -5z"/>
<path d="M2190 750 c-12 -7 -10 -9 7 -7 12 0 19 5 17 9 -6 10 -6 10 -24 -2z"/>
<path d="M2248 748 c5 -5 16 -8 23 -6 8 3 3 7 -10 11 -17 4 -21 3 -13 -5z"/>
<path d="M2330 750 c-12 -7 -10 -9 7 -7 12 0 19 5 17 9 -6 10 -6 10 -24 -2z"/>
<path d="M2387 748 c2 -5 10 -8 18 -8 8 0 16 3 18 8 3 4 -5 7 -18 7 -13 0 -21
-3 -18 -7z"/>
<path d="M2810 745 c0 -8 2 -15 4 -15 2 0 6 7 10 15 3 8 1 15 -4 15 -6 0 -10
-7 -10 -15z"/>
<path d="M1973 743 c9 -2 23 -2 30 0 6 3 -1 5 -18 5 -16 0 -22 -2 -12 -5z"/>
<path d="M68 643 c6 -2 18 -2 25 0 6 3 1 5 -13 5 -14 0 -19 -2 -12 -5z"/>
<path d="M1190 610 c0 -37 2 -40 28 -39 23 2 24 2 5 6 -25 5 -31 28 -10 36 10
4 10 6 0 6 -7 1 -13 6 -13 12 0 6 9 9 20 6 11 -3 20 -1 20 4 0 5 -11 9 -25 9
-22 0 -25 -4 -25 -40z"/>
<path d="M1255 610 c0 -22 5 -40 10 -40 12 0 11 73 -1 77 -5 2 -9 -15 -9 -37z"/>
<path d="M1296 614 c3 -50 11 -53 16 -5 2 24 -1 41 -7 41 -6 0 -10 -16 -9 -36z"/>
<path d="M1330 646 c0 -2 11 -6 25 -8 13 -3 22 -1 19 3 -5 9 -44 13 -44 5z"/>
<path d="M1478 643 c6 -2 12 -17 12 -33 0 -16 -6 -31 -12 -33 -7 -3 1 -5 17
-5 17 0 24 2 18 5 -7 2 -13 17 -13 33 0 16 6 31 13 33 6 3 -1 5 -18 5 -16 0
-24 -2 -17 -5z"/>
<path d="M1545 610 c0 -34 3 -40 20 -39 11 0 14 3 8 6 -7 2 -13 11 -13 19 0 9
5 12 10 9 6 -3 10 1 10 10 0 9 -4 13 -10 10 -5 -3 -10 -1 -10 6 0 6 8 9 20 6
11 -3 20 -1 20 4 0 5 -12 9 -27 9 -26 0 -28 -3 -28 -40z"/>
<path d="M145 610 c-3 -6 1 -7 9 -4 18 7 21 14 7 14 -6 0 -13 -4 -16 -10z"/>
<path d="M1350 580 c-23 -7 -23 -8 -3 -9 12 -1 25 4 28 9 3 6 5 10 3 9 -2 -1
-14 -5 -28 -9z"/>
<path d="M1620 575 c0 -8 2 -15 4 -15 2 0 6 7 10 15 3 8 1 15 -4 15 -6 0 -10
-7 -10 -15z"/>
<path d="M1408 543 c12 -2 30 -2 40 0 9 3 -1 5 -23 4 -22 0 -30 -2 -17 -4z"/>
<path d="M68 473 c6 -2 18 -2 25 0 6 3 1 5 -13 5 -14 0 -19 -2 -12 -5z"/>
<path d="M138 473 c6 -2 18 -2 25 0 6 3 1 5 -13 5 -14 0 -19 -2 -12 -5z"/>
<path d="M910 440 c0 -37 2 -40 28 -39 23 2 24 2 5 6 -25 5 -31 28 -10 36 10
4 10 6 0 6 -7 1 -13 6 -13 12 0 6 9 9 20 6 11 -3 20 -1 20 4 0 5 -11 9 -25 9
-22 0 -25 -4 -25 -40z"/>
<path d="M975 440 c0 -22 5 -40 10 -40 12 0 11 73 -1 77 -5 2 -9 -15 -9 -37z"/>
<path d="M1016 444 c3 -50 11 -53 16 -5 2 24 -1 41 -7 41 -6 0 -10 -16 -9 -36z"/>
<path d="M1050 476 c0 -2 11 -6 25 -8 13 -3 22 -1 19 3 -5 9 -44 13 -44 5z"/>
<path d="M1198 473 c6 -2 12 -17 12 -33 0 -16 -6 -31 -12 -33 -7 -3 1 -5 17
-5 17 0 24 2 18 5 -7 2 -13 17 -13 33 0 16 6 31 13 33 6 3 -1 5 -18 5 -16 0
-24 -2 -17 -5z"/>
<path d="M1265 440 c0 -34 3 -40 20 -39 11 0 14 3 8 6 -7 2 -13 11 -13 19 0 9
5 12 10 9 6 -3 10 1 10 10 0 9 -4 13 -10 10 -5 -3 -10 -1 -10 6 0 6 8 9 20 6
11 -3 20 -1 20 4 0 5 -12 9 -27 9 -26 0 -28 -3 -28 -40z"/>
<path d="M1070 410 c-23 -7 -23 -8 -3 -9 12 -1 25 4 28 9 3 6 5 10 3 9 -2 -1
-14 -5 -28 -9z"/>
<path d="M1340 405 c0 -8 2 -15 4 -15 2 0 6 7 10 15 3 8 1 15 -4 15 -6 0 -10
-7 -10 -15z"/>
<path d="M1128 373 c12 -2 30 -2 40 0 9 3 -1 5 -23 4 -22 0 -30 -2 -17 -4z"/>
<path d="M68 303 c6 -2 18 -2 25 0 6 3 1 5 -13 5 -14 0 -19 -2 -12 -5z"/>
<path d="M630 270 c0 -37 2 -40 28 -39 23 2 24 2 5 6 -25 5 -31 28 -10 36 10
4 10 6 0 6 -7 1 -13 6 -13 12 0 6 9 9 20 6 11 -3 20 -1 20 4 0 5 -11 9 -25 9
-22 0 -25 -4 -25 -40z"/>
<path d="M695 270 c0 -22 5 -40 10 -40 12 0 11 73 -1 77 -5 2 -9 -15 -9 -37z"/>
<path d="M736 274 c3 -50 11 -53 16 -5 2 24 -1 41 -7 41 -6 0 -10 -16 -9 -36z"/>
<path d="M770 306 c0 -2 11 -6 25 -8 13 -3 22 -1 19 3 -5 9 -44 13 -44 5z"/>
<path d="M918 303 c6 -2 12 -17 12 -33 0 -16 -6 -31 -12 -33 -7 -3 1 -5 17 -5
17 0 24 2 18 5 -7 2 -13 17 -13 33 0 16 6 31 13 33 6 3 -1 5 -18 5 -16 0 -24
-2 -17 -5z"/>
<path d="M985 270 c0 -34 3 -40 20 -39 11 0 14 3 8 6 -7 2 -13 11 -13 19 0 9
5 12 10 9 6 -3 10 1 10 10 0 9 -4 13 -10 10 -5 -3 -10 -1 -10 6 0 6 8 9 20 6
11 -3 20 -1 20 4 0 5 -12 9 -27 9 -26 0 -28 -3 -28 -40z"/>
<path d="M790 240 c-23 -7 -23 -8 -3 -9 12 -1 25 4 28 9 3 6 5 10 3 9 -2 -1
-14 -5 -28 -9z"/>
<path d="M1060 235 c0 -8 2 -15 4 -15 2 0 6 7 10 15 3 8 1 15 -4 15 -6 0 -10
-7 -10 -15z"/>
<path d="M848 203 c12 -2 30 -2 40 0 9 3 -1 5 -23 4 -22 0 -30 -2 -17 -4z"/>
<path d="M68 133 c6 -2 18 -2 25 0 6 3 1 5 -13 5 -14 0 -19 -2 -12 -5z"/>
<path d="M350 100 c0 -37 2 -40 28 -39 23 2 24 2 5 6 -25 5 -31 28 -10 36 10
4 10 6 0 6 -7 1 -13 6 -13 12 0 6 9 9 20 6 11 -3 20 -1 20 4 0 5 -11 9 -25 9
-22 0 -25 -4 -25 -40z"/>
<path d="M415 100 c0 -22 5 -40 10 -40 12 0 11 73 -1 77 -5 2 -9 -15 -9 -37z"/>
<path d="M456 104 c3 -50 11 -53 16 -5 2 24 -1 41 -7 41 -6 0 -10 -16 -9 -36z"/>
<path d="M490 136 c0 -2 11 -6 25 -8 13 -3 22 -1 19 3 -5 9 -44 13 -44 5z"/>
<path d="M638 133 c6 -2 12 -17 12 -33 0 -16 -6 -31 -12 -33 -7 -3 1 -5 17 -5
17 0 24 2 18 5 -7 2 -13 17 -13 33 0 16 6 31 13 33 6 3 -1 5 -18 5 -16 0 -24
-2 -17 -5z"/>
<path d="M705 100 c0 -34 3 -40 20 -39 11 0 14 3 8 6 -7 2 -13 11 -13 19 0 9
5 12 10 9 6 -3 10 1 10 10 0 9 -4 13 -10 10 -5 -3 -10 -1 -10 6 0 6 8 9 20 6
11 -3 20 -1 20 4 0 5 -12 9 -27 9 -26 0 -28 -3 -28 -40z"/>
<path d="M160 100 c-9 -6 -10 -10 -3 -10 6 0 15 5 18 10 8 12 4 12 -15 0z"/>
<path d="M510 70 c-23 -7 -23 -8 -3 -9 12 -1 25 4 28 9 3 6 5 10 3 9 -2 -1
-14 -5 -28 -9z"/>
<path d="M780 65 c0 -8 2 -15 4 -15 2 0 6 7 10 15 3 8 1 15 -4 15 -6 0 -10 -7
-10 -15z"/>
<path d="M568 33 c12 -2 30 -2 40 0 9 3 -1 5 -23 4 -22 0 -30 -2 -17 -4z"/>
</g>
</svg>
